<svg width="1076" height="723" viewBox="0 0 1076 723" fill="none" xmlns="http://www.w3.org/2000/svg">
<g clip-path="url(#clip0)">
<path d="M1075.56 721H618.018V723H1075.56V721Z" fill="#3F3D56"/>
<path d="M1040.56 692H583.018V694H1040.56V692Z" fill="#3F3D56"/>
<path d="M895.565 663H438.018V665H895.565V663Z" fill="#3F3D56"/>
<path d="M329.252 575.576C326.478 575.576 323.675 575.533 320.924 575.447L320.987 573.449C324.937 573.572 328.968 573.606 332.937 573.551L332.964 575.551C331.729 575.568 330.492 575.576 329.252 575.576ZM344.997 575.113L344.88 573.117C348.836 572.883 352.843 572.555 356.789 572.142L356.998 574.13C353.022 574.547 348.985 574.878 344.997 575.113H344.997ZM308.902 574.801C304.912 574.495 300.881 574.095 296.919 573.609L297.163 571.624C301.095 572.106 305.095 572.504 309.054 572.807L308.902 574.801ZM368.941 572.602L368.641 570.625C372.572 570.029 376.533 569.336 380.411 568.566L380.8 570.527C376.892 571.303 372.902 572.001 368.941 572.602V572.602ZM285.006 571.87C281.065 571.202 277.087 570.435 273.182 569.587L273.607 567.632C277.481 568.474 281.429 569.236 285.34 569.898L285.006 571.87ZM392.554 567.909L392.074 565.967C395.932 565.013 399.812 563.958 403.606 562.833L404.174 564.751C400.351 565.885 396.442 566.948 392.554 567.909V567.909ZM261.478 566.762C257.612 565.734 253.722 564.603 249.915 563.399L250.518 561.492C254.296 562.687 258.156 563.809 261.992 564.828L261.478 566.762ZM415.636 561.061L414.98 559.172C418.724 557.87 422.49 556.463 426.174 554.989L426.916 556.846C423.204 558.331 419.41 559.749 415.636 561.061V561.061ZM238.491 559.494C234.736 558.115 230.958 556.625 227.263 555.069L228.039 553.225C231.706 554.77 235.455 556.247 239.181 557.617L238.491 559.494ZM437.965 552.126L437.137 550.306C440.733 548.672 444.347 546.928 447.879 545.122L448.789 546.904C445.23 548.723 441.588 550.48 437.965 552.126V552.126ZM459.364 541.188L458.373 539.451C461.822 537.484 465.264 535.415 468.603 533.303L469.671 534.992C466.307 537.121 462.839 539.206 459.364 541.188V541.188ZM479.687 528.33L478.542 526.692C481.789 524.423 485.03 522.047 488.173 519.631L489.392 521.217C486.225 523.652 482.959 526.045 479.687 528.33V528.33ZM174.861 525.514C171.633 523.169 168.409 520.713 165.276 518.212L166.524 516.65C169.633 519.131 172.833 521.569 176.036 523.895L174.861 525.514ZM498.764 513.668L497.475 512.139C500.501 509.585 503.513 506.924 506.428 504.229L507.786 505.698C504.849 508.413 501.814 511.095 498.764 513.668V513.668ZM156.036 510.483C153.03 507.85 150.043 505.112 147.159 502.343L148.544 500.9C151.406 503.648 154.37 506.366 157.353 508.979L156.036 510.483ZM516.437 497.322L515.013 495.917C517.803 493.09 520.563 490.164 523.214 487.222L524.701 488.56C522.029 491.526 519.248 494.473 516.437 497.322V497.322ZM138.664 493.81C135.906 490.909 133.182 487.911 130.567 484.9L132.078 483.589C134.672 486.578 137.375 489.553 140.113 492.431L138.664 493.81ZM532.557 479.43L531.012 478.16C533.533 475.093 536.014 471.928 538.39 468.751L539.992 469.949C537.598 473.15 535.097 476.34 532.557 479.43ZM122.886 475.633C120.409 472.503 117.97 469.272 115.637 466.029L117.26 464.861C119.576 468.078 121.996 471.285 124.454 474.393L122.886 475.633ZM546.986 460.136L545.331 459.013C547.562 455.729 549.746 452.349 551.824 448.965L553.529 450.012C551.434 453.421 549.233 456.827 546.986 460.136ZM108.835 456.107C106.656 452.766 104.523 449.328 102.495 445.887L104.218 444.871C106.23 448.286 108.347 451.698 110.51 455.013L108.835 456.107ZM559.601 439.596L557.851 438.629C559.771 435.155 561.636 431.586 563.397 428.023L565.19 428.909C563.416 432.499 561.536 436.095 559.601 439.596ZM570.282 417.975L568.45 417.172C570.043 413.533 571.574 409.805 572.998 406.094L574.866 406.811C573.43 410.551 571.887 414.307 570.282 417.975ZM86.3793 413.659C84.8461 409.98 83.3778 406.215 82.0155 402.469L83.8954 401.785C85.2469 405.503 86.704 409.239 88.225 412.89L86.3793 413.659ZM578.93 395.444L577.032 394.815C578.28 391.054 579.457 387.21 580.532 383.389L582.457 383.93C581.374 387.781 580.187 391.655 578.93 395.444V395.444ZM78.1629 391.061C76.973 387.249 75.8548 383.356 74.8397 379.487L76.7743 378.979C77.7816 382.819 78.8915 386.683 80.0721 390.465L78.1629 391.061ZM585.449 372.266L583.5 371.813C584.396 367.958 585.214 364.022 585.934 360.115L587.901 360.476C587.176 364.414 586.351 368.38 585.449 372.266V372.266ZM72.0546 367.772C71.2206 363.866 70.4657 359.886 69.8114 355.942L71.7841 355.614C72.434 359.529 73.183 363.478 74.0107 367.354L72.0546 367.772ZM589.807 348.588L587.825 348.317C588.363 344.4 588.817 340.406 589.175 336.445L591.167 336.624C590.806 340.617 590.348 344.641 589.807 348.588H589.807ZM68.1132 344.022C67.6415 340.063 67.2543 336.031 66.9618 332.037L68.9569 331.891C69.2465 335.855 69.6313 339.856 70.0995 343.785L68.1132 344.022ZM591.982 324.613L589.984 324.523C590.162 320.56 590.252 316.54 590.252 312.576H592.252C592.252 316.571 592.162 320.62 591.982 324.613V324.613ZM66.3558 320.011C66.2875 317.559 66.2528 315.057 66.2523 312.576C66.2523 311.037 66.2655 309.501 66.2919 307.968L68.2919 308.003C68.2655 309.525 68.2523 311.049 68.2523 312.576C68.2528 315.038 68.2875 317.522 68.3549 319.956L66.3558 320.011ZM68.7665 296.063L66.7704 295.938C67.0199 291.942 67.3646 287.906 67.7938 283.942L69.7821 284.157C69.3558 288.092 69.0145 292.097 68.7665 296.063H68.7665ZM588.961 283.862C588.562 279.919 588.012 277.996 587.432 274.071L589.411 273.779C589.995 277.734 590.496 280.754 590.899 284.726L588.961 283.862ZM71.3392 272.31L69.3627 272.005C69.9755 268.048 70.6874 264.06 71.4789 260.151L73.4389 260.547C72.6537 264.427 71.9471 268.385 71.3392 272.31H71.3392ZM585.413 262.295C584.651 258.393 583.79 254.466 582.855 250.622L584.798 250.15C585.741 254.023 586.608 257.98 587.376 261.911L585.413 262.295ZM76.0765 248.893L74.1366 248.407C75.1078 244.534 76.1835 240.628 77.3338 236.798L79.2489 237.373C78.1078 241.174 77.0404 245.05 76.0765 248.893ZM579.761 239.08C578.646 235.272 577.427 231.441 576.139 227.693L578.03 227.043C579.328 230.82 580.557 234.681 581.681 238.517L579.761 239.08ZM82.9613 225.98L81.0746 225.317C82.4037 221.536 83.8387 217.737 85.3397 214.026L87.1942 214.776C85.7045 218.458 84.2801 222.228 82.9613 225.98V225.98ZM571.995 216.485C570.536 212.804 568.973 209.111 567.35 205.506L569.174 204.684C570.81 208.317 572.384 212.039 573.854 215.748L571.995 216.485ZM91.9379 203.783L90.1205 202.948C91.7909 199.31 93.5687 195.662 95.4046 192.105L97.182 193.022C95.3597 196.552 93.5956 200.172 91.9379 203.783ZM562.206 194.747C560.416 191.216 558.52 187.678 556.57 184.232L558.31 183.247C560.276 186.72 562.186 190.284 563.99 193.843L562.206 194.747ZM102.915 182.517L101.182 181.519C103.177 178.055 105.281 174.587 107.435 171.213L109.121 172.289C106.983 175.638 104.894 179.079 102.915 182.517ZM550.456 173.982C548.343 170.618 546.13 167.266 543.879 164.02L545.522 162.881C547.79 166.152 550.021 169.529 552.15 172.919L550.456 173.982ZM115.788 162.359L114.153 161.206C116.459 157.936 118.869 154.677 121.32 151.519L122.9 152.744C120.469 155.879 118.076 159.114 115.788 162.359ZM536.852 154.367C534.442 151.21 531.932 148.072 529.39 145.039L530.923 143.755C533.484 146.81 536.013 149.972 538.442 153.153L536.852 154.367ZM130.441 143.468L128.919 142.171C131.506 139.132 134.203 136.107 136.934 133.18L138.396 134.544C135.686 137.449 133.01 140.451 130.441 143.468ZM521.511 136.059C518.825 133.135 516.037 130.237 513.229 127.446L514.639 126.027C517.469 128.84 520.277 131.76 522.984 134.706L521.511 136.059ZM146.746 125.995L145.348 124.566C148.207 121.768 151.167 119.002 154.143 116.344L155.475 117.837C152.521 120.473 149.584 123.219 146.746 125.995V125.995ZM504.564 119.216C501.62 116.545 498.579 113.911 495.529 111.387L496.804 109.846C499.877 112.389 502.941 115.043 505.908 117.734L504.564 119.216ZM164.564 110.084L163.302 108.533C166.395 106.014 169.592 103.53 172.804 101.149L173.995 102.755C170.807 105.118 167.634 107.584 164.564 110.084V110.084ZM183.746 95.8665L182.63 94.2073C185.941 91.9798 189.349 89.7986 192.761 87.723L193.8 89.432C190.414 91.4915 187.032 93.6566 183.746 95.8665ZM204.134 83.4651L203.174 81.7103C206.677 79.7938 210.268 77.9344 213.848 76.1829L214.727 77.9798C211.174 79.7176 207.61 81.5628 204.134 83.4651H204.134ZM445.504 78.8314C441.946 77.0584 438.3 75.3455 434.669 73.7405L435.478 71.9114C439.137 73.5286 442.811 75.2547 446.397 77.0413L445.504 78.8314ZM225.556 72.9871L224.761 71.1521C228.421 69.5657 232.165 68.0442 235.889 66.6297L236.599 68.4998C232.904 69.9031 229.188 71.4129 225.556 72.9871H225.556ZM423.608 69.1526C419.905 67.7166 416.115 66.3465 412.342 65.0809L412.979 63.1844C416.78 64.4603 420.599 65.8406 424.33 67.2884L423.608 69.1526ZM247.865 64.5159L247.242 62.6155C251.042 61.3694 254.92 60.1961 258.767 59.1292L259.302 61.056C255.484 62.115 251.636 63.2791 247.865 64.5159ZM400.928 61.5423C397.114 60.4549 393.223 59.4422 389.365 58.5325L389.824 56.5862C393.712 57.5027 397.632 58.5232 401.477 59.6185L400.928 61.5423ZM270.887 58.1268L270.441 56.1771C274.338 55.2869 278.307 54.4759 282.238 53.7669L282.594 55.7347C278.692 56.4388 274.753 57.2435 270.887 58.1268V58.1268ZM377.674 56.0599C373.78 55.3289 369.813 54.6785 365.883 54.1268L366.161 52.1463C370.121 52.7025 374.119 53.3577 378.043 54.0941L377.674 56.0599ZM294.399 53.8836L294.134 51.9012C298.093 51.3729 302.12 50.9285 306.101 50.5818L306.275 52.574C302.324 52.9188 298.328 53.3592 294.399 53.8836V53.8836ZM354.015 52.7361C350.076 52.3651 346.066 52.0789 342.096 51.887L342.194 49.889C346.193 50.0828 350.233 50.3709 354.203 50.745L354.015 52.7361ZM318.201 51.8069L318.117 49.8089C321.792 49.6556 325.538 49.5775 329.252 49.5765L330.158 49.5779L330.152 51.5779L329.252 51.5765C325.567 51.5775 321.848 51.6551 318.201 51.8069V51.8069Z" fill="#3F3D56"/>
<path d="M778.461 233.362L773.461 267.362C773.461 267.362 751.461 311.362 765.461 356.362L783.461 345.362C783.461 345.362 797.461 291.362 797.461 287.362C797.461 283.362 803.461 236.362 803.461 236.362L778.461 233.362Z" fill="#FFB9B9"/>
<path d="M788.461 342.362L764.461 358.362L776.461 417.362C776.461 417.362 779.461 497.362 778.461 500.362C777.461 503.362 759.461 625.362 759.461 625.362C759.461 625.362 780.461 635.362 799.461 629.362C799.461 629.362 818.461 539.362 818.461 513.362L840.461 422.362L874.461 526.362C874.461 526.362 876.461 596.362 880.461 619.362C884.461 642.362 884.461 645.362 884.461 645.362C884.461 645.362 916.461 654.362 924.461 645.362C924.461 645.362 920.461 527.362 917.461 515.362L910.461 372.362L788.461 342.362Z" fill="#2F2E41"/>
<path d="M767.461 625.362C767.461 625.362 765.461 622.362 759.461 630.362C753.461 638.362 734.461 653.362 734.461 653.362C734.461 653.362 682.461 690.362 721.461 692.362C760.461 694.362 767.461 674.362 767.461 674.362C767.461 674.362 800.461 668.362 801.461 661.362C802.461 654.362 797.461 626.362 797.461 626.362L767.461 625.362Z" fill="#2F2E41"/>
<path d="M886.461 643.362C886.461 643.362 879.461 667.362 881.461 677.362C883.461 687.362 877.461 724.362 905.461 721.362C933.461 718.362 924.461 686.362 924.461 686.362L915.461 645.362L886.461 643.362Z" fill="#2F2E41"/>
<path d="M846.961 119.862C865.186 119.862 879.961 105.087 879.961 86.8617C879.961 68.6363 865.186 53.8617 846.961 53.8617C828.736 53.8617 813.961 68.6363 813.961 86.8617C813.961 105.087 828.736 119.862 846.961 119.862Z" fill="#FFB9B9"/>
<path d="M827.461 104.362C827.461 104.362 837.461 139.362 829.461 152.362C821.461 165.362 883.461 154.362 887.461 142.362C887.461 142.362 867.461 120.362 870.461 99.3617L827.461 104.362Z" fill="#FFB9B9"/>
<path d="M843.461 151.362C843.461 151.362 870.835 153.212 884.148 138.287L933.461 159.362L912.461 275.362C912.461 275.362 954.461 373.362 916.461 382.362C878.461 391.362 768.461 382.362 773.461 349.362C778.461 316.362 798.461 276.362 798.461 276.362C798.461 276.362 803.461 232.362 792.461 212.362C781.461 192.362 788.461 169.362 788.461 169.362L832.479 140.197C832.479 140.197 834.461 151.362 843.461 151.362Z" fill="#575A89"/>
<path d="M800.461 170.362H788.461C788.461 170.362 774.461 173.362 777.461 211.362L770.461 238.362C770.461 238.362 805.461 247.362 810.461 242.362C815.461 237.362 800.461 170.362 800.461 170.362Z" fill="#575A89"/>
<path d="M945.461 230.362L941.461 265.362C941.461 265.362 946.461 311.362 929.461 347.362L923.461 365.362C923.461 365.362 917.461 417.362 901.461 417.362C885.461 417.362 901.461 358.362 901.461 358.362L909.461 299.362C909.461 299.362 915.461 276.362 911.461 266.362C907.461 256.362 906.461 235.362 906.461 235.362L945.461 230.362Z" fill="#FFB9B9"/>
<path d="M838.853 65.2685C843.751 64.5025 848.688 64.013 853.64 63.8025C857.229 63.65 860.967 63.6743 864.21 65.2186C869.099 67.547 871.838 72.8105 873.632 77.9203C875.425 83.03 876.697 88.4907 880.024 92.7635C885.56 86.9853 886.666 78.3948 887.49 70.4354C888.07 64.837 888.584 58.8675 885.995 53.8698C884.401 50.7916 881.77 48.3928 879.106 46.1751C866.386 35.5885 850.231 27.2583 833.854 29.6361L833.471 32.1645C830.676 32.0805 827.88 32.2563 825.117 32.6895L825.702 38.9625L817.003 39.5143L816.67 46.052L807.872 46.357C808.041 48.8693 809.134 51.2301 810.941 52.9843C809.588 53.9621 808.051 54.6563 806.422 55.0253C807.889 60.7043 809.313 66.3963 810.829 72.0625C811.945 76.2365 811.746 79.9244 816.223 77.8874C819.632 76.3364 821.938 71.4043 825.384 69.3665C829.445 66.9659 834.25 65.9887 838.853 65.2685Z" fill="#2F2E41"/>
<path d="M919.461 160.362H933.461C933.461 160.362 956.461 237.362 952.461 238.362C948.461 239.362 901.461 242.362 901.461 242.362L919.461 160.362Z" fill="#575A89"/>
<path d="M323.961 388.862C368.696 388.862 404.961 352.597 404.961 307.862C404.961 263.127 368.696 226.862 323.961 226.862C279.226 226.862 242.961 263.127 242.961 307.862C242.961 352.597 279.226 388.862 323.961 388.862Z" fill="#8F87FB"/>
<path d="M374.961 299.862H331.961V256.862H315.961V299.862H272.961V315.862H315.961V358.862H331.961V315.862H374.961V299.862Z" fill="white"/>
<path d="M181.761 444.69H71.6085V573.023H181.761V444.69Z" fill="#F2F2F2"/>
<path d="M224.539 574.092H70.5391V420.092H224.539V574.092ZM72.6779 571.954H222.4V422.231H72.6779V571.954Z" fill="#3F3D56"/>
<path d="M196.734 465.009H102.622V467.148H196.734V465.009Z" fill="#3F3D56"/>
<path d="M196.734 488.537H102.622V490.676H196.734V488.537Z" fill="#3F3D56"/>
<path d="M196.734 512.065H102.622V514.204H196.734V512.065Z" fill="#3F3D56"/>
<path d="M446.792 22.8346H224.792V133H446.792V22.8346Z" fill="#F2F2F2"/>
<path d="M491.792 134H223.792V0H491.792V134ZM225.792 132H489.792V2H225.792V132Z" fill="#3F3D56"/>
<path d="M407.761 55.917H263.822V57.917H407.761V55.917Z" fill="#3F3D56"/>
<path d="M407.761 76.917H263.822V78.917H407.761V76.917Z" fill="#3F3D56"/>
<path d="M407.761 97.917H263.822V99.917H407.761V97.917Z" fill="#3F3D56"/>
<path d="M624.961 300.862H529.961V401.862H624.961V300.862Z" fill="#F2F2F2"/>
<path d="M648.961 402.862H528.961V282.862H648.961V402.862ZM530.961 400.862H646.961V284.862H530.961V400.862Z" fill="#3F3D56"/>
<path d="M610.461 337.362H544.461V339.362H610.461V337.362Z" fill="#3F3D56"/>
<path d="M610.461 350.362H544.461V352.362H610.461V350.362Z" fill="#3F3D56"/>
<path d="M610.461 363.362H544.461V365.362H610.461V363.362Z" fill="#3F3D56"/>
<path d="M586.565 132H129.018V134H586.565V132Z" fill="#3F3D56"/>
<path d="M714.461 400.862H463.461V402.862H714.461V400.862Z" fill="#3F3D56"/>
<path d="M295.078 572.862H0V574.862H295.078V572.862Z" fill="#3F3D56"/>
</g>
<defs>
<clipPath id="clip0">
<rect width="1075.56" height="723" fill="white"/>
</clipPath>
</defs>
</svg>
