<svg width="1025" height="785" viewBox="0 0 1025 785" fill="none" xmlns="http://www.w3.org/2000/svg">
<g clip-path="url(#clip0)">
<path opacity="0.1" d="M181.802 112.452C176.322 119.102 174.212 128.452 171.852 137.242C152.852 208.082 106.032 265.062 52.7121 305.762C30.1321 323.002 2.64206 346.122 7.58206 377.032C10.2421 393.632 21.9121 405.852 30.5821 419.372C48.7721 447.682 54.6721 486.162 46.0021 520.052C36.1421 558.612 8.58206 594.592 17.1121 633.582C22.3721 657.582 40.2321 674.662 57.4021 689.342C84.1887 712.229 111.829 733.669 140.322 753.662C159.422 767.062 179.742 780.102 202.002 781.802C221.602 783.302 240.802 775.852 259.412 768.502C275.672 762.072 292.342 755.382 305.472 742.502C314.042 734.092 320.872 723.242 330.392 716.362C352.752 700.202 381.472 710.442 407.112 717.362C467.612 733.602 532.362 727.672 589.932 700.622C678.242 659.122 745.552 571.972 831.932 525.212C869.072 505.102 909.472 492.622 943.862 466.722C963.237 451.976 979.887 433.958 993.062 413.482C1019.06 373.372 1033.12 322.232 1029.06 272.172C1025 222.112 1002.25 173.872 966.522 145.612C928.272 115.362 879.962 109.712 836.442 91.5523C791.522 72.7723 751.542 40.5123 707.052 20.4023C671.029 4.15578 631.825 -3.81797 592.318 -2.93372C552.81 -2.04948 514.002 7.67032 478.742 25.5123C430.292 50.0123 381.202 107.172 327.242 111.512C288.802 114.512 211.822 76.0323 181.802 112.452Z" fill="#6C63FF"/>
<path d="M868.13 347.08C868.13 347.08 853.57 297.63 870.86 261.24C878.213 246.021 880.431 228.827 877.18 212.24C875.574 204.377 873.251 196.679 870.24 189.24" stroke="#535461" stroke-width="2" stroke-miterlimit="10"/>
<path d="M881.05 166.25C881.05 172.31 870.05 189.88 870.05 189.88C870.05 189.88 859.05 172.31 859.05 166.25C858.938 164.741 859.139 163.226 859.64 161.798C860.141 160.37 860.93 159.061 861.96 157.953C862.99 156.844 864.237 155.96 865.624 155.355C867.01 154.75 868.507 154.438 870.02 154.438C871.533 154.438 873.03 154.75 874.416 155.355C875.803 155.96 877.051 156.844 878.08 157.953C879.11 159.061 879.899 160.37 880.4 161.798C880.901 163.226 881.102 164.741 880.99 166.25H881.05Z" fill="#6C63FF"/>
<path d="M899.14 199.81C895.85 204.9 877.05 213.69 877.05 213.69C877.05 213.69 877.39 192.98 880.68 187.89C882.353 185.665 884.808 184.158 887.549 183.671C890.29 183.185 893.114 183.756 895.451 185.27C897.787 186.783 899.463 189.126 900.14 191.826C900.818 194.526 900.446 197.383 899.1 199.82L899.14 199.81Z" fill="#6C63FF"/>
<path d="M898.35 257.18C892.94 259.91 872.35 258.02 872.35 258.02C872.35 258.02 883.1 240.31 888.51 237.58C891.075 236.515 893.948 236.46 896.552 237.425C899.156 238.391 901.299 240.306 902.549 242.786C903.8 245.266 904.066 248.127 903.295 250.795C902.523 253.463 900.771 255.74 898.39 257.17L898.35 257.18Z" fill="#6C63FF"/>
<path d="M887.98 300.49C883.11 304.09 862.45 305.72 862.45 305.72C862.45 305.72 870.05 286.45 874.93 282.84C877.278 281.413 880.076 280.917 882.772 281.449C885.468 281.981 887.867 283.503 889.497 285.715C891.128 287.927 891.871 290.669 891.581 293.402C891.291 296.134 889.988 298.659 887.93 300.48L887.98 300.49Z" fill="#6C63FF"/>
<path d="M854.05 214.86C858.4 219.08 878.65 223.46 878.65 223.46C878.65 223.46 873.65 203.35 869.34 199.12C868.334 197.993 867.107 197.085 865.735 196.452C864.363 195.82 862.876 195.477 861.365 195.445C859.855 195.413 858.354 195.692 856.956 196.266C855.559 196.839 854.294 197.694 853.241 198.778C852.189 199.862 851.371 201.151 850.838 202.564C850.305 203.978 850.07 205.486 850.145 206.995C850.221 208.504 850.607 209.981 851.279 211.334C851.951 212.687 852.894 213.887 854.05 214.86V214.86Z" fill="#6C63FF"/>
<path d="M842.56 265.62C847.97 268.35 868.56 266.46 868.56 266.46C868.56 266.46 857.81 248.75 852.4 246.02C849.835 244.955 846.962 244.9 844.358 245.865C841.754 246.831 839.611 248.746 838.361 251.226C837.11 253.706 836.844 256.567 837.615 259.235C838.387 261.903 840.139 264.18 842.52 265.61L842.56 265.62Z" fill="#6C63FF"/>
<path d="M838.16 316.49C843.03 320.09 863.69 321.72 863.69 321.72C863.69 321.72 856.09 302.45 851.21 298.84C850.066 297.828 848.724 297.066 847.27 296.601C845.815 296.136 844.28 295.98 842.761 296.141C841.243 296.302 839.774 296.778 838.45 297.537C837.125 298.297 835.973 299.324 835.067 300.554C834.161 301.783 833.521 303.187 833.188 304.677C832.854 306.168 832.835 307.711 833.13 309.209C833.426 310.707 834.03 312.127 834.905 313.379C835.779 314.631 836.905 315.687 838.21 316.48L838.16 316.49Z" fill="#6C63FF"/>
<path opacity="0.1" d="M881.05 166.25C881.05 172.31 870.05 189.88 870.05 189.88C870.05 189.88 859.05 172.31 859.05 166.25C858.938 164.741 859.139 163.226 859.64 161.798C860.141 160.37 860.93 159.061 861.96 157.953C862.99 156.844 864.237 155.96 865.624 155.355C867.01 154.75 868.507 154.438 870.02 154.438C871.533 154.438 873.03 154.75 874.416 155.355C875.803 155.96 877.051 156.844 878.08 157.953C879.11 159.061 879.899 160.37 880.4 161.798C880.901 163.226 881.102 164.741 880.99 166.25H881.05Z" fill="#6C63FF"/>
<path opacity="0.1" d="M899.14 199.81C895.85 204.9 877.05 213.69 877.05 213.69C877.05 213.69 877.39 192.98 880.68 187.89C882.353 185.665 884.808 184.158 887.549 183.671C890.29 183.185 893.114 183.756 895.451 185.27C897.787 186.783 899.463 189.126 900.14 191.826C900.818 194.526 900.446 197.383 899.1 199.82L899.14 199.81Z" fill="#6C63FF"/>
<path opacity="0.1" d="M898.35 257.18C892.94 259.91 872.35 258.02 872.35 258.02C872.35 258.02 883.1 240.31 888.51 237.58C891.075 236.515 893.948 236.46 896.552 237.425C899.156 238.391 901.299 240.306 902.549 242.786C903.8 245.266 904.066 248.127 903.295 250.795C902.523 253.463 900.771 255.74 898.39 257.17L898.35 257.18Z" fill="#6C63FF"/>
<path opacity="0.1" d="M887.98 300.49C883.11 304.09 862.45 305.72 862.45 305.72C862.45 305.72 870.05 286.45 874.93 282.84C877.278 281.413 880.076 280.917 882.772 281.449C885.468 281.981 887.867 283.503 889.497 285.715C891.128 287.927 891.871 290.669 891.581 293.402C891.291 296.134 889.988 298.659 887.93 300.48L887.98 300.49Z" fill="#6C63FF"/>
<path opacity="0.1" d="M854.05 214.86C858.4 219.08 878.65 223.46 878.65 223.46C878.65 223.46 873.65 203.35 869.34 199.12C868.334 197.993 867.107 197.085 865.735 196.452C864.363 195.82 862.876 195.477 861.365 195.445C859.855 195.413 858.354 195.692 856.956 196.266C855.559 196.839 854.294 197.694 853.241 198.778C852.189 199.862 851.371 201.151 850.838 202.564C850.305 203.978 850.07 205.486 850.145 206.995C850.221 208.504 850.607 209.981 851.279 211.334C851.951 212.687 852.894 213.887 854.05 214.86V214.86Z" fill="#6C63FF"/>
<path opacity="0.1" d="M842.56 265.62C847.97 268.35 868.56 266.46 868.56 266.46C868.56 266.46 857.81 248.75 852.4 246.02C849.835 244.955 846.962 244.9 844.358 245.865C841.754 246.831 839.611 248.746 838.361 251.226C837.11 253.706 836.844 256.567 837.615 259.235C838.387 261.903 840.139 264.18 842.52 265.61L842.56 265.62Z" fill="#6C63FF"/>
<path opacity="0.1" d="M838.16 316.49C843.03 320.09 863.69 321.72 863.69 321.72C863.69 321.72 856.09 302.45 851.21 298.84C850.066 297.828 848.724 297.066 847.27 296.601C845.815 296.136 844.28 295.98 842.761 296.141C841.243 296.302 839.774 296.778 838.45 297.537C837.125 298.297 835.973 299.324 835.067 300.554C834.161 301.783 833.521 303.187 833.188 304.677C832.854 306.168 832.835 307.711 833.13 309.209C833.426 310.707 834.03 312.127 834.905 313.379C835.779 314.631 836.905 315.687 838.21 316.48L838.16 316.49Z" fill="#6C63FF"/>
<path d="M929.13 426.08C929.13 426.08 914.57 376.63 931.86 340.24C939.213 325.021 941.431 307.827 938.18 291.24C936.574 283.377 934.251 275.679 931.24 268.24" stroke="#535461" stroke-width="2" stroke-miterlimit="10"/>
<path d="M942.05 245.25C942.05 251.31 931.05 268.88 931.05 268.88C931.05 268.88 920.05 251.31 920.05 245.25C919.938 243.741 920.139 242.226 920.64 240.798C921.141 239.37 921.93 238.061 922.96 236.952C923.99 235.844 925.237 234.96 926.624 234.355C928.01 233.75 929.507 233.438 931.02 233.438C932.533 233.438 934.03 233.75 935.416 234.355C936.803 234.96 938.051 235.844 939.08 236.952C940.11 238.061 940.9 239.37 941.4 240.798C941.901 242.226 942.102 243.741 941.99 245.25H942.05Z" fill="#6C63FF"/>
<path d="M960.14 278.81C956.85 283.9 938.09 292.68 938.09 292.68C938.09 292.68 938.43 271.97 941.72 266.88C942.45 265.559 943.444 264.402 944.64 263.481C945.836 262.56 947.209 261.895 948.673 261.528C950.137 261.161 951.661 261.099 953.15 261.346C954.64 261.593 956.062 262.144 957.329 262.965C958.596 263.786 959.68 264.858 960.515 266.116C961.35 267.374 961.916 268.79 962.18 270.276C962.444 271.763 962.399 273.287 962.048 274.755C961.697 276.223 961.047 277.604 960.14 278.81V278.81Z" fill="#6C63FF"/>
<path d="M959.35 336.18C953.94 338.91 933.35 337.02 933.35 337.02C933.35 337.02 944.1 319.31 949.51 316.58C950.807 315.801 952.25 315.299 953.75 315.103C955.25 314.907 956.775 315.023 958.228 315.444C959.681 315.864 961.032 316.579 962.196 317.545C963.36 318.511 964.313 319.707 964.994 321.057C965.675 322.408 966.07 323.885 966.155 325.395C966.24 326.905 966.012 328.417 965.486 329.835C964.96 331.253 964.147 332.548 963.098 333.638C962.05 334.728 960.787 335.59 959.39 336.17L959.35 336.18Z" fill="#6C63FF"/>
<path d="M948.98 379.49C944.11 383.09 923.45 384.72 923.45 384.72C923.45 384.72 931.05 365.45 935.93 361.84C938.278 360.413 941.076 359.917 943.772 360.449C946.468 360.981 948.867 362.503 950.497 364.715C952.128 366.927 952.871 369.669 952.581 372.402C952.291 375.134 950.988 377.659 948.93 379.48L948.98 379.49Z" fill="#6C63FF"/>
<path d="M915.05 293.86C919.4 298.08 939.65 302.46 939.65 302.46C939.65 302.46 934.65 282.35 930.34 278.12C928.212 276.329 925.484 275.412 922.706 275.551C919.928 275.691 917.306 276.878 915.368 278.873C913.43 280.868 912.32 283.523 912.261 286.304C912.202 289.085 913.198 291.784 915.05 293.86V293.86Z" fill="#6C63FF"/>
<path d="M903.56 344.62C908.97 347.35 929.56 345.46 929.56 345.46C929.56 345.46 918.81 327.75 913.4 325.02C910.835 323.955 907.962 323.9 905.358 324.865C902.754 325.831 900.611 327.746 899.361 330.226C898.11 332.706 897.844 335.567 898.615 338.235C899.387 340.903 901.139 343.18 903.52 344.61L903.56 344.62Z" fill="#6C63FF"/>
<path d="M899.16 395.49C904.03 399.09 924.69 400.72 924.69 400.72C924.69 400.72 917.09 381.45 912.21 377.84C911.066 376.828 909.724 376.066 908.27 375.601C906.815 375.136 905.28 374.98 903.761 375.141C902.243 375.302 900.774 375.778 899.45 376.537C898.125 377.297 896.973 378.324 896.067 379.554C895.161 380.783 894.521 382.187 894.188 383.677C893.854 385.168 893.835 386.711 894.13 388.209C894.426 389.707 895.03 391.127 895.905 392.379C896.779 393.631 897.905 394.687 899.21 395.48L899.16 395.49Z" fill="#6C63FF"/>
<path opacity="0.1" d="M942.05 245.25C942.05 251.31 931.05 268.88 931.05 268.88C931.05 268.88 920.05 251.31 920.05 245.25C919.938 243.741 920.139 242.226 920.64 240.798C921.141 239.37 921.93 238.061 922.96 236.952C923.99 235.844 925.237 234.96 926.624 234.355C928.01 233.75 929.507 233.438 931.02 233.438C932.533 233.438 934.03 233.75 935.416 234.355C936.803 234.96 938.051 235.844 939.08 236.952C940.11 238.061 940.9 239.37 941.4 240.798C941.901 242.226 942.102 243.741 941.99 245.25H942.05Z" fill="#6C63FF"/>
<path opacity="0.1" d="M960.14 278.81C956.85 283.9 938.09 292.68 938.09 292.68C938.09 292.68 938.43 271.97 941.72 266.88C942.45 265.559 943.444 264.402 944.64 263.481C945.836 262.56 947.209 261.895 948.673 261.528C950.137 261.161 951.661 261.099 953.15 261.346C954.64 261.593 956.062 262.144 957.329 262.965C958.596 263.786 959.68 264.858 960.515 266.116C961.35 267.374 961.916 268.79 962.18 270.276C962.444 271.763 962.399 273.287 962.048 274.755C961.697 276.223 961.047 277.604 960.14 278.81V278.81Z" fill="#6C63FF"/>
<path opacity="0.1" d="M959.35 336.18C953.94 338.91 933.35 337.02 933.35 337.02C933.35 337.02 944.1 319.31 949.51 316.58C950.807 315.801 952.25 315.299 953.75 315.103C955.25 314.907 956.775 315.023 958.228 315.444C959.681 315.864 961.032 316.579 962.196 317.545C963.36 318.511 964.313 319.707 964.994 321.057C965.675 322.408 966.07 323.885 966.155 325.395C966.24 326.905 966.012 328.417 965.486 329.835C964.96 331.253 964.147 332.548 963.098 333.638C962.05 334.728 960.787 335.59 959.39 336.17L959.35 336.18Z" fill="#6C63FF"/>
<path opacity="0.1" d="M948.98 379.49C944.11 383.09 923.45 384.72 923.45 384.72C923.45 384.72 931.05 365.45 935.93 361.84C938.278 360.413 941.076 359.917 943.772 360.449C946.468 360.981 948.867 362.503 950.497 364.715C952.128 366.927 952.871 369.669 952.581 372.402C952.291 375.134 950.988 377.659 948.93 379.48L948.98 379.49Z" fill="#6C63FF"/>
<path opacity="0.1" d="M915.05 293.86C919.4 298.08 939.65 302.46 939.65 302.46C939.65 302.46 934.65 282.35 930.34 278.12C928.212 276.329 925.484 275.412 922.706 275.551C919.928 275.691 917.306 276.878 915.368 278.873C913.43 280.868 912.32 283.523 912.261 286.304C912.202 289.085 913.198 291.784 915.05 293.86V293.86Z" fill="#6C63FF"/>
<path opacity="0.1" d="M903.56 344.62C908.97 347.35 929.56 345.46 929.56 345.46C929.56 345.46 918.81 327.75 913.4 325.02C910.835 323.955 907.962 323.9 905.358 324.865C902.754 325.831 900.611 327.746 899.361 330.226C898.11 332.706 897.844 335.567 898.615 338.235C899.387 340.903 901.139 343.18 903.52 344.61L903.56 344.62Z" fill="#6C63FF"/>
<path opacity="0.1" d="M899.16 395.49C904.03 399.09 924.69 400.72 924.69 400.72C924.69 400.72 917.09 381.45 912.21 377.84C911.066 376.828 909.724 376.066 908.27 375.601C906.815 375.136 905.28 374.98 903.761 375.141C902.243 375.302 900.774 375.778 899.45 376.537C898.125 377.297 896.973 378.324 896.067 379.554C895.161 380.783 894.521 382.187 894.188 383.677C893.854 385.168 893.835 386.711 894.13 388.209C894.426 389.707 895.03 391.127 895.905 392.379C896.779 393.631 897.905 394.687 899.21 395.48L899.16 395.49Z" fill="#6C63FF"/>
<path opacity="0.1" d="M539.943 591.41C811.561 564.922 1028.29 508.005 1024.03 464.284C1019.77 420.563 796.12 406.593 524.503 433.082C252.885 459.57 36.1523 516.487 40.4161 560.208C44.6799 603.929 268.326 617.899 539.943 591.41Z" fill="#6C63FF"/>
<path d="M981.23 471.25C999.72 433.35 995.9 371.66 993.93 350.72C993.5 346.14 993.16 343.51 993.16 343.51C993.16 343.51 976.86 340.94 982.87 321.21C985.81 311.55 975.37 306.21 963.97 303.28C955.819 301.331 947.502 300.155 939.13 299.77L781.24 290.02C759.59 255.66 716.99 261.18 716.99 261.18C716.99 261.18 678.99 257.23 652.05 256.82C647.961 253.218 643.48 250.088 638.69 247.49C635.836 245.775 632.797 244.389 629.63 243.36C625.78 242.249 621.724 242.055 617.786 242.793C613.847 243.531 610.136 245.181 606.95 247.61C605.397 248.727 604.132 250.198 603.26 251.9C602.924 252.674 602.673 253.482 602.51 254.31C602.104 255.722 601.77 257.154 601.51 258.6C601.276 259.296 600.938 259.953 600.51 260.55C599.43 262.08 597.57 263.23 597.33 265.08C597.324 265.187 597.324 265.293 597.33 265.4C597.132 265.753 597 266.14 596.94 266.54C596.868 267.363 597.046 268.189 597.45 268.91C597.51 269.03 597.58 269.14 597.65 269.25C596.321 271.175 595.236 273.257 594.42 275.45C594.05 275.651 593.693 275.875 593.35 276.12L593.05 276.34V276.95L592.88 277.08L592.51 286.93L592.72 287.09C593.023 291.685 594.409 296.143 596.766 300.099C599.123 304.055 602.383 307.396 606.28 309.85C606.41 310.48 606.53 311.12 606.65 311.79C607.199 315.02 607.447 318.294 607.39 321.57H607.22C602.52 319.57 594.48 322.51 587.57 325.94H498.05C515.51 303.48 536.87 286.06 536.87 286.06V266.32C521.61 265.56 387.55 329.96 358.16 344.18L356.86 344.81L205.81 349.49C178.45 349.32 154.53 353.34 133.81 359.89C99.1857 370.766 68.0716 390.644 43.65 417.49C25.81 437.07 17.99 453.25 17.99 453.25L18.16 454.61L17.99 454.96L18.23 455.17L22.3 487.29L25.1 509.39C5.64003 521.97 30.85 527.01 30.85 527.01C54.85 547.59 93.46 546.74 93.46 546.74C102.89 559.61 130.34 557.89 130.34 557.89H274.43C276.674 544.661 279.679 531.573 283.43 518.69C289.58 562.98 324.53 596.91 366.71 596.91C369.839 596.908 372.964 596.718 376.07 596.34C379.176 596.718 382.301 596.908 385.43 596.91C428.1 596.91 463.36 562.18 468.91 517.15H475.96C474.644 527.211 472.357 537.12 469.13 546.74C598.64 509 839.65 490.99 839.65 490.99C840.65 481.49 841.75 472.31 842.94 463.5C852.87 488.15 875.38 505.36 901.58 505.36C903.96 505.357 906.338 505.21 908.7 504.92C911.062 505.21 913.44 505.357 915.82 505.36C946.93 505.36 972.82 481.09 978.66 448.91C979.433 454.589 979.874 460.309 979.98 466.04C978.87 471.5 977.9 474.99 977.77 475.48C978.55 474.053 979.29 472.593 979.99 471.1C979.99 471.68 979.99 472.28 979.99 472.88C979.75 473.88 979.58 474.44 979.53 474.63L979.97 473.81C979.97 474.25 979.97 474.68 979.97 475.12C979.87 475.16 980.4 473.72 981.23 471.25Z" fill="url(#paint0_linear)"/>
<path d="M966.12 335.07H669.22V454.84H966.12V335.07Z" fill="#6F7D95"/>
<path d="M593.73 278.98L635.9 373.45L719.41 368.39L722.78 329.59L725.31 284.04L607.23 275.6L593.73 278.98Z" fill="#4B5C7A"/>
<path d="M593.73 278.98C593.73 278.98 609.73 263.8 629.16 260.42C648.59 257.04 713.51 263.79 713.51 263.79L722.79 279.79L721.05 287.41L593.73 278.98Z" fill="#FF4D52"/>
<path d="M752.72 327.48H453.29V415.2H752.72V327.48Z" fill="#4B5C7A"/>
<path d="M679.05 387.16C686.96 360.71 671.19 343.33 671.19 343.33L645.05 325.09C645.028 325.152 645.001 325.212 644.97 325.27C641.57 321.286 639.137 316.57 637.86 311.49C637.78 311.17 637.71 310.84 637.63 310.49C640.02 308.715 642.112 306.571 643.83 304.14C648.09 301.53 649.99 297.33 650.71 293.14C653.45 289.073 655.633 284.657 657.2 280.01C657.459 279.258 657.679 278.494 657.86 277.72C658.364 276.279 658.588 274.755 658.52 273.23C658.307 271.532 657.742 269.897 656.86 268.43C652.46 260.43 644.54 254.86 636.51 250.32C633.703 248.634 630.714 247.272 627.6 246.26C623.815 245.169 619.826 244.978 615.954 245.704C612.082 246.43 608.433 248.052 605.3 250.44C603.772 251.539 602.528 252.985 601.67 254.66C601.339 255.421 601.091 256.216 600.93 257.03C600.542 258.42 600.225 259.828 599.98 261.25C599.762 261.929 599.445 262.573 599.04 263.16C597.97 264.66 596.15 265.79 595.91 267.62C595.904 267.727 595.904 267.833 595.91 267.94C595.717 268.287 595.588 268.667 595.53 269.06C595.456 269.869 595.63 270.682 596.03 271.39C596.09 271.51 596.16 271.62 596.23 271.73C594.921 273.624 593.853 275.673 593.05 277.83C592.683 278.028 592.329 278.249 591.99 278.49L591.7 278.7V279.3L591.53 279.43L591.16 289.12L591.36 289.28C591.655 293.8 593.017 298.185 595.334 302.077C597.651 305.969 600.857 309.256 604.69 311.67C604.82 312.29 604.94 312.92 605.05 313.58C605.654 317.069 605.895 320.611 605.77 324.15C605.731 323.845 605.731 323.535 605.77 323.23C598.54 319.96 582.77 329 576.42 333C575.457 333.456 574.56 334.038 573.75 334.73L573.64 334.81C569.27 338.35 560.64 348.19 553.79 373.48C544.29 408.77 545.28 416.77 538.36 424.95C531.44 433.13 524.57 490.76 524.57 490.76L538.5 494.51L540.28 488.79C556.84 503.89 603.21 511.16 603.21 511.16L604.63 506.75C611.74 509.31 623.63 505.42 623.63 505.42C641.01 499.28 647.52 483.7 660.13 463.15C672.74 442.6 679.05 387.16 679.05 387.16ZM608.95 493.49L641.05 393.92C643.96 409.38 631.12 433.73 629.98 449.65C629.27 459.89 617.35 480.24 608.95 493.49Z" fill="url(#paint1_linear)"/>
<path d="M649.11 282.39C649.11 282.39 654.7 303.68 638.11 307.39C621.52 311.1 632.45 297.82 632.45 297.82L648.45 282.23L649.11 282.39Z" fill="#472727"/>
<path d="M579.75 333.13C579.75 333.13 567.41 338.13 558.34 371.81C549.27 405.49 550.17 413.09 543.64 420.92C537.11 428.75 530.42 483.69 530.42 483.69L543.48 487.21L554.85 450.49L586.12 353.49L579.75 333.13Z" fill="#DDE0E4"/>
<path opacity="0.05" d="M579.75 333.13C579.75 333.13 567.41 338.13 558.34 371.81C549.27 405.49 550.17 413.09 543.64 420.92C537.11 428.75 530.42 483.69 530.42 483.69L543.48 487.21L554.85 450.49L586.12 353.49L579.75 333.13Z" fill="black"/>
<path d="M648.27 329.33C648.27 329.33 596.61 355.59 604.17 338.46C607.91 330 607.77 321.23 606.68 314.46C606.058 310.472 604.967 306.572 603.43 302.84C603.43 302.84 638.55 275.06 636.49 297.74C635.997 302.622 636.335 307.551 637.49 312.32C640.53 324.35 648.27 329.33 648.27 329.33Z" fill="#DB8B8B"/>
<path opacity="0.1" d="M637.49 312.36C634.168 315.028 630.261 316.872 626.09 317.741C621.919 318.61 617.601 318.479 613.49 317.36C611.086 316.713 608.781 315.741 606.64 314.47C606.018 310.482 604.927 306.582 603.39 302.85C603.39 302.85 638.51 275.07 636.45 297.75C635.966 302.644 636.318 307.584 637.49 312.36Z" fill="black"/>
<path d="M647.042 296.938C650.925 282.518 642.383 267.681 627.963 263.798C613.543 259.915 598.705 268.457 594.822 282.878C590.94 297.298 599.482 312.135 613.902 316.018C628.322 319.901 643.16 311.359 647.042 296.938Z" fill="#DB8B8B"/>
<path opacity="0.1" d="M607.35 276.72C606.608 277.173 605.782 277.472 604.922 277.598C604.062 277.724 603.185 277.675 602.345 277.453C601.504 277.232 600.717 276.843 600.031 276.31C599.344 275.776 598.772 275.11 598.35 274.35C597.979 273.672 597.819 272.899 597.89 272.13C598.12 270.39 599.84 269.31 600.89 267.87C602.52 265.54 602.21 262.35 603.39 259.76C604.202 258.178 605.374 256.808 606.81 255.76C609.733 253.475 613.154 251.915 616.795 251.206C620.436 250.496 624.194 250.659 627.76 251.68C630.678 252.632 633.476 253.917 636.1 255.51C643.62 259.8 651.03 265.05 655.1 272.68C655.925 274.08 656.449 275.636 656.64 277.25C656.685 278.993 656.379 280.728 655.74 282.35C654.236 286.832 652.141 291.092 649.51 295.02C648.63 293.927 647.525 293.037 646.27 292.41C645.636 292.111 644.925 292.018 644.235 292.145C643.546 292.273 642.915 292.614 642.43 293.12C641.56 294.23 641.03 296.35 639.71 295.85C638.85 295.53 638.86 294.34 638.9 293.42C639.08 289.42 636.9 285.65 633.97 282.95C631.04 280.25 627.41 278.47 623.83 276.72C621.26 275.46 617.83 272.57 615.01 272.06C611.51 271.41 609.86 275.17 607.35 276.72Z" fill="black"/>
<path d="M607.72 275.35C606.978 275.803 606.152 276.102 605.292 276.228C604.432 276.354 603.555 276.305 602.715 276.083C601.874 275.862 601.087 275.473 600.401 274.94C599.714 274.406 599.142 273.74 598.72 272.98C598.349 272.302 598.189 271.529 598.26 270.76C598.49 269.02 600.21 267.94 601.26 266.5C602.89 264.17 602.58 260.98 603.76 258.39C604.572 256.808 605.744 255.438 607.18 254.39C610.103 252.105 613.524 250.545 617.165 249.836C620.806 249.126 624.564 249.289 628.13 250.31C631.048 251.262 633.846 252.547 636.47 254.14C643.99 258.43 651.4 263.68 655.47 271.31C656.295 272.71 656.819 274.266 657.01 275.88C657.055 277.623 656.749 279.358 656.11 280.98C654.606 285.462 652.511 289.722 649.88 293.65C649 292.557 647.895 291.667 646.64 291.04C646.006 290.741 645.295 290.648 644.605 290.775C643.916 290.903 643.285 291.244 642.8 291.75C641.93 292.86 641.4 294.98 640.08 294.48C639.22 294.16 639.23 292.97 639.27 292.05C639.45 288.05 637.27 284.28 634.34 281.58C631.41 278.88 627.78 277.1 624.2 275.35C621.63 274.09 618.2 271.2 615.38 270.69C611.88 270.03 610.23 273.8 607.72 275.35Z" fill="#472727"/>
<path d="M621.88 332.91C621.88 332.91 643.27 328.72 644.2 325.29L668.66 342.56C668.66 342.56 683.38 359.05 675.85 384.29C675.85 384.29 669.72 437.18 657.8 456.81C645.88 476.44 639.03 501.87 622.7 507.81C622.7 507.81 607 497.69 601.82 497.81C601.82 497.81 628.41 459.28 629.55 444.11C630.69 428.94 642.84 405.68 640.18 390.96L604.18 502.86C604.18 502.86 546.18 493.86 540.3 474.61C540.3 474.61 545.3 467.1 544.37 459.49C543.44 451.88 566.25 394.63 566.25 394.63L577.17 334.93C577.17 334.93 598.77 319.84 607.37 323.76C607.33 323.7 605.77 331.15 621.88 332.91Z" fill="#DDE0E4"/>
<g opacity="0.1">
<path opacity="0.1" d="M629.67 286.49C624.39 279.29 614.32 285.2 612.67 286.23L610.08 285.97C607.82 283.51 600.89 276.97 594.38 281.78L594.1 281.99L593.71 291.22L593.99 291.44C595.87 292.892 598.003 293.983 600.28 294.66C601.722 295.084 603.243 295.159 604.72 294.88C605.813 294.628 606.837 294.139 607.719 293.448C608.602 292.757 609.323 291.88 609.83 290.88L611.18 290.97L612.18 290.78C612.38 291.843 612.805 292.852 613.426 293.738C614.046 294.625 614.849 295.368 615.78 295.92C620.25 298.45 626.78 295.92 627.05 295.87L627.39 295.74L629.79 286.81L629.67 286.49ZM626.28 294.61C624.95 295.06 619.93 296.54 616.56 294.61C615.721 294.084 615.014 293.372 614.494 292.53C613.974 291.687 613.654 290.736 613.56 289.75L613.44 289.02L611.25 289.47L609.05 289.39L608.84 289.81C608.439 290.718 607.834 291.523 607.073 292.161C606.312 292.799 605.415 293.253 604.45 293.49C600.68 294.3 596.32 291.38 595.18 290.55L595.51 282.75C601.17 278.94 607.41 285.12 609.21 287.14L609.4 287.35L613.05 287.71L613.27 287.56C613.37 287.5 622.44 281.41 627.61 286.31C627.866 286.548 628.104 286.805 628.32 287.08L626.28 294.61Z" fill="black"/>
<path opacity="0.1" d="M646.05 291.13L629.05 289.72L627.65 289.45L628.28 287.09C628.064 286.815 627.826 286.558 627.57 286.32L629.63 286.52L643.54 287.88L646.05 291.13Z" fill="black"/>
</g>
<path d="M629.85 285.85C624.57 278.65 614.5 284.56 612.85 285.59L610.26 285.33C608 282.87 601.07 276.33 594.56 281.14L594.28 281.35L593.89 290.58L594.17 290.8C596.05 292.252 598.183 293.343 600.46 294.02C601.902 294.444 603.423 294.519 604.9 294.24C605.993 293.988 607.017 293.499 607.899 292.808C608.782 292.117 609.503 291.24 610.01 290.24L611.36 290.33L612.36 290.14C612.56 291.203 612.985 292.212 613.606 293.098C614.226 293.985 615.029 294.728 615.96 295.28C620.43 297.81 626.96 295.28 627.23 295.23L627.57 295.1L629.97 286.17L629.85 285.85ZM626.46 293.97C625.13 294.42 620.11 295.9 616.74 293.97C615.901 293.444 615.194 292.732 614.674 291.89C614.154 291.047 613.834 290.096 613.74 289.11L613.62 288.38L611.43 288.83L609.26 288.69L609.05 289.11C608.656 290.024 608.056 290.834 607.299 291.479C606.541 292.124 605.645 292.586 604.68 292.83C600.91 293.64 596.55 290.72 595.41 289.89L595.74 282.09C601.4 278.28 607.64 284.46 609.44 286.48L609.63 286.69L613.28 287.05L613.5 286.9C613.6 286.84 622.67 280.75 627.84 285.65C628.096 285.888 628.334 286.145 628.55 286.42L626.46 293.97Z" fill="#472727"/>
<path d="M646.21 290.49L629.27 289.08L627.87 288.81L628.5 286.45C628.284 286.175 628.046 285.918 627.79 285.68L629.85 285.88L643.76 287.24L646.21 290.49Z" fill="#472727"/>
<path d="M530.04 395.8H233.14V515.57H530.04V395.8Z" fill="#6F7D95"/>
<path d="M369.02 594.01C414.777 594.01 451.87 553.416 451.87 503.34C451.87 453.264 414.777 412.67 369.02 412.67C323.263 412.67 286.17 453.264 286.17 503.34C286.17 553.416 323.263 594.01 369.02 594.01Z" fill="#4B5C7A"/>
<path opacity="0.05" d="M369.02 594.01C414.777 594.01 451.87 553.416 451.87 503.34C451.87 453.264 414.777 412.67 369.02 412.67C323.263 412.67 286.17 453.264 286.17 503.34C286.17 553.416 323.263 594.01 369.02 594.01Z" fill="black"/>
<path d="M387.43 594.01C433.187 594.01 470.28 553.416 470.28 503.34C470.28 453.264 433.187 412.67 387.43 412.67C341.673 412.67 304.58 453.264 304.58 503.34C304.58 553.416 341.673 594.01 387.43 594.01Z" fill="#4B5C7A"/>
<path opacity="0.05" d="M385.59 540.62C405.925 540.62 422.41 524.135 422.41 503.8C422.41 483.465 405.925 466.98 385.59 466.98C365.255 466.98 348.77 483.465 348.77 503.8C348.77 524.135 365.255 540.62 385.59 540.62Z" fill="black"/>
<path d="M385.59 514.85C391.693 514.85 396.64 509.903 396.64 503.8C396.64 497.697 391.693 492.75 385.59 492.75C379.487 492.75 374.54 497.697 374.54 503.8C374.54 509.903 379.487 514.85 385.59 514.85Z" stroke="#6F7D95" stroke-width="2" stroke-miterlimit="10"/>
<path d="M385.59 487.23C387.114 487.23 388.35 485.994 388.35 484.47C388.35 482.946 387.114 481.71 385.59 481.71C384.066 481.71 382.83 482.946 382.83 484.47C382.83 485.994 384.066 487.23 385.59 487.23Z" fill="#6F7D95"/>
<path d="M402.467 491.914C403.635 490.934 403.787 489.193 402.807 488.026C401.827 486.858 400.086 486.706 398.919 487.686C397.751 488.665 397.599 490.406 398.579 491.574C399.558 492.742 401.299 492.894 402.467 491.914Z" fill="#6F7D95"/>
<path d="M409.057 505.279C409.322 503.778 408.319 502.346 406.818 502.082C405.317 501.817 403.886 502.819 403.621 504.321C403.356 505.822 404.358 507.253 405.86 507.518C407.361 507.783 408.792 506.78 409.057 505.279Z" fill="#6F7D95"/>
<path d="M399.828 521.154C401.149 520.392 401.601 518.704 400.839 517.384C400.077 516.063 398.389 515.611 397.068 516.373C395.748 517.136 395.296 518.824 396.058 520.144C396.82 521.464 398.508 521.916 399.828 521.154Z" fill="#6F7D95"/>
<path d="M385.297 522.648C385.818 521.215 385.08 519.632 383.647 519.11C382.215 518.589 380.631 519.328 380.11 520.76C379.588 522.192 380.327 523.776 381.759 524.297C383.192 524.819 384.776 524.08 385.297 522.648Z" fill="#6F7D95"/>
<path d="M371.268 514.124C372.7 513.603 373.438 512.019 372.917 510.586C372.396 509.154 370.812 508.416 369.38 508.937C367.947 509.458 367.209 511.042 367.73 512.474C368.251 513.907 369.835 514.645 371.268 514.124Z" fill="#6F7D95"/>
<path d="M372.555 496.881C373.317 495.561 372.865 493.873 371.545 493.111C370.225 492.349 368.537 492.801 367.775 494.121C367.012 495.442 367.465 497.13 368.785 497.892C370.105 498.654 371.793 498.202 372.555 496.881Z" fill="#6F7D95"/>
<path d="M982.74 433.27C979.91 452.81 972.04 474.2 972.04 474.2C972.093 472.867 972.127 471.55 972.14 470.25C972.14 468.57 972.14 466.91 972.14 465.25C971.14 411.39 941.79 378.16 922.86 362.25C917.94 358.057 912.648 354.322 907.05 351.09H958.5C958.5 351.09 978.74 392.42 982.96 412.66C984.18 418.34 983.84 425.67 982.74 433.27Z" fill="#FF4D52"/>
<path opacity="0.05" d="M982.74 433.27C979.91 452.81 972.04 474.2 972.04 474.2C972.093 472.867 972.127 471.55 972.14 470.25C972.14 468.57 972.14 466.91 972.14 465.25C971.14 411.39 941.79 378.16 922.86 362.25C917.94 358.057 912.648 354.322 907.05 351.09H958.5C958.5 351.09 978.74 392.42 982.96 412.66C984.18 418.34 983.84 425.67 982.74 433.27Z" fill="black"/>
<path d="M895.02 503.98C929.819 503.98 958.03 473.106 958.03 435.02C958.03 396.934 929.819 366.06 895.02 366.06C860.221 366.06 832.01 396.934 832.01 435.02C832.01 473.106 860.221 503.98 895.02 503.98Z" fill="#4B5C7A"/>
<path opacity="0.05" d="M895.02 503.98C929.819 503.98 958.03 473.106 958.03 435.02C958.03 396.934 929.819 366.06 895.02 366.06C860.221 366.06 832.01 396.934 832.01 435.02C832.01 473.106 860.221 503.98 895.02 503.98Z" fill="black"/>
<path d="M909.02 503.98C943.819 503.98 972.03 473.106 972.03 435.02C972.03 396.934 943.819 366.06 909.02 366.06C874.221 366.06 846.01 396.934 846.01 435.02C846.01 473.106 874.221 503.98 909.02 503.98Z" fill="#4B5C7A"/>
<path opacity="0.05" d="M907.62 463.37C923.084 463.37 935.62 450.834 935.62 435.37C935.62 419.906 923.084 407.37 907.62 407.37C892.156 407.37 879.62 419.906 879.62 435.37C879.62 450.834 892.156 463.37 907.62 463.37Z" fill="black"/>
<path d="M907.62 443.77C912.259 443.77 916.02 440.009 916.02 435.37C916.02 430.731 912.259 426.97 907.62 426.97C902.981 426.97 899.22 430.731 899.22 435.37C899.22 440.009 902.981 443.77 907.62 443.77Z" stroke="#6F7D95" stroke-width="2" stroke-miterlimit="10"/>
<path d="M907.62 422.77C908.78 422.77 909.72 421.83 909.72 420.67C909.72 419.51 908.78 418.57 907.62 418.57C906.46 418.57 905.52 419.51 905.52 420.67C905.52 421.83 906.46 422.77 907.62 422.77Z" fill="#6F7D95"/>
<path d="M920.463 426.33C921.351 425.585 921.467 424.26 920.722 423.372C919.976 422.483 918.652 422.367 917.763 423.113C916.875 423.858 916.759 425.183 917.504 426.072C918.25 426.96 919.574 427.076 920.463 426.33Z" fill="#6F7D95"/>
<path d="M925.467 436.504C925.668 435.361 924.906 434.272 923.763 434.071C922.621 433.869 921.532 434.632 921.331 435.774C921.129 436.917 921.892 438.006 923.034 438.207C924.176 438.408 925.265 437.646 925.467 436.504Z" fill="#6F7D95"/>
<path d="M918.457 448.575C919.462 447.995 919.806 446.71 919.226 445.706C918.646 444.702 917.362 444.358 916.357 444.937C915.353 445.517 915.009 446.802 915.589 447.806C916.169 448.81 917.453 449.155 918.457 448.575Z" fill="#6F7D95"/>
<path d="M907.402 449.708C907.799 448.618 907.237 447.413 906.147 447.016C905.057 446.619 903.852 447.181 903.456 448.271C903.059 449.361 903.621 450.566 904.711 450.963C905.801 451.359 907.006 450.798 907.402 449.708Z" fill="#6F7D95"/>
<path d="M896.728 443.216C897.818 442.82 898.38 441.615 897.983 440.525C897.587 439.435 896.382 438.873 895.292 439.27C894.202 439.666 893.64 440.871 894.037 441.961C894.433 443.051 895.638 443.613 896.728 443.216Z" fill="#6F7D95"/>
<path d="M897.72 430.106C898.3 429.102 897.955 427.817 896.951 427.237C895.947 426.657 894.662 427.002 894.082 428.006C893.502 429.01 893.847 430.295 894.851 430.875C895.855 431.454 897.14 431.11 897.72 430.106Z" fill="#6F7D95"/>
<path d="M33.67 512.62L26.05 452.73H116.3L162.69 494.06L139.92 547.2C139.92 547.2 48.05 532.02 33.67 512.62Z" fill="#FF4D52"/>
<path opacity="0.05" d="M162.72 494.06L139.95 547.2C139.95 547.2 48.05 532.02 33.67 512.62L33.34 510.01L26.34 454.63L26.27 454.08L26.1 452.74H116.35L162.72 494.06Z" fill="black"/>
<path d="M536.38 268.86V288.26C536.38 288.26 489.74 326.26 478.64 362.11C476.702 367.931 475.971 374.087 476.49 380.2C480.71 419.84 355.05 348.14 355.05 348.14L360.64 345.42C389.53 331.49 521.37 268.1 536.38 268.86Z" fill="#7597CE"/>
<path d="M642.66 362.49C642.66 362.49 686.34 341.03 693.35 325.15C694.29 323.02 695.18 320.87 696.22 318.78C700.55 310.07 709.65 289.64 705.07 279.83C699.17 267.18 719.41 281.52 719.41 281.52L707.6 341.39L678.92 357.39L641.81 362.49" fill="#FF4D52"/>
<path opacity="0.05" d="M642.66 362.49C642.66 362.49 686.34 341.03 693.35 325.15C694.29 323.02 695.18 320.87 696.22 318.78C700.55 310.07 709.65 289.64 705.07 279.83C699.17 267.18 719.41 281.52 719.41 281.52L707.6 341.39L678.92 357.39L641.81 362.49" fill="black"/>
<path opacity="0.05" d="M162.72 494.06L139.95 547.2C139.95 547.2 48.05 532.02 33.67 512.62L33.34 510.01C33.71 509.76 34.1 509.5 34.51 509.25C34.51 509.25 62.34 531.18 125.61 536.25C125.61 536.25 163.61 505.88 101.99 472.15C101.99 472.15 48.39 473.83 26.31 454.64L26.07 454.44L26.24 454.09C26.3867 453.803 26.6233 453.357 26.95 452.75H116.32L162.72 494.06Z" fill="black"/>
<path opacity="0.05" d="M476.49 380.19C480.71 419.84 355.05 348.14 355.05 348.14L360.64 345.42C364.34 349.36 379.11 362.65 408.64 361.21C427.64 360.28 456.49 361.13 478.69 362.1C476.736 367.918 475.987 374.073 476.49 380.19V380.19Z" fill="black"/>
<path opacity="0.05" d="M530.05 395.8V515.57H474.89C478.53 487.71 476.43 447.1 441.05 423.82C427.854 415.195 412.532 410.382 396.775 409.912C381.017 409.443 365.436 413.335 351.75 421.16C328.56 434.4 302.63 461.32 286.15 515.57H233.15V395.8H530.05Z" fill="black"/>
<path opacity="0.05" d="M982.74 433.27C980.66 446.49 977.32 459.33 972.15 470.27C971.483 471.743 970.757 473.18 969.97 474.58C970.1 474.09 971.05 470.67 972.15 465.29C977.51 439.09 986.68 366.59 925.24 362.45C924.44 362.4 923.65 362.35 922.86 362.32C917.943 358.103 912.651 354.344 907.05 351.09H958.5C958.5 351.09 978.74 392.42 982.96 412.66C984.18 418.34 983.84 425.67 982.74 433.27Z" fill="black"/>
<path d="M971.64 473.76C972.44 470.87 1000.94 366.63 926.91 361.64C851.84 356.58 842.56 413.09 834.13 489.85C834.13 489.85 597.13 507.56 469.75 544.68C469.75 544.68 500.33 460.88 442.75 422.98C429.554 414.355 414.232 409.542 398.475 409.072C382.717 408.603 367.136 412.495 353.45 420.32C325.05 436.54 292.52 473.32 278.29 555.64H136.57C136.57 555.64 109.57 557.33 100.3 544.64C100.3 544.64 62.3 545.48 38.73 525.24C38.73 525.24 13.43 520.18 33.67 507.53C33.67 507.53 62.35 529.46 125.61 534.53C125.61 534.53 163.61 504.16 101.99 470.43C101.99 470.43 47.99 472.12 26.08 452.72C26.08 452.72 33.77 436.81 51.32 417.56C75.3241 391.155 105.91 371.599 139.95 360.89C162.887 353.799 186.794 350.351 210.8 350.67L359.67 346.03C359.67 346.03 374.05 364.59 408.59 362.9C443.13 361.21 510.65 365.43 510.65 365.43H511.32L650.24 359.14C654.229 358.577 658.175 357.742 662.05 356.64C682.19 351.17 720.39 334.58 713.5 288.25L931.96 301.75C940.194 302.128 948.373 303.284 956.39 305.2C967.61 308.08 977.87 313.34 974.98 322.84C969.08 342.24 985.1 344.77 985.1 344.77C985.1 344.77 985.44 347.36 985.86 351.86C987.86 373.08 991.79 436.88 971.64 473.76Z" fill="#FF4D52"/>
<path opacity="0.05" d="M303.58 381.04C303.58 381.04 212.48 381.88 152.58 435.04H186.32C186.32 435.04 280.79 410.58 303.56 391.18L303.58 381.04Z" fill="black"/>
<path d="M302.73 380.19C302.73 380.19 211.63 381.03 151.73 434.19H185.47C185.47 434.19 279.94 409.73 302.71 390.33L302.73 380.19Z" fill="#FFEC9F"/>
<path opacity="0.05" d="M140.79 361.74V384.41L64.05 419.84L52.17 418.41C76.1713 392.007 106.753 372.45 140.79 361.74V361.74Z" fill="black"/>
<path d="M139.94 360.9V383.57L63.19 418.99L51.31 417.56C75.3153 391.159 105.901 371.606 139.94 360.9V360.9Z" fill="#FFEC9F"/>
<path opacity="0.05" d="M248.75 463.7C248.75 463.7 207.42 489 203.2 544.7H226.82C226.82 544.7 236.1 483.97 263.09 463.7H248.75Z" fill="black"/>
<path opacity="0.05" d="M737.13 465.39L522.88 490.69C522.88 490.69 508.71 400.49 511.33 365.4L650.25 359.11C654.235 358.556 658.177 357.731 662.05 356.64V365.01L766.64 339.71C766.64 339.71 784.36 365.85 737.13 465.39Z" fill="black"/>
<path d="M713.51 263.79C713.51 263.79 759.06 257.89 779.3 296.69L714.16 294.18L713.51 263.79Z" fill="#FF4D52"/>
<path opacity="0.05" d="M776.14 310.29C774.35 315.9 775.7 322.07 786.07 326.34C794.7 329.9 804.82 325.78 807.77 316.93C809.49 311.77 808.31 305.93 799.01 301.18C789.71 296.43 779.27 300.49 776.14 310.29Z" fill="black"/>
<path d="M27.68 465.37C27.68 465.37 81.74 493.37 120.54 482.77" stroke="#FF4D52" stroke-miterlimit="10"/>
<path d="M29.59 480.49C29.59 480.49 64.52 507.43 135.12 501.17" stroke="#FF4D52" stroke-miterlimit="10"/>
<path d="M31.2 493.18C31.2 493.18 65.85 523.25 137.05 513.72" stroke="#FF4D52" stroke-miterlimit="10"/>
<path opacity="0.05" d="M776.69 292.16C776.69 292.16 748.51 316.49 722.79 327.49C722.79 327.49 761.85 334.44 776.69 292.16Z" fill="black"/>
<path opacity="0.1" d="M478.15 363.77C478.15 363.77 611.87 376.4 662.47 364.59C662.47 364.59 665.17 366.38 649.06 359.16L478.15 363.77Z" fill="black"/>
<path opacity="0.05" d="M985.87 351.86C977.54 346.39 964.33 335.04 966.13 322.41C967.03 316.08 962.55 310.16 956.4 305.19C967.62 308.07 977.88 313.33 974.99 322.83C969.09 342.23 985.11 344.76 985.11 344.76C985.11 344.76 985.44 347.36 985.87 351.86Z" fill="black"/>
<path d="M313.78 439.9C313.86 436.56 313.78 433.09 313.53 429.9C313.53 429.29 313.43 428.7 313.37 428.12C315.25 429.54 316.37 430.62 316.37 430.62L314.72 343.78L305.62 298.29C305.62 266.03 288.25 256.94 288.25 256.94C288.25 256.94 279.15 252.8 276.67 247.02C274.19 241.24 252.21 229.02 252.2 229.02C252.026 226.915 251.959 224.802 252 222.69C252 222.14 252 221.57 252.05 221C257.56 217.346 261.557 211.817 263.299 205.439C265.041 199.061 264.409 192.267 261.52 186.32C262.74 186.32 263.73 185.81 264.19 184C265.65 178.27 264.24 169.64 260.92 165.06C260.21 164.102 259.41 163.215 258.53 162.41C257.5 161.376 256.415 160.398 255.28 159.48C252.44 157.12 249.28 154.64 245.76 154.84C243.763 155.101 241.844 155.783 240.13 156.84C231.337 161.467 222.567 166.133 213.82 170.84C210.59 172.59 207.26 174.43 205 177.57C202.74 180.71 201.83 184.73 201.2 188.68C200.67 191.356 200.546 194.097 200.83 196.81C201.094 199.279 202.225 201.575 204.02 203.29C204.382 203.728 204.795 204.12 205.25 204.46C207.03 205.76 209.32 206.08 211.18 207.13C212.586 211.213 214.94 214.904 218.05 217.9C218.05 218.41 217.98 218.9 217.94 219.46C217.83 220.89 217.66 222.46 217.44 224.05C217.44 224.05 211.33 223.89 202.23 236.29C193.13 248.69 173.28 250.35 173.28 250.35C173.28 250.35 165.84 247.04 157.57 284.26C149.3 321.48 146.82 346.26 150.95 350.42C152.704 351.934 154.68 353.168 156.81 354.08C163.821 357.619 171.364 359.983 179.14 361.08C179.239 361.378 179.407 361.649 179.63 361.87L180.22 369.08C180.72 384.3 181.3 414.83 178.22 421.6C174.08 430.7 179.05 436.49 179.05 436.49L180.05 436.42C180.235 436.735 180.442 437.035 180.67 437.32L184.67 437.05C184.38 454.05 183.6 477.63 181.54 482.81C178.23 491.08 181.54 536.57 181.54 536.57L175.75 618.45C175.75 618.45 172.58 661.19 175.55 666.14C173.93 675.03 171.02 691.97 171.62 696.19C172.45 701.98 191.47 710.25 191.47 710.25C191.47 710.25 213.8 715.25 224.55 713.56C230.17 712.69 232.4 708.89 232.42 705.56C239.71 706.73 249.2 707.85 255.15 706.93C265.9 705.28 264.25 692.87 258.46 693.7C252.67 694.53 246.05 682.89 241.13 677.1C238.63 674.18 236.55 668.96 235.13 664.49C236.176 664.332 237.136 663.82 237.85 663.04C240.33 658.9 244.47 620.86 244.47 620.86L255.22 554.7C255.22 554.7 261.01 522.44 265.97 515C269.72 509.38 274.41 467.44 276.48 447.24H276.66H276.72L276.94 446.53L280.05 436.49C281.71 439.42 285.89 440.87 290.76 441.49C290.24 443.61 289.81 445.34 289.56 446.33C288.32 451.33 306.4 459.56 310.76 455.43C312.59 453.7 313.54 447.43 313.76 440.57H313.91L313.78 439.9ZM205.12 665.44C204.84 667.05 204.56 668.73 204.28 670.44C203.65 668.44 203.15 666.64 202.81 665.31C203.63 665.34 204.4 665.38 205.12 665.44Z" fill="url(#paint2_linear)"/>
<path d="M232.85 648.2C232.85 648.2 236.04 662.54 240.85 668.11C245.66 673.68 252 684.83 257.57 684.04C263.14 683.25 264.74 695.19 254.38 696.78C244.02 698.37 222.52 693.59 222.52 693.59C222.52 693.59 204.2 685.59 203.41 680.05C202.62 674.51 208.19 645.8 208.19 645.8L232.85 648.2Z" fill="#53526B"/>
<path opacity="0.05" d="M232.85 648.2C232.85 648.2 236.04 662.54 240.85 668.11C245.66 673.68 252 684.83 257.57 684.04C263.14 683.25 264.74 695.19 254.38 696.78C244.02 698.37 222.52 693.59 222.52 693.59C222.52 693.59 204.2 685.59 203.41 680.05C202.62 674.51 208.19 645.8 208.19 645.8L232.85 648.2Z" fill="black"/>
<path d="M203.38 654.57C203.38 654.57 206.57 668.91 211.38 674.48C216.19 680.05 222.53 691.2 228.1 690.41C233.67 689.62 235.27 701.56 224.91 703.15C214.55 704.74 193.05 699.97 193.05 699.97C193.05 699.97 174.73 691.97 173.94 686.43C173.15 680.89 178.72 652.18 178.72 652.18L203.38 654.57Z" fill="#53526B"/>
<path d="M275.86 436.35C275.86 436.35 269.49 504.84 264.71 512.01C259.93 519.18 254.36 550.24 254.36 550.24L244.01 613.95C244.01 613.95 240.01 650.59 237.64 654.57C235.27 658.55 205.71 656.84 205.71 656.84L224.05 445.91L275.86 436.35Z" fill="#5F5D7E"/>
<path opacity="0.05" d="M275.86 436.35C275.86 436.35 269.49 504.84 264.71 512.01C259.93 519.18 254.36 550.24 254.36 550.24L244.01 613.95C244.01 613.95 240.01 650.59 237.64 654.57C235.27 658.55 205.71 656.84 205.71 656.84L224.05 445.91L275.86 436.35Z" fill="black"/>
<path d="M288.6 403.7L286.52 410.31L275.27 446.02L275.05 446.7H274.99C273.48 447.04 241.6 454.37 234.72 456.62C234.349 456.735 233.985 456.872 233.63 457.03C230.44 458.62 226.46 515.96 226.46 515.96C226.46 515.96 224.07 570.12 222.46 574.1C220.85 578.08 214.46 660.1 210.51 657.72C206.56 655.34 177.86 657.72 177.86 657.72C174.67 654.53 177.86 611.53 177.86 611.53L183.43 532.68C183.43 532.68 180.24 488.88 183.43 480.91C186.62 472.94 186.62 419.59 186.62 419.59L251.85 409.49L258.15 408.49L288.6 403.7Z" fill="#5F5D7E"/>
<path opacity="0.02" d="M286.52 410.31L275.27 446.02L275 446.72C273.49 447.06 241.61 454.39 234.73 456.64H234.04L251.85 409.49L252.36 408.13L258.15 408.5L286.52 410.31Z" fill="black"/>
<path opacity="0.1" d="M212.14 244.42C212.14 244.42 241.61 276.28 259.93 249.99L277.45 261.94L274.26 280.26L284.61 418.84C284.61 418.84 257.53 418.04 238.42 424.41C233.098 426.298 227.347 426.626 221.844 425.356C216.341 424.086 211.316 421.27 207.36 417.24L210.55 295.39L203.38 257.96L212.14 244.42Z" fill="black"/>
<path d="M214.75 242C214.75 242 244.22 273.86 262.54 247.57L280.06 259.52L276.87 277.84L287.23 416.46C287.23 416.46 260.15 415.66 241.04 422.03C235.718 423.918 229.967 424.246 224.464 422.976C218.961 421.706 213.936 418.89 209.98 414.86L213.17 293.01L206 255.58L214.75 242Z" fill="#53526B"/>
<path d="M274.96 383.91V388.92H276.57V385.58H282.42V388.92H284.03V383.92L274.96 383.91Z" fill="#E82127"/>
<path d="M276.4 382.29H282.58C282.985 382.193 283.356 381.987 283.652 381.694C283.948 381.402 284.158 381.034 284.26 380.63H274.73C274.833 381.033 275.043 381.401 275.339 381.693C275.635 381.986 276.006 382.192 276.41 382.29" fill="#E82127"/>
<path d="M262.234 381.724L262.115 387.902C262.204 388.309 262.403 388.684 262.69 388.985C262.977 389.287 263.341 389.505 263.742 389.614L263.926 380.086C263.521 380.181 263.149 380.384 262.851 380.675C262.553 380.965 262.34 381.331 262.234 381.734" fill="white"/>
<path d="M242.234 381.724L242.115 387.902C242.204 388.309 242.403 388.684 242.69 388.985C242.977 389.287 243.341 389.505 243.742 389.614L243.926 380.086C243.521 380.181 243.149 380.384 242.851 380.675C242.553 380.965 242.34 381.331 242.234 381.734" fill="white"/>
<path d="M238.965 381.661L238.846 387.839C238.934 388.247 239.132 388.622 239.419 388.924C239.706 389.225 240.071 389.443 240.473 389.551L240.657 380.023C240.252 380.118 239.88 380.321 239.582 380.612C239.284 380.902 239.07 381.268 238.965 381.67" fill="white"/>
<path d="M235.596 381.596L235.476 387.774C235.565 388.181 235.764 388.556 236.051 388.857C236.338 389.159 236.702 389.377 237.104 389.486L237.287 379.958C236.882 380.053 236.511 380.256 236.213 380.547C235.914 380.837 235.701 381.203 235.595 381.605" fill="white"/>
<path d="M251.615 382.699L255 387.87C255.303 388.155 255.678 388.352 256.085 388.44C256.492 388.527 256.916 388.502 257.309 388.366L252.089 380.393C251.807 380.7 251.615 381.077 251.533 381.485C251.45 381.893 251.48 382.316 251.62 382.708" fill="white"/>
<path d="M255.721 383.608L249.578 384.283C249.185 384.423 248.839 384.668 248.576 384.991C248.314 385.314 248.145 385.704 248.089 386.117L257.562 385.075C257.416 384.686 257.166 384.343 256.84 384.085C256.514 383.827 256.124 383.662 255.711 383.609" fill="white"/>
<path d="M250.207 381.614L247.095 386.953C246.975 387.352 246.966 387.776 247.07 388.179C247.174 388.582 247.386 388.949 247.683 389.241L252.482 381.007C252.082 380.893 251.658 380.89 251.257 380.998C250.855 381.107 250.49 381.323 250.202 381.623" fill="white"/>
<path d="M220.52 380.64C220.626 381.039 220.836 381.403 221.13 381.693C221.423 381.983 221.79 382.189 222.19 382.29H224.79L224.92 382.34V388.9H226.54V382.34L226.69 382.29H229.29C229.689 382.186 230.054 381.979 230.347 381.69C230.64 381.4 230.852 381.038 230.96 380.64H220.52Z" fill="#E82127"/>
<path d="M248.39 364.847L256.671 318.258C264.563 318.258 267.054 319.126 267.422 322.658C267.422 322.658 272.721 320.688 275.386 316.675C268.791 313.714 261.705 312.001 254.486 311.621L248.359 319.064L242.233 311.621C235.014 312.001 227.928 313.714 221.333 316.675C223.997 320.688 229.297 322.658 229.297 322.658C229.654 319.126 232.145 318.258 239.987 318.247L248.339 364.847" fill="white"/>
<path d="M248.39 309.467C257.996 309.348 267.519 311.258 276.336 315.072C276.986 313.977 277.542 312.83 278 311.641C259.01 303.949 237.771 303.949 218.78 311.641C219.268 312.821 219.834 313.968 220.475 315.072C229.292 311.258 238.815 309.348 248.421 309.467" fill="white"/>
<path d="M273.47 406.88C273.47 406.88 273.47 427.59 278.25 436.35C283.03 445.11 310.9 440.35 310.9 440.35L305.33 410.88L273.47 406.88Z" fill="#D39999"/>
<path d="M307.87 454.67C303.67 458.67 286.26 450.67 287.46 445.91C288.3 442.54 291.24 430.48 292.91 423.64L294.07 418.83C294.07 418.83 304.27 415.64 307.87 418.83C309.18 419.99 310.1 424.56 310.53 430.08C311.27 439.67 310.54 452.14 307.87 454.67Z" fill="#FDC2CC"/>
<path d="M269.48 256.36L241.61 277.86C241.61 277.86 200.2 275.47 210.55 255.56C215.057 246.803 217.776 237.238 218.55 227.42C218.887 223.798 218.887 220.152 218.55 216.53C218.55 216.53 256.78 181.53 252 221.31C251.623 224.363 251.403 227.434 251.34 230.51C250.81 260.37 269.48 256.36 269.48 256.36Z" fill="#FDC2CC"/>
<path opacity="0.1" d="M251.96 221.32C251.583 224.373 251.363 227.444 251.3 230.52C247.01 233.361 241.976 234.871 236.83 234.86C229.7 234.86 224.45 227.92 219.71 223.31C220.24 216.7 218.52 216.54 218.52 216.54C218.52 216.54 256.74 181.49 251.96 221.32Z" fill="black"/>
<path d="M236.83 233.26C251.344 233.26 263.11 221.494 263.11 206.98C263.11 192.466 251.344 180.7 236.83 180.7C222.316 180.7 210.55 192.466 210.55 206.98C210.55 221.494 222.316 233.26 236.83 233.26Z" fill="#FDC2CC"/>
<path opacity="0.1" d="M218.12 232.07C218.12 232.07 213.74 232.47 204.98 244.41C196.22 256.35 177.05 257.95 177.05 257.95C177.05 257.95 169.88 254.76 161.92 290.6C153.96 326.44 151.57 350.33 155.55 354.31C159.53 358.29 175.46 363.87 183.42 363.87C183.42 363.87 185.81 414.04 181.83 422.8C177.85 431.56 182.63 437.14 182.63 437.14L217.63 434.75C217.63 434.75 229.58 419.62 231.97 393.34C234.36 367.06 242.32 292.19 238.34 283.43C234.36 274.67 216.84 252.37 217.63 249.98C218.42 247.59 218.12 232.07 218.12 232.07Z" fill="black"/>
<path d="M218.05 231.83C218.05 231.83 212.16 231.67 203.4 243.62C194.64 255.57 175.53 257.16 175.53 257.16C175.53 257.16 168.36 253.97 160.4 289.81C152.44 325.65 150.05 349.54 154.05 353.49C158.05 357.44 173.96 363.05 181.92 363.05C181.92 363.05 184.31 413.22 180.33 421.98C176.35 430.74 181.13 436.32 181.13 436.32L216.13 433.93C216.13 433.93 228.08 418.8 230.47 392.52C232.86 366.24 240.82 291.37 236.84 282.61C232.86 273.85 215.34 251.55 216.13 249.16C216.92 246.77 218.05 231.83 218.05 231.83Z" fill="#D39999"/>
<path d="M197.05 334.41C197.05 334.41 236.9 288.71 231.3 320.07C227.3 342.37 212.19 354.32 205.02 356.71C197.85 359.1 197.05 334.41 197.05 334.41Z" fill="#FDC2CC"/>
<path opacity="0.1" d="M310.53 430.08C306.72 427.17 299.53 422.64 292.91 423.64L294.07 418.83C294.07 418.83 304.27 415.64 307.87 418.83C309.19 419.99 310.1 424.56 310.53 430.08Z" fill="black"/>
<path opacity="0.1" d="M251.56 236.85C251.56 236.85 271.87 249.99 274.26 255.57C276.65 261.15 285.41 265.13 285.41 265.13C285.41 265.13 302.13 273.89 302.13 304.95L310.89 348.75L271.05 404.49C271.05 404.49 266.27 348.74 263.88 335.2C261.49 321.66 258.31 296.2 258.31 296.2C258.31 296.2 246.36 281.07 247.96 277.09C249.56 273.11 251.56 236.85 251.56 236.85Z" fill="black"/>
<path d="M251.49 236.61C251.49 236.61 272.67 248.4 275.05 253.97C277.43 259.54 286.21 263.49 286.21 263.49C286.21 263.49 302.93 272.25 302.93 303.31L311.69 347.11L313.28 430.73C313.28 430.73 298.94 417.19 288.59 423.56C278.24 429.93 271.87 402.85 271.87 402.85C271.87 402.85 267.09 347.1 264.7 333.56C262.31 320.02 259.13 294.56 259.13 294.56C259.13 294.56 247.18 279.49 248.78 275.49C250.38 271.49 251.49 236.61 251.49 236.61Z" fill="#D39999"/>
<path opacity="0.1" d="M259.9 175.02C258.552 173.305 256.993 171.766 255.26 170.44C252.52 168.16 249.49 165.78 246.09 165.98C244.167 166.236 242.319 166.897 240.67 167.92C232.203 172.38 223.76 176.887 215.34 181.44C212.23 183.12 209.02 184.9 206.85 187.92C204.68 190.94 203.8 194.82 203.19 198.62C202.68 201.194 202.558 203.83 202.83 206.44C203.078 208.999 204.32 211.358 206.29 213.01C208.56 214.66 211.67 214.67 213.57 216.83C214.67 218.08 215.15 219.83 215.93 221.35C216.71 222.87 218.06 224.35 219.6 224.08C221.14 223.81 222.07 222.18 222.29 220.53C222.388 218.858 222.291 217.18 222 215.53C221.7 212.53 222.08 209.35 223.82 207.12C225.02 205.6 226.74 204.68 227.9 203.12C230.68 199.36 229.41 193.12 232.46 189.59C233.346 188.667 234.46 187.996 235.69 187.645C236.92 187.293 238.221 187.274 239.46 187.59C241.93 188.11 244.19 189.45 246.46 190.59C249.527 192.137 252.739 193.376 256.05 194.29C258.83 195.05 262.05 196.87 263 193.17C264.45 187.74 263.05 179.43 259.9 175.02Z" fill="black"/>
<path d="M259.1 174.22C257.752 172.505 256.193 170.966 254.46 169.64C251.72 167.36 248.69 164.98 245.29 165.18C243.366 165.436 241.519 166.097 239.87 167.12C231.41 171.58 224.38 167.36 214.54 180.64C212.44 183.48 208.22 184.1 206.05 187.12C203.88 190.14 203 194.02 202.39 197.82C201.879 200.394 201.758 203.03 202.03 205.64C202.278 208.199 203.52 210.558 205.49 212.21C207.76 213.86 210.87 213.87 212.77 216.03C213.87 217.28 214.35 219.03 215.13 220.55C215.91 222.07 217.26 223.55 218.8 223.28C220.34 223.01 221.27 221.38 221.49 219.73C221.588 218.058 221.491 216.38 221.2 214.73C220.9 211.73 221.28 208.55 223.02 206.32C224.22 204.8 225.94 203.88 227.1 202.32C229.88 198.56 228.61 192.32 231.66 188.79C232.546 187.867 233.66 187.196 234.89 186.845C236.12 186.493 237.421 186.474 238.66 186.79C241.13 187.31 243.39 188.65 245.66 189.79C248.727 191.337 251.939 192.576 255.25 193.49C258.03 194.25 261.25 196.07 262.2 192.37C263.66 186.94 262.3 178.63 259.1 174.22Z" fill="#865A61"/>
<path d="M187.45 292.2C187.45 292.2 186.65 321.67 182.67 325.65C178.69 329.63 185.06 334.41 185.06 334.41L200.99 330.41C200.99 330.41 196.99 356.69 213.73 353.51C213.73 353.51 202.58 363.86 191.43 365.46C180.28 367.06 181.05 363.08 181.05 363.08L164.33 343.17L187.45 292.2Z" fill="#D39999"/>
<path opacity="0.1" d="M187.32 295.78C187.32 295.78 176.7 322.86 184.67 334.01L202.19 330.01C202.19 330.01 186.26 334.79 188.65 325.23C191.04 315.67 187.32 295.78 187.32 295.78Z" fill="black"/>
<path opacity="0.1" d="M181.48 362.68C181.48 362.68 204.58 364.27 210.95 359.49C202.567 365.911 192.66 370.046 182.2 371.49L181.48 362.68Z" fill="black"/>
<path opacity="0.1" d="M281.05 311.71C281.05 311.71 293 348.35 292.2 353.92C291.4 359.49 289.81 420.82 289.81 420.82L287.42 420.02L288.22 353.12L281.05 311.71Z" fill="black"/>
<path d="M784.17 415.32C784.17 415.32 801.67 449.67 787.41 468.46C773.15 487.25 788.71 538.46 788.71 538.46" stroke="#6C63FF" stroke-miterlimit="10"/>
<path d="M789.35 404.63C789.35 411.25 784.49 416.63 784.49 416.63C784.49 416.63 779.63 411.26 779.63 404.63C779.63 398 784.49 392.63 784.49 392.63C784.49 392.63 789.35 398.01 789.35 404.63Z" fill="#6C63FF"/>
<path d="M793.24 415.32C793.24 415.32 775.74 449.67 790 468.46C804.26 487.25 788.7 538.46 788.7 538.46" stroke="#6C63FF" stroke-miterlimit="10"/>
<path d="M788.05 404.63C788.05 411.25 792.91 416.63 792.91 416.63C792.91 416.63 797.77 411.26 797.77 404.63C797.77 398 792.91 392.63 792.91 392.63C792.91 392.63 788.05 398.01 788.05 404.63Z" fill="#6C63FF"/>
<path opacity="0.1" d="M788.05 404.63C788.05 411.25 792.91 416.63 792.91 416.63C792.91 416.63 797.77 411.26 797.77 404.63C797.77 398 792.91 392.63 792.91 392.63C792.91 392.63 788.05 398.01 788.05 404.63Z" fill="black"/>
<path d="M800.37 415.32C800.37 415.32 817.87 449.67 803.61 468.46C789.35 487.25 804.91 538.46 804.91 538.46" stroke="#6C63FF" stroke-miterlimit="10"/>
<path d="M805.55 404.63C805.55 411.25 800.69 416.63 800.69 416.63C800.69 416.63 795.83 411.26 795.83 404.63C795.83 398 800.69 392.63 800.69 392.63C800.69 392.63 805.55 398.01 805.55 404.63Z" fill="#6C63FF"/>
<path d="M802.83 432.15C798.24 436.92 791.01 437.42 791.01 437.42C791.01 437.42 791.23 430.18 795.82 425.42C800.41 420.66 807.64 420.15 807.64 420.15C807.64 420.15 807.42 427.38 802.83 432.15Z" fill="#6C63FF"/>
<path d="M803.28 455.85C798.69 460.62 791.46 461.12 791.46 461.12C791.46 461.12 791.68 453.88 796.27 449.12C800.86 444.36 808.05 443.84 808.05 443.84C808.05 443.84 807.87 451.07 803.28 455.85Z" fill="#6C63FF"/>
<path d="M778.39 468.88C782.73 473.88 782.58 481.12 782.58 481.12C782.58 481.12 775.39 480.25 771.05 475.25C766.71 470.25 766.86 463.01 766.86 463.01C766.86 463.01 774.05 463.88 778.39 468.88Z" fill="#6C63FF"/>
<path d="M782.42 418.35C787.94 422.01 789.73 429.03 789.73 429.03C789.73 429.03 782.56 430.11 777.05 426.49C771.54 422.87 769.74 415.81 769.74 415.81C769.74 415.81 776.9 414.69 782.42 418.35Z" fill="#6C63FF"/>
<path opacity="0.1" d="M782.42 418.35C787.94 422.01 789.73 429.03 789.73 429.03C789.73 429.03 782.56 430.11 777.05 426.49C771.54 422.87 769.74 415.81 769.74 415.81C769.74 415.81 776.9 414.69 782.42 418.35Z" fill="black"/>
<path d="M809.44 415.32C809.44 415.32 791.94 449.67 806.2 468.46C820.46 487.25 804.9 538.46 804.9 538.46" stroke="#6C63FF" stroke-miterlimit="10"/>
<path d="M804.26 404.63C804.26 411.25 809.12 416.63 809.12 416.63C809.12 416.63 813.98 411.26 813.98 404.63C813.98 398 809.12 392.63 809.12 392.63C809.12 392.63 804.26 398.01 804.26 404.63Z" fill="#6C63FF"/>
<path opacity="0.1" d="M804.26 404.63C804.26 411.25 809.12 416.63 809.12 416.63C809.12 416.63 813.98 411.26 813.98 404.63C813.98 398 809.12 392.63 809.12 392.63C809.12 392.63 804.26 398.01 804.26 404.63Z" fill="black"/>
<path d="M805.66 432.66C801.01 437.38 800.66 444.66 800.66 444.66C800.66 444.66 807.89 444.25 812.54 439.53C817.19 434.81 817.54 427.53 817.54 427.53C817.54 427.53 810.3 427.94 805.66 432.66Z" fill="#6C63FF"/>
<path opacity="0.1" d="M805.66 432.66C801.01 437.38 800.66 444.66 800.66 444.66C800.66 444.66 807.89 444.25 812.54 439.53C817.19 434.81 817.54 427.53 817.54 427.53C817.54 427.53 810.3 427.94 805.66 432.66Z" fill="black"/>
<path d="M814.77 465.49C810.12 470.21 809.77 477.49 809.77 477.49C809.77 477.49 817 477.08 821.65 472.36C826.3 467.64 826.65 460.36 826.65 460.36C826.65 460.36 819.42 460.75 814.77 465.49Z" fill="#6C63FF"/>
<path d="M801.36 458.26C801.36 458.26 811.89 441.66 826.68 441.26" stroke="#6C63FF" stroke-miterlimit="10"/>
<path d="M793.16 448.23C793.16 448.23 782.63 431.63 767.84 431.23" stroke="#6C63FF" stroke-miterlimit="10"/>
<path d="M791.79 471.93C791.79 471.93 802.32 455.33 817.11 454.93" stroke="#6C63FF" stroke-miterlimit="10"/>
<path d="M826.19 443.9C827.698 443.9 828.92 442.678 828.92 441.17C828.92 439.662 827.698 438.44 826.19 438.44C824.682 438.44 823.46 439.662 823.46 441.17C823.46 442.678 824.682 443.9 826.19 443.9Z" fill="#6C63FF"/>
<path d="M768.09 434.1C769.598 434.1 770.82 432.878 770.82 431.37C770.82 429.862 769.598 428.64 768.09 428.64C766.582 428.64 765.36 429.862 765.36 431.37C765.36 432.878 766.582 434.1 768.09 434.1Z" fill="#6C63FF"/>
<path d="M799.54 477.4C799.54 477.4 789.01 460.8 774.22 460.4" stroke="#6C63FF" stroke-miterlimit="10"/>
<path d="M774.47 463.27C775.978 463.27 777.2 462.048 777.2 460.54C777.2 459.032 775.978 457.81 774.47 457.81C772.962 457.81 771.74 459.032 771.74 460.54C771.74 462.048 772.962 463.27 774.47 463.27Z" fill="#6C63FF"/>
<path d="M817.31 457.8C818.818 457.8 820.04 456.578 820.04 455.07C820.04 453.562 818.818 452.34 817.31 452.34C815.802 452.34 814.58 453.562 814.58 455.07C814.58 456.578 815.802 457.8 817.31 457.8Z" fill="#6C63FF"/>
<path d="M857.76 518.49C857.76 518.49 832.38 513.41 825.61 506.64C818.84 499.87 788.38 488.06 785 496.49C781.62 504.92 739.31 533.75 768.05 538.82C796.79 543.89 835.74 545.59 844.2 542.2C852.66 538.81 857.76 518.49 857.76 518.49Z" fill="#A8A8A8"/>
<path opacity="0.2" d="M768.05 535.68C796.82 540.76 835.74 542.45 844.2 539.06C850.64 536.48 855.12 524.06 856.89 518.34L857.74 518.52C857.74 518.52 852.66 538.83 844.2 542.21C835.74 545.59 796.82 543.9 768.05 538.83C759.75 537.36 757.37 533.92 758.27 529.57C759 532.4 761.89 534.59 768.05 535.68Z" fill="black"/>
<path d="M113.32 603.15C113.32 603.15 121.7 614.15 109.45 630.65C97.2 647.15 87.1 661.16 91.19 671.49C91.19 671.49 109.67 640.76 124.71 640.33C139.75 639.9 129.86 621.63 113.32 603.15Z" fill="#6C63FF"/>
<path opacity="0.1" d="M113.32 603.15C114.05 604.21 114.626 605.368 115.03 606.59C129.71 623.83 137.52 639.92 123.42 640.33C110.28 640.71 94.52 664.2 90.74 670.14C90.8647 670.598 91.015 671.049 91.19 671.49C91.19 671.49 109.67 640.76 124.71 640.33C139.75 639.9 129.86 621.63 113.32 603.15Z" fill="black"/>
<path d="M128.9 617.11C128.9 620.97 128.47 624.11 127.9 624.11C127.33 624.11 126.9 620.98 126.9 617.11C126.9 613.24 127.44 615.11 127.97 615.11C128.5 615.11 128.9 613.26 128.9 617.11Z" fill="#FFD037"/>
<path d="M134.24 621.72C130.85 623.57 127.9 624.72 127.65 624.21C127.4 623.7 129.93 621.86 133.32 620.02C136.71 618.18 135.37 619.52 135.63 620.02C135.89 620.52 137.63 619.87 134.24 621.72Z" fill="#FFD037"/>
<path d="M69.05 603.15C69.05 603.15 60.67 614.15 72.92 630.65C85.17 647.15 95.27 661.16 91.18 671.48C91.18 671.48 72.7 640.75 57.66 640.32C42.62 639.89 52.51 621.63 69.05 603.15Z" fill="#6C63FF"/>
<path opacity="0.1" d="M69.05 603.15C68.3197 604.21 67.744 605.368 67.34 606.59C52.66 623.83 44.85 639.92 58.95 640.33C72.09 640.71 87.85 664.2 91.63 670.14C91.5053 670.598 91.355 671.049 91.18 671.49C91.18 671.49 72.7 640.76 57.66 640.33C42.62 639.9 52.51 621.63 69.05 603.15Z" fill="black"/>
<path d="M53.47 617.11C53.47 620.97 53.9 624.11 54.47 624.11C55.04 624.11 55.47 620.98 55.47 617.11C55.47 613.24 54.93 615.11 54.4 615.11C53.87 615.11 53.47 613.26 53.47 617.11Z" fill="#FFD037"/>
<path d="M48.13 621.72C51.52 623.57 54.47 624.72 54.72 624.21C54.97 623.7 52.44 621.86 49.05 620.02C45.66 618.18 47 619.52 46.74 620.02C46.48 620.52 44.74 619.87 48.13 621.72Z" fill="#FFD037"/>
<path d="M56.14 670.04C56.14 670.04 79.57 669.32 86.63 664.29C93.69 659.26 122.63 653.29 124.42 661.29C126.21 669.29 159.63 701.4 133.18 701.61C106.73 701.82 71.72 697.49 64.67 693.2C57.62 688.91 56.14 670.04 56.14 670.04Z" fill="#A8A8A8"/>
<path opacity="0.2" d="M133.66 698.84C107.21 699.05 72.2 694.72 65.15 690.43C59.78 687.16 57.64 675.43 56.93 670.02H56.15C56.15 670.02 57.63 688.92 64.68 693.21C71.73 697.5 106.74 701.84 133.19 701.62C140.83 701.56 143.46 698.84 143.32 694.82C142.25 697.28 139.34 698.79 133.66 698.84Z" fill="black"/>
<path d="M244.664 330.732C244.297 330.32 244.335 329.687 244.748 329.321L247.738 326.664C248.151 326.297 248.783 326.335 249.15 326.748L251.806 329.738C252.173 330.151 252.136 330.783 251.723 331.15L248.732 333.806C248.32 334.173 247.687 334.136 247.321 333.723L244.664 330.732Z" fill="#53526B"/>
</g>
<defs>
<linearGradient id="paint0_linear" x1="506.69" y1="596.95" x2="506.69" y2="242.37" gradientUnits="userSpaceOnUse">
<stop stop-color="#808080" stop-opacity="0.25"/>
<stop offset="0.54" stop-color="#808080" stop-opacity="0.12"/>
<stop offset="1" stop-color="#808080" stop-opacity="0.1"/>
</linearGradient>
<linearGradient id="paint1_linear" x1="69055" y1="174448" x2="87261.9" y2="106830" gradientUnits="userSpaceOnUse">
<stop stop-color="#808080" stop-opacity="0.25"/>
<stop offset="0.54" stop-color="#808080" stop-opacity="0.12"/>
<stop offset="1" stop-color="#808080" stop-opacity="0.1"/>
</linearGradient>
<linearGradient id="paint2_linear" x1="53819.7" y1="433632" x2="53819.7" y2="121101" gradientUnits="userSpaceOnUse">
<stop stop-color="#808080" stop-opacity="0.25"/>
<stop offset="0.54" stop-color="#808080" stop-opacity="0.12"/>
<stop offset="1" stop-color="#808080" stop-opacity="0.1"/>
</linearGradient>
<clipPath id="clip0">
<rect width="1024.09" height="784.98" fill="white"/>
</clipPath>
</defs>
</svg>
