<svg width="760" height="115" viewBox="0 0 760 115" fill="none" xmlns="http://www.w3.org/2000/svg">
<path d="M66.4688 90H55.1602L12.2109 24.2578V90H0.902344V4.6875H12.2109L55.2773 70.7227V4.6875H66.4688V90ZM81.8789 57.7148C81.8789 51.5039 83.0898 45.918 85.5117 40.957C87.9727 35.9961 91.3711 32.168 95.707 29.4727C100.082 26.7773 105.062 25.4297 110.648 25.4297C119.281 25.4297 126.254 28.418 131.566 34.3945C136.918 40.3711 139.594 48.3203 139.594 58.2422V59.0039C139.594 65.1758 138.402 70.7227 136.02 75.6445C133.676 80.5273 130.297 84.3359 125.883 87.0703C121.508 89.8047 116.469 91.1719 110.766 91.1719C102.172 91.1719 95.1992 88.1836 89.8477 82.207C84.5352 76.2305 81.8789 68.3203 81.8789 58.4766V57.7148ZM92.7773 59.0039C92.7773 66.0352 94.3984 71.6797 97.6406 75.9375C100.922 80.1953 105.297 82.3242 110.766 82.3242C116.273 82.3242 120.648 80.1758 123.891 75.8789C127.133 71.543 128.754 65.4883 128.754 57.7148C128.754 50.7617 127.094 45.1367 123.773 40.8398C120.492 36.5039 116.117 34.3359 110.648 34.3359C105.297 34.3359 100.98 36.4648 97.6992 40.7227C94.418 44.9805 92.7773 51.0742 92.7773 59.0039ZM231.703 52.3242H195.902V90H184.652V4.6875H237.504V13.9453H195.902V43.125H231.703V52.3242ZM261.059 90H250.219V26.6016H261.059V90ZM249.34 9.78516C249.34 8.02734 249.867 6.54297 250.922 5.33203C252.016 4.12109 253.617 3.51562 255.727 3.51562C257.836 3.51562 259.438 4.12109 260.531 5.33203C261.625 6.54297 262.172 8.02734 262.172 9.78516C262.172 11.543 261.625 13.0078 260.531 14.1797C259.438 15.3516 257.836 15.9375 255.727 15.9375C253.617 15.9375 252.016 15.3516 250.922 14.1797C249.867 13.0078 249.34 11.543 249.34 9.78516ZM290.238 90H279.398V0H290.238V90ZM333.949 91.1719C325.355 91.1719 318.363 88.3594 312.973 82.7344C307.582 77.0703 304.887 69.5117 304.887 60.0586V58.0664C304.887 51.7773 306.078 46.1719 308.461 41.25C310.883 36.2891 314.242 32.4219 318.539 29.6484C322.875 26.8359 327.562 25.4297 332.602 25.4297C340.844 25.4297 347.25 28.1445 351.82 33.5742C356.391 39.0039 358.676 46.7773 358.676 56.8945V61.4062H315.727C315.883 67.6562 317.699 72.7148 321.176 76.582C324.691 80.4102 329.145 82.3242 334.535 82.3242C338.363 82.3242 341.605 81.543 344.262 79.9805C346.918 78.418 349.242 76.3477 351.234 73.7695L357.855 78.9258C352.543 87.0898 344.574 91.1719 333.949 91.1719ZM332.602 34.3359C328.227 34.3359 324.555 35.9375 321.586 39.1406C318.617 42.3047 316.781 46.7578 316.078 52.5H347.836V51.6797C347.523 46.1719 346.039 41.9141 343.383 38.9062C340.727 35.8594 337.133 34.3359 332.602 34.3359ZM462.797 4.6875V62.6953C462.758 70.7422 460.219 77.3242 455.18 82.4414C450.18 87.5586 443.383 90.4297 434.789 91.0547L431.801 91.1719C422.465 91.1719 415.023 88.6523 409.477 83.6133C403.93 78.5742 401.117 71.6406 401.039 62.8125V4.6875H412.172V62.4609C412.172 68.6328 413.871 73.4375 417.27 76.875C420.668 80.2734 425.512 81.9727 431.801 81.9727C438.168 81.9727 443.031 80.2734 446.391 76.875C449.789 73.4766 451.488 68.6914 451.488 62.5195V4.6875H462.797ZM532.406 59.0039C532.406 68.6523 530.199 76.4258 525.785 82.3242C521.371 88.2227 515.395 91.1719 507.855 91.1719C500.16 91.1719 494.105 88.7305 489.691 83.8477V114.375H478.852V26.6016H488.754L489.281 33.6328C493.695 28.1641 499.828 25.4297 507.68 25.4297C515.297 25.4297 521.312 28.3008 525.727 34.043C530.18 39.7852 532.406 47.7734 532.406 58.0078V59.0039ZM521.566 57.7734C521.566 50.625 520.043 44.9805 516.996 40.8398C513.949 36.6992 509.77 34.6289 504.457 34.6289C497.895 34.6289 492.973 37.5391 489.691 43.3594V73.6523C492.934 79.4336 497.895 82.3242 504.574 82.3242C509.77 82.3242 513.891 80.2734 516.938 76.1719C520.023 72.0312 521.566 65.8984 521.566 57.7734ZM558.012 90H547.172V0H558.012V90ZM572.543 57.7148C572.543 51.5039 573.754 45.918 576.176 40.957C578.637 35.9961 582.035 32.168 586.371 29.4727C590.746 26.7773 595.727 25.4297 601.312 25.4297C609.945 25.4297 616.918 28.418 622.23 34.3945C627.582 40.3711 630.258 48.3203 630.258 58.2422V59.0039C630.258 65.1758 629.066 70.7227 626.684 75.6445C624.34 80.5273 620.961 84.3359 616.547 87.0703C612.172 89.8047 607.133 91.1719 601.43 91.1719C592.836 91.1719 585.863 88.1836 580.512 82.207C575.199 76.2305 572.543 68.3203 572.543 58.4766V57.7148ZM583.441 59.0039C583.441 66.0352 585.062 71.6797 588.305 75.9375C591.586 80.1953 595.961 82.3242 601.43 82.3242C606.938 82.3242 611.312 80.1758 614.555 75.8789C617.797 71.543 619.418 65.4883 619.418 57.7148C619.418 50.7617 617.758 45.1367 614.438 40.8398C611.156 36.5039 606.781 34.3359 601.312 34.3359C595.961 34.3359 591.645 36.4648 588.363 40.7227C585.082 44.9805 583.441 51.0742 583.441 59.0039ZM682.992 90C682.367 88.75 681.859 86.5234 681.469 83.3203C676.43 88.5547 670.414 91.1719 663.422 91.1719C657.172 91.1719 652.035 89.4141 648.012 85.8984C644.027 82.3438 642.035 77.8516 642.035 72.4219C642.035 65.8203 644.535 60.7031 649.535 57.0703C654.574 53.3984 661.645 51.5625 670.746 51.5625H681.293V46.582C681.293 42.793 680.16 39.7852 677.895 37.5586C675.629 35.293 672.289 34.1602 667.875 34.1602C664.008 34.1602 660.766 35.1367 658.148 37.0898C655.531 39.043 654.223 41.4062 654.223 44.1797H643.324C643.324 41.0156 644.438 37.9688 646.664 35.0391C648.93 32.0703 651.977 29.7266 655.805 28.0078C659.672 26.2891 663.91 25.4297 668.52 25.4297C675.824 25.4297 681.547 27.2656 685.688 30.9375C689.828 34.5703 691.977 39.5898 692.133 45.9961V75.1758C692.133 80.9961 692.875 85.625 694.359 89.0625V90H682.992ZM665.004 81.7383C668.402 81.7383 671.625 80.8594 674.672 79.1016C677.719 77.3438 679.926 75.0586 681.293 72.2461V59.2383H672.797C659.516 59.2383 652.875 63.125 652.875 70.8984C652.875 74.2969 654.008 76.9531 656.273 78.8672C658.539 80.7812 661.449 81.7383 665.004 81.7383ZM706.488 57.7734C706.488 48.0469 708.793 40.2344 713.402 34.3359C718.012 28.3984 724.047 25.4297 731.508 25.4297C738.93 25.4297 744.809 27.9687 749.145 33.0469V0H759.984V90H750.023L749.496 83.2031C745.16 88.5156 739.125 91.1719 731.391 91.1719C724.047 91.1719 718.051 88.1641 713.402 82.1484C708.793 76.1328 706.488 68.2812 706.488 58.5938V57.7734ZM717.328 59.0039C717.328 66.1914 718.812 71.8164 721.781 75.8789C724.75 79.9414 728.852 81.9727 734.086 81.9727C740.961 81.9727 745.98 78.8867 749.145 72.7148V43.5938C745.902 37.6172 740.922 34.6289 734.203 34.6289C728.891 34.6289 724.75 36.6797 721.781 40.7812C718.812 44.8828 717.328 50.957 717.328 59.0039Z" fill="#3F3D56"/>
</svg>
