<svg width="1076" height="723" viewBox="0 0 1076 723" fill="none" xmlns="http://www.w3.org/2000/svg">
<g clip-path="url(#clip0)">
<path d="M1076 721H618V723H1076V721Z" fill="#3F3D56"/>
<path d="M1041 692H583V694H1041V692Z" fill="#3F3D56"/>
<path d="M896 663H438V665H896V663Z" fill="#3F3D56"/>
<path d="M329 576C326.226 576 323.423 575.956 320.672 575.87L320.734 573.872C324.685 573.995 328.716 574.029 332.685 573.975L332.712 575.975C331.477 575.991 330.239 576 329 576ZM344.745 575.536L344.628 573.54C348.584 573.307 352.591 572.979 356.537 572.565L356.746 574.554C352.77 574.971 348.732 575.302 344.745 575.536H344.745ZM308.649 575.225C304.66 574.919 300.629 574.519 296.667 574.032L296.911 572.048C300.843 572.529 304.843 572.928 308.802 573.23L308.649 575.225ZM368.688 573.025L368.389 571.049C372.319 570.452 376.28 569.76 380.158 568.989L380.548 570.95C376.64 571.727 372.649 572.425 368.688 573.025V573.025ZM284.753 572.294C280.812 571.626 276.834 570.858 272.93 570.011L273.354 568.056C277.229 568.897 281.176 569.659 285.087 570.321L284.753 572.294ZM392.302 568.332L391.821 566.391C395.68 565.437 399.56 564.382 403.354 563.257L403.922 565.175C400.099 566.309 396.189 567.371 392.302 568.332V568.332ZM261.226 567.186C257.36 566.157 253.47 565.026 249.663 563.822L250.266 561.916C254.043 563.11 257.904 564.232 261.739 565.252L261.226 567.186ZM415.384 561.484L414.728 559.596C418.472 558.294 422.237 556.887 425.922 555.412L426.664 557.27C422.952 558.755 419.157 560.173 415.384 561.484V561.484ZM238.238 559.918C234.484 558.538 230.706 557.049 227.011 555.492L227.787 553.648C231.454 555.193 235.203 556.671 238.929 558.041L238.238 559.918ZM437.713 552.55L436.885 550.729C440.48 549.096 444.095 547.352 447.627 545.546L448.537 547.327C444.978 549.147 441.336 550.903 437.713 552.55V552.55ZM459.111 541.611L458.121 539.875C461.569 537.907 465.012 535.839 468.351 533.727L469.419 535.416C466.055 537.545 462.587 539.63 459.111 541.611V541.611ZM479.435 528.754L478.29 527.115C481.537 524.847 484.777 522.471 487.921 520.055L489.14 521.641C485.973 524.075 482.707 526.469 479.435 528.754V528.754ZM174.609 525.938C171.381 523.593 168.156 521.137 165.024 518.636L166.272 517.073C169.38 519.555 172.58 521.992 175.784 524.318L174.609 525.938ZM498.512 514.092L497.223 512.562C500.249 510.009 503.261 507.348 506.176 504.652L507.533 506.121C504.597 508.837 501.562 511.519 498.512 514.092V514.092ZM155.784 510.906C152.777 508.273 149.791 505.535 146.907 502.767L148.292 501.323C151.154 504.071 154.118 506.789 157.101 509.402L155.784 510.906ZM516.185 497.745L514.761 496.341C517.551 493.514 520.311 490.588 522.962 487.646L524.448 488.983C521.776 491.949 518.996 494.897 516.185 497.745V497.745ZM138.412 494.233C135.653 491.333 132.929 488.335 130.315 485.323L131.826 484.013C134.42 487.002 137.123 489.977 139.861 492.854L138.412 494.233ZM532.305 479.854L530.76 478.584C533.28 475.517 535.762 472.352 538.138 469.175L539.739 470.372C537.346 473.573 534.845 476.764 532.305 479.854ZM122.634 476.057C120.157 472.927 117.718 469.695 115.384 466.452L117.007 465.284C119.323 468.502 121.744 471.709 124.202 474.816L122.634 476.057ZM546.733 460.56L545.079 459.437C547.31 456.152 549.494 452.772 551.571 449.389L553.276 450.436C551.182 453.845 548.98 457.251 546.733 460.56ZM108.583 456.53C106.403 453.189 104.271 449.752 102.243 446.31L103.965 445.295C105.978 448.71 108.095 452.122 110.257 455.436L108.583 456.53ZM559.349 440.02L557.599 439.053C559.519 435.578 561.384 432.01 563.145 428.446L564.938 429.333C563.164 432.923 561.283 436.519 559.349 440.02ZM570.029 418.398L568.197 417.596C569.791 413.956 571.321 410.229 572.746 406.518L574.613 407.234C573.178 410.975 571.635 414.73 570.029 418.398ZM86.1269 414.083C84.5937 410.403 83.1255 406.639 81.7632 402.893L83.6431 402.209C84.9946 405.927 86.4517 409.662 87.9727 413.313L86.1269 414.083ZM578.678 395.867L576.779 395.238C578.027 391.478 579.205 387.634 580.279 383.812L582.205 384.354C581.122 388.204 579.935 392.078 578.678 395.867V395.867ZM77.9106 391.484C76.7207 387.673 75.6025 383.779 74.5874 379.91L76.522 379.402C77.5293 383.242 78.6391 387.106 79.8198 390.889L77.9106 391.484ZM585.196 372.689L583.248 372.236C584.144 368.382 584.962 364.445 585.682 360.538L587.648 360.899C586.924 364.838 586.099 368.804 585.196 372.689V372.689ZM71.8023 368.195C70.9683 364.289 70.2134 360.31 69.5591 356.365L71.5318 356.037C72.1817 359.952 72.9307 363.901 73.7583 367.777L71.8023 368.195ZM589.555 349.012L587.572 348.74C588.11 344.823 588.564 340.829 588.923 336.868L590.915 337.048C590.554 341.04 590.096 345.064 589.555 349.012H589.555ZM67.8609 344.445C67.3892 340.486 67.002 336.454 66.7095 332.461L68.7046 332.314C68.9942 336.278 69.3789 340.279 69.8472 344.209L67.8609 344.445ZM591.729 325.036L589.731 324.946C589.909 320.983 590 316.964 590 313H592C592 316.994 591.909 321.044 591.729 325.036V325.036ZM66.1035 320.435C66.0352 317.982 66.0005 315.48 66 313C66 311.461 66.0132 309.925 66.0396 308.392L68.0396 308.427C68.0132 309.948 68 311.473 68 313C68.0005 315.462 68.0352 317.945 68.1025 320.38L66.1035 320.435ZM68.5142 296.487L66.5181 296.362C66.7676 292.366 67.1123 288.33 67.5415 284.365L69.5298 284.581C69.1035 288.515 68.7622 292.521 68.5141 296.487H68.5142ZM588.709 284.285C588.309 280.342 587.76 278.42 587.18 274.494L589.158 274.202C589.742 278.158 590.243 281.177 590.646 285.15L588.709 284.285ZM71.0869 272.734L69.1104 272.428C69.7231 268.472 70.4351 264.484 71.2266 260.574L73.1866 260.971C72.4014 264.851 71.6948 268.808 71.0869 272.734H71.0869ZM585.161 262.718C584.398 258.817 583.538 254.89 582.602 251.046L584.546 250.573C585.488 254.446 586.355 258.404 587.124 262.334L585.161 262.718ZM75.8242 249.317L73.8843 248.831C74.8555 244.957 75.9311 241.051 77.0815 237.221L78.9965 237.796C77.8555 241.597 76.7881 245.473 75.8242 249.317ZM579.509 239.503C578.394 235.695 577.175 231.865 575.887 228.117L577.777 227.466C579.076 231.243 580.305 235.104 581.429 238.941L579.509 239.503ZM82.709 226.403L80.8223 225.74C82.1514 221.959 83.5864 218.161 85.0874 214.449L86.9419 215.199C85.4521 218.882 84.0278 222.652 82.709 226.403V226.403ZM571.742 216.909C570.283 213.228 568.721 209.534 567.098 205.929L568.922 205.108C570.558 208.741 572.132 212.463 573.602 216.171L571.742 216.909ZM91.6855 204.206L89.8681 203.371C91.5386 199.733 93.3164 196.085 95.1523 192.529L96.9297 193.446C95.1074 196.976 93.3433 200.596 91.6855 204.206ZM561.954 195.17C560.164 191.64 558.268 188.102 556.317 184.656L558.058 183.67C560.023 187.143 561.934 190.708 563.737 194.266L561.954 195.17ZM102.663 182.941L100.929 181.943C102.924 178.479 105.028 175.011 107.183 171.637L108.869 172.713C106.73 176.062 104.642 179.503 102.663 182.941ZM550.204 174.406C548.091 171.041 545.878 167.69 543.627 164.444L545.27 163.304C547.538 166.575 549.769 169.952 551.897 173.342L550.204 174.406ZM115.536 162.782L113.901 161.63C116.207 158.36 118.617 155.101 121.067 151.942L122.647 153.168C120.216 156.303 117.823 159.537 115.536 162.782ZM536.6 154.79C534.189 151.633 531.68 148.495 529.138 145.463L530.671 144.178C533.231 147.234 535.761 150.396 538.189 153.576L536.6 154.79ZM130.189 143.891L128.666 142.594C131.254 139.555 133.951 136.53 136.682 133.604L138.144 134.968C135.434 137.873 132.757 140.875 130.189 143.891ZM521.259 136.483C518.572 133.559 515.785 130.66 512.977 127.869L514.387 126.45C517.217 129.263 520.024 132.183 522.731 135.129L521.259 136.483ZM146.494 126.419L145.095 124.989C147.955 122.191 150.915 119.425 153.891 116.768L155.223 118.26C152.269 120.897 149.332 123.642 146.494 126.419V126.419ZM504.312 119.639C501.367 116.969 498.327 114.335 495.276 111.811L496.552 110.27C499.625 112.813 502.688 115.467 505.655 118.158L504.312 119.639ZM164.312 110.507L163.049 108.956C166.143 106.437 169.339 103.953 172.551 101.572L173.743 103.179C170.555 105.542 167.382 108.007 164.312 110.507V110.507ZM183.494 96.29L182.378 94.6309C185.688 92.4033 189.097 90.2222 192.508 88.1465L193.547 89.8555C190.162 91.915 186.78 94.0801 183.494 96.29ZM203.882 83.8887L202.922 82.1338C206.424 80.2173 210.016 78.3579 213.596 76.6064L214.475 78.4033C210.922 80.1411 207.358 81.9863 203.882 83.8887H203.882ZM445.252 79.2549C441.693 77.4819 438.048 75.769 434.417 74.1641L435.225 72.335C438.885 73.9522 442.558 75.6782 446.144 77.4648L445.252 79.2549ZM225.304 73.4106L224.509 71.5757C228.169 69.9892 231.913 68.4677 235.637 67.0532L236.347 68.9233C232.651 70.3267 228.936 71.8364 225.304 73.4106H225.304ZM423.355 69.5762C419.652 68.1402 415.862 66.77 412.09 65.5044L412.727 63.6079C416.527 64.8838 420.347 66.2642 424.078 67.7119L423.355 69.5762ZM247.612 64.9395L246.989 63.0391C250.79 61.793 254.668 60.6196 258.515 59.5527L259.049 61.4795C255.232 62.5385 251.384 63.7026 247.612 64.9395ZM400.676 61.9658C396.861 60.8784 392.971 59.8657 389.112 58.9561L389.571 57.0098C393.46 57.9263 397.38 58.9468 401.225 60.042L400.676 61.9658ZM270.634 58.5503L270.189 56.6006C274.085 55.7104 278.055 54.8994 281.986 54.1904L282.341 56.1582C278.439 56.8623 274.501 57.667 270.634 58.5503V58.5503ZM377.422 56.4834C373.527 55.7524 369.561 55.1021 365.631 54.5503L365.908 52.5698C369.868 53.126 373.866 53.7812 377.791 54.5176L377.422 56.4834ZM294.146 54.3071L293.882 52.3247C297.841 51.7964 301.867 51.3521 305.849 51.0054L306.022 52.9976C302.071 53.3423 298.076 53.7827 294.146 54.3071V54.3071ZM353.763 53.1597C349.823 52.7886 345.813 52.5024 341.844 52.3105L341.941 50.3125C345.94 50.5063 349.98 50.7944 353.95 51.1685L353.763 53.1597ZM317.948 52.2305L317.864 50.2324C321.54 50.0791 325.286 50.001 329 50L329.905 50.0015L329.899 52.0015L329 52C325.314 52.001 321.596 52.0786 317.948 52.2305V52.2305Z" fill="#3F3D56"/>
<path d="M778.387 233L773.465 267C773.465 267 751.806 311 765.589 356L783.31 345C783.31 345 797.093 291 797.093 287C797.093 283 803 236 803 236L778.387 233Z" fill="#FFB9B9"/>
<path d="M788 342L764 358L776 417C776 417 779 497 778 500C777 503 759 625 759 625C759 625 780 635 799 629C799 629 818 539 818 513L840 422L874 526C874 526 876 596 880 619C884 642 884 645 884 645C884 645 916 654 924 645C924 645 920 527 917 515L910 372L788 342Z" fill="#2F2E41"/>
<path d="M767.737 625.554C767.737 625.554 765.729 622.54 759.706 630.576C753.683 638.613 734.61 653.681 734.61 653.681C734.61 653.681 682.41 690.85 721.56 692.859C760.71 694.868 767.737 674.777 767.737 674.777C767.737 674.777 800.863 668.749 801.867 661.718C802.871 654.686 797.852 626.558 797.852 626.558L767.737 625.554Z" fill="#2F2E41"/>
<path d="M886.391 643C886.391 643 879.35 667.254 881.361 677.36C883.373 687.466 877.338 724.857 905.502 721.826C933.667 718.794 924.614 686.455 924.614 686.455L915.561 645.021L886.391 643Z" fill="#2F2E41"/>
<path d="M847 120C865.225 120 880 105.225 880 87C880 68.7746 865.225 54 847 54C828.775 54 814 68.7746 814 87C814 105.225 828.775 120 847 120Z" fill="#FFB9B9"/>
<path d="M827 104.012C827 104.012 837 139.095 829 152.125C821 165.156 883 154.13 887 142.102C887 142.102 867 120.05 870 99L827 104.012Z" fill="#FFB9B9"/>
<path d="M843.093 151.108C843.093 151.108 870.439 152.964 883.738 138L933 159.129L912.022 275.429C912.022 275.429 953.978 373.682 916.018 382.705C878.057 391.728 768.17 382.705 773.165 349.62C778.16 316.534 798.139 276.431 798.139 276.431C798.139 276.431 803.134 232.318 792.145 212.266C781.157 192.214 788.149 169.155 788.149 169.155L832.122 139.915C832.122 139.915 834.102 151.108 843.093 151.108Z" fill="#575A89"/>
<path d="M799.985 170H787.991C787.991 170 773.998 173.02 776.997 211.272L770 238.451C770 238.451 804.983 247.511 809.98 242.478C814.978 237.445 799.985 170 799.985 170Z" fill="#575A89"/>
<path d="M945 230L941.009 265C941.009 265 945.998 311 929.035 347L923.048 365C923.048 365 917.061 417 901.096 417C885.13 417 901.096 358 901.096 358L909.078 299C909.078 299 915.065 276 911.074 266C907.083 256 906.085 235 906.085 235L945 230Z" fill="#FFB9B9"/>
<path d="M838.853 65.2685C843.751 64.5025 848.688 64.013 853.64 63.8025C857.229 63.65 860.967 63.6743 864.21 65.2186C869.099 67.547 871.838 72.8105 873.632 77.9203C875.425 83.03 876.697 88.4907 880.024 92.7635C885.56 86.9853 886.666 78.3948 887.49 70.4354C888.07 64.837 888.584 58.8675 885.995 53.8698C884.401 50.7916 881.77 48.3928 879.106 46.1751C866.386 35.5885 850.231 27.2583 833.854 29.6361L833.471 32.1645C830.676 32.0805 827.88 32.2563 825.117 32.6895L825.702 38.9625L817.003 39.5143L816.67 46.052L807.872 46.357C808.041 48.8693 809.134 51.2301 810.941 52.9843C809.588 53.9621 808.051 54.6563 806.422 55.0253C807.889 60.7043 809.313 66.3963 810.829 72.0625C811.945 76.2365 811.746 79.9244 816.223 77.8874C819.632 76.3364 821.938 71.4043 825.384 69.3665C829.445 66.9659 834.25 65.9887 838.853 65.2685Z" fill="#2F2E41"/>
<path d="M919.186 160H933.331C933.331 160 956.569 237 952.528 238C948.487 239 901 242 901 242L919.186 160Z" fill="#575A89"/>
<path d="M324 389C368.735 389 405 352.735 405 308C405 263.265 368.735 227 324 227C279.265 227 243 263.265 243 308C243 352.735 279.265 389 324 389Z" fill="#8F87FB"/>
<path d="M375 300H332V257H316V300H273V316H316V359H332V316H375V300Z" fill="white"/>
<path d="M182 445H72V573H182V445Z" fill="#F2F2F2"/>
<path d="M225 574H71V420H225V574ZM73.1389 571.861H222.861V422.139H73.1389V571.861Z" fill="#3F3D56"/>
<path d="M197 465H103V467H197V465Z" fill="#3F3D56"/>
<path d="M197 489H103V491H197V489Z" fill="#3F3D56"/>
<path d="M197 512H103V514H197V512Z" fill="#3F3D56"/>
<path d="M447 23H225V133H447V23Z" fill="#F2F2F2"/>
<path d="M492 134H224V0H492V134ZM226 132H490V2H226V132Z" fill="#3F3D56"/>
<path d="M407.761 55.917H263.822V57.917H407.761V55.917Z" fill="#3F3D56"/>
<path d="M407.761 76.917H263.822V78.917H407.761V76.917Z" fill="#3F3D56"/>
<path d="M407.761 97.917H263.822V99.917H407.761V97.917Z" fill="#3F3D56"/>
<path d="M625 301H530V402H625V301Z" fill="#F2F2F2"/>
<path d="M649 403H529V283H649V403ZM531 401H647V285H531V401Z" fill="#3F3D56"/>
<path d="M610 337H544V339H610V337Z" fill="#3F3D56"/>
<path d="M610 350H544V352H610V350Z" fill="#3F3D56"/>
<path d="M610 363H544V365H610V363Z" fill="#3F3D56"/>
<path d="M587 132H129V134H587V132Z" fill="#3F3D56"/>
<path d="M714 401H463V403H714V401Z" fill="#3F3D56"/>
<path d="M295 573H0V575H295V573Z" fill="#3F3D56"/>
<path d="M72.8906 713H63.4668L27.6758 658.215V713H18.252V641.906H27.6758L63.5645 696.936V641.906H72.8906V713ZM85.7324 686.096C85.7324 680.92 86.7415 676.265 88.7598 672.131C90.8105 667.997 93.6426 664.807 97.2559 662.561C100.902 660.314 105.052 659.191 109.707 659.191C116.901 659.191 122.712 661.682 127.139 666.662C131.598 671.643 133.828 678.267 133.828 686.535V687.17C133.828 692.313 132.835 696.936 130.85 701.037C128.896 705.106 126.081 708.28 122.402 710.559C118.757 712.837 114.557 713.977 109.805 713.977C102.643 713.977 96.8327 711.486 92.373 706.506C87.946 701.525 85.7324 694.934 85.7324 686.73V686.096ZM94.8145 687.17C94.8145 693.029 96.1654 697.733 98.8672 701.281C101.602 704.829 105.247 706.604 109.805 706.604C114.395 706.604 118.04 704.813 120.742 701.232C123.444 697.619 124.795 692.574 124.795 686.096C124.795 680.301 123.411 675.614 120.645 672.033C117.91 668.42 114.264 666.613 109.707 666.613C105.247 666.613 101.65 668.387 98.916 671.936C96.1816 675.484 94.8145 680.562 94.8145 687.17ZM210.586 681.604H180.752V713H171.377V641.906H215.42V649.621H180.752V673.938H210.586V681.604ZM235.049 713H226.016V660.168H235.049V713ZM225.283 646.154C225.283 644.689 225.723 643.452 226.602 642.443C227.513 641.434 228.848 640.93 230.605 640.93C232.363 640.93 233.698 641.434 234.609 642.443C235.521 643.452 235.977 644.689 235.977 646.154C235.977 647.619 235.521 648.84 234.609 649.816C233.698 650.793 232.363 651.281 230.605 651.281C228.848 651.281 227.513 650.793 226.602 649.816C225.723 648.84 225.283 647.619 225.283 646.154ZM259.365 713H250.332V638H259.365V713ZM295.791 713.977C288.63 713.977 282.803 711.633 278.311 706.945C273.818 702.225 271.572 695.926 271.572 688.049V686.389C271.572 681.148 272.565 676.477 274.551 672.375C276.569 668.241 279.368 665.018 282.949 662.707C286.562 660.363 290.469 659.191 294.668 659.191C301.536 659.191 306.875 661.454 310.684 665.979C314.492 670.503 316.396 676.981 316.396 685.412V689.172H280.605C280.736 694.38 282.249 698.596 285.146 701.818C288.076 705.008 291.787 706.604 296.279 706.604C299.469 706.604 302.171 705.952 304.385 704.65C306.598 703.348 308.535 701.623 310.195 699.475L315.713 703.771C311.286 710.575 304.645 713.977 295.791 713.977ZM294.668 666.613C291.022 666.613 287.962 667.948 285.488 670.617C283.014 673.254 281.484 676.965 280.898 681.75H307.363V681.066C307.103 676.477 305.866 672.928 303.652 670.422C301.439 667.883 298.444 666.613 294.668 666.613ZM403.164 641.906V690.246C403.132 696.952 401.016 702.437 396.816 706.701C392.65 710.965 386.986 713.358 379.824 713.879L377.334 713.977C369.554 713.977 363.353 711.877 358.73 707.678C354.108 703.479 351.764 697.701 351.699 690.344V641.906H360.977V690.051C360.977 695.194 362.393 699.198 365.225 702.062C368.057 704.895 372.093 706.311 377.334 706.311C382.64 706.311 386.693 704.895 389.492 702.062C392.324 699.23 393.74 695.243 393.74 690.1V641.906H403.164ZM461.172 687.17C461.172 695.21 459.333 701.688 455.654 706.604C451.976 711.519 446.995 713.977 440.713 713.977C434.3 713.977 429.255 711.942 425.576 707.873V733.312H416.543V660.168H424.795L425.234 666.027C428.913 661.47 434.023 659.191 440.566 659.191C446.914 659.191 451.927 661.584 455.605 666.369C459.316 671.154 461.172 677.811 461.172 686.34V687.17ZM452.139 686.145C452.139 680.188 450.869 675.484 448.33 672.033C445.791 668.583 442.308 666.857 437.881 666.857C432.412 666.857 428.311 669.283 425.576 674.133V699.377C428.278 704.195 432.412 706.604 437.979 706.604C442.308 706.604 445.742 704.895 448.281 701.477C450.853 698.026 452.139 692.915 452.139 686.145ZM482.51 713H473.477V638H482.51V713ZM494.619 686.096C494.619 680.92 495.628 676.265 497.646 672.131C499.697 667.997 502.529 664.807 506.143 662.561C509.788 660.314 513.939 659.191 518.594 659.191C525.788 659.191 531.598 661.682 536.025 666.662C540.485 671.643 542.715 678.267 542.715 686.535V687.17C542.715 692.313 541.722 696.936 539.736 701.037C537.783 705.106 534.967 708.28 531.289 710.559C527.643 712.837 523.444 713.977 518.691 713.977C511.53 713.977 505.719 711.486 501.26 706.506C496.833 701.525 494.619 694.934 494.619 686.73V686.096ZM503.701 687.17C503.701 693.029 505.052 697.733 507.754 701.281C510.488 704.829 514.134 706.604 518.691 706.604C523.281 706.604 526.927 704.813 529.629 701.232C532.331 697.619 533.682 692.574 533.682 686.096C533.682 680.301 532.298 675.614 529.531 672.033C526.797 668.42 523.151 666.613 518.594 666.613C514.134 666.613 510.537 668.387 507.803 671.936C505.068 675.484 503.701 680.562 503.701 687.17ZM586.66 713C586.139 711.958 585.716 710.103 585.391 707.434C581.191 711.796 576.178 713.977 570.352 713.977C565.143 713.977 560.863 712.512 557.51 709.582C554.189 706.62 552.529 702.876 552.529 698.352C552.529 692.85 554.613 688.586 558.779 685.559C562.979 682.499 568.87 680.969 576.455 680.969H585.244V676.818C585.244 673.661 584.3 671.154 582.412 669.299C580.524 667.411 577.741 666.467 574.062 666.467C570.84 666.467 568.138 667.281 565.957 668.908C563.776 670.536 562.686 672.505 562.686 674.816H553.604C553.604 672.18 554.531 669.641 556.387 667.199C558.275 664.725 560.814 662.772 564.004 661.34C567.227 659.908 570.758 659.191 574.6 659.191C580.687 659.191 585.456 660.721 588.906 663.781C592.357 666.809 594.147 670.992 594.277 676.33V700.646C594.277 705.497 594.896 709.354 596.133 712.219V713H586.66ZM571.67 706.115C574.502 706.115 577.188 705.383 579.727 703.918C582.266 702.453 584.105 700.549 585.244 698.205V687.365H578.164C567.096 687.365 561.562 690.604 561.562 697.082C561.562 699.914 562.507 702.128 564.395 703.723C566.283 705.318 568.708 706.115 571.67 706.115ZM606.24 686.145C606.24 678.039 608.161 671.529 612.002 666.613C615.843 661.665 620.872 659.191 627.09 659.191C633.275 659.191 638.174 661.307 641.787 665.539V638H650.82V713H642.52L642.08 707.336C638.467 711.763 633.438 713.977 626.992 713.977C620.872 713.977 615.876 711.47 612.002 706.457C608.161 701.444 606.24 694.901 606.24 686.828V686.145ZM615.273 687.17C615.273 693.16 616.51 697.847 618.984 701.232C621.458 704.618 624.876 706.311 629.238 706.311C634.967 706.311 639.15 703.739 641.787 698.596V674.328C639.085 669.348 634.935 666.857 629.336 666.857C624.909 666.857 621.458 668.566 618.984 671.984C616.51 675.402 615.273 680.464 615.273 687.17Z" fill="#3F3D56"/>
</g>
<defs>
<clipPath id="clip0">
<rect width="1075.56" height="723" fill="white"/>
</clipPath>
</defs>
</svg>
