<svg width="4267" height="2667" viewBox="0 0 4267 2667" fill="none" xmlns="http://www.w3.org/2000/svg">
<path d="M4098.56 1433.08C4098.58 1446.22 4098.25 1460.1 4097.6 1474.6C4097.45 1477.3 4097.32 1480.05 4097.17 1482.81C4096.62 1493.72 4095.84 1504.95 4094.88 1516.44C4094.66 1519.05 4094.43 1521.66 4094.18 1524.32C4093.9 1527.49 4093.6 1530.69 4093.28 1533.9C4091.97 1547.44 4090.41 1561.3 4088.57 1575.4C4088.2 1578.25 4087.84 1581.09 4087.44 1583.94C4085.61 1597.58 4083.52 1611.47 4081.18 1625.45C4080.7 1628.31 4080.2 1631.22 4079.7 1634.09C4077.33 1647.85 4074.74 1661.7 4071.9 1675.6C4071.32 1678.52 4070.7 1681.43 4070.09 1684.33C4067.78 1695.29 4065.31 1706.27 4062.75 1717.21C4061.37 1722.98 4059.93 1728.73 4058.53 1734.47C4055.03 1748.4 4051.28 1762.25 4047.31 1775.97C4046.48 1778.84 4045.63 1781.68 4044.77 1784.55C4040.6 1798.54 4036.2 1812.38 4031.52 1826.01C4030.54 1828.89 4029.51 1831.79 4028.5 1834.66C4024.38 1846.29 4020.05 1857.75 4015.6 1868.97C4013.14 1875.13 4010.62 1881.2 4008.06 1887.21C4001.95 1901.48 3995.49 1915.34 3988.72 1928.68C3987.27 1931.58 3985.76 1934.47 3984.27 1937.32C3976.58 1951.85 3968.51 1965.72 3960.01 1978.76C3958.22 1981.53 3956.41 1984.25 3954.55 1986.95C3944.27 2002.05 3933.36 2015.95 3921.86 2028.33C3918.17 2032.34 3914.4 2036.2 3910.57 2039.88C3892.12 2057.68 3872.25 2071.76 3850.88 2081.16C3849.32 2081.85 3847.76 2082.53 3846.18 2083.17C3845.78 2083.33 3845.37 2083.49 3845 2083.65C3841.88 2084.88 3838.76 2086 3835.62 2087.05L3669.69 2087.29L3200.64 2087.97L2618.44 2084.48L2390.85 2083.11L1940.54 2080.41L580.354 2072.25C580.354 2072.25 328.073 1922.95 328.073 1663.78C328.073 1660.21 328.118 1656.65 328.208 1653.04C331.932 1514.52 369.043 1250.52 688.167 1113.47C711.086 1103.64 735.479 1094.45 761.421 1086C784.614 1078.45 809.037 1071.51 834.783 1065.22C867.504 1057.24 902.306 1050.33 939.359 1044.64C942.99 1044.06 946.654 1043.52 950.33 1042.99C968.037 1040.41 984.997 1037.37 1001.26 1033.86C1430.6 941.639 1379 542.996 1945.28 515.234C1997.14 512.669 2054.16 513.245 2117.23 517.429C2214.06 523.888 2293.84 547.484 2365.14 575.229C2440.56 604.53 2506.51 638.465 2573.13 661.5L2577.68 663.069C2643.03 685.189 2709.24 696.524 2785.88 682.496C2789.6 681.84 2793.35 681.085 2797.14 680.283C2882.01 662.252 2961.29 648.981 3035.29 640.019C3036.82 639.843 3038.36 639.652 3039.89 639.476C3217.79 618.349 3365.36 622.418 3488.04 645.951C3489.58 646.24 3491.11 646.527 3492.59 646.848C3545.6 657.251 3593.9 671.309 3637.98 688.556C3650.28 693.364 3662.25 698.413 3673.89 703.718C3674.24 703.882 3674.62 704.025 3674.94 704.201C3676.9 705.098 3678.84 705.996 3680.75 706.894C3682.61 707.759 3684.47 708.641 3686.33 709.506C3686.48 709.584 3686.66 709.682 3686.81 709.76C3701.17 716.64 3715.02 723.899 3728.4 731.498C3744.27 740.522 3759.48 750.027 3773.99 759.997C3778.11 762.836 3782.21 765.705 3786.26 768.622C3804.54 781.78 3821.74 795.725 3837.96 810.314C3841.15 813.183 3844.29 816.082 3847.41 819.001C3861.67 832.368 3875.15 846.266 3887.87 860.661C3891.14 864.347 3894.33 868.051 3897.5 871.785C3908.89 885.28 3919.68 899.163 3929.86 913.412C3931.95 916.299 3933.96 919.198 3935.97 922.099C3945.37 935.66 3954.28 949.558 3962.7 963.711C3964.51 966.774 3966.32 969.884 3968.1 972.975C3975.77 986.281 3983.02 999.809 3989.88 1013.53C3992.42 1018.66 3994.93 1023.79 3997.37 1028.97C4001.65 1037.93 4005.75 1046.98 4009.67 1056.1C4012.99 1063.73 4016.18 1071.39 4019.3 1079.11C4024.81 1092.84 4030.01 1106.69 4034.89 1120.68C4035.92 1123.57 4036.93 1126.47 4037.91 1129.36C4041.2 1139.04 4044.37 1148.77 4047.41 1158.56C4048.69 1162.66 4049.95 1166.8 4051.18 1170.94C4052.06 1173.82 4052.92 1176.77 4053.8 1179.69C4054.5 1182.22 4055.23 1184.75 4055.96 1187.27C4058.83 1197.43 4061.62 1207.64 4064.26 1217.89C4064.53 1218.99 4064.81 1220.11 4065.11 1221.25C4065.84 1224.13 4066.57 1227.02 4067.3 1229.91C4070.72 1243.71 4073.96 1257.56 4076.98 1271.45C4077.61 1274.31 4078.21 1277.17 4078.84 1280.03C4081.76 1293.86 4084.55 1307.73 4087.11 1321.59C4087.67 1324.48 4088.2 1327.36 4088.72 1330.25C4090.31 1338.77 4091.79 1347.29 4093.22 1355.78C4093.83 1359.3 4094.36 1363.01 4094.88 1366.86C4095.06 1368.47 4095.26 1370.12 4095.46 1371.8C4095.86 1375.37 4096.24 1379.09 4096.57 1382.91C4097.65 1395.53 4098.3 1409.45 4098.51 1424.42C4098.53 1427.28 4098.56 1430.17 4098.56 1433.08" fill="#EBF3FA"/>
<path d="M4094.86 1366.87V1516.44C4094.64 1519.05 4094.44 1521.67 4094.16 1524.32C4093.91 1527.49 4093.61 1530.69 4093.28 1533.91C4091.95 1547.44 4090.39 1561.31 4088.56 1575.4C4088.21 1578.25 4087.83 1581.09 4087.43 1583.95C4085.59 1597.59 4083.51 1611.47 4081.17 1625.45C4080.7 1628.31 4080.19 1631.23 4079.69 1634.09C4077.33 1647.85 4074.74 1661.71 4071.9 1675.6C4071.3 1678.52 4070.67 1681.43 4070.07 1684.33C4067.78 1695.29 4065.3 1706.27 4062.73 1717.21C4061.35 1722.99 4059.92 1728.73 4058.51 1734.47C4055.02 1748.4 4051.25 1762.25 4047.28 1775.97C4046.45 1778.84 4045.63 1781.68 4044.77 1784.55C4040.58 1798.55 4036.18 1812.39 4031.51 1826.01C4030.53 1828.89 4029.5 1831.79 4028.49 1834.67C4024.37 1846.29 4020.05 1857.75 4015.58 1868.97C4013.14 1875.13 4010.61 1881.2 4008.04 1887.21C4001.94 1901.48 3995.48 1915.35 3988.72 1928.68C3987.24 1931.59 3985.76 1934.47 3984.25 1937.32C3976.57 1951.85 3968.5 1965.72 3960.01 1978.76C3958.23 1981.53 3956.42 1984.25 3954.53 1986.95C3944.26 2002.05 3933.36 2015.95 3921.85 2028.33C3918.16 2032.35 3914.39 2036.2 3910.57 2039.88C3892.11 2057.68 3872.23 2071.76 3850.88 2081.16C3849.3 2081.85 3847.74 2082.53 3846.18 2083.17C3845.78 2083.33 3845.38 2083.49 3844.98 2083.65L2618.43 2084.48L2390.84 2083.11L1940.53 2080.41L580.353 2072.25C580.353 2072.25 328.072 1922.95 328.072 1663.79C328.072 1660.21 328.117 1656.65 328.207 1653.04C331.93 1514.52 369.043 1250.52 688.166 1113.47V1238.2H761.419V1086C784.611 1078.45 809.035 1071.51 834.78 1065.23C867.501 1057.24 902.305 1050.34 939.357 1044.65C942.989 1044.07 946.652 1043.53 950.328 1043C968.034 1040.42 984.996 1037.37 1001.26 1033.86V1219.12H1082.21V1175.84L1177.7 1176.23V1106.1H1196.93V1092.22H1199.47V1106.1H1273.19V1106.12H1287.95V1092.22H1290.49V1106.12H1308.27V1245.59H1421.95V1296.91H1485.12V1267.1H1543.73V1148.77H1572.93V1093.57H1577.36V1148.77H1647.41V1045.32H1654.28V1148.77H1700.61V1147.34H1700.53V1134.22H1700.61V1121.78H1700.53V1101.12H1700.61V1087.89H1700.53V1067.23H1700.61V1054.02H1700.53V1033.35H1700.61V1019.08H1700.53V998.401H1700.61V980.241H1700.53V959.563H1700.61V945.859H1714.41V930.389H1716.64V945.859H1818.92V930.389H1821.12V945.859H1839.78V1054.02L1852.93 1054.1V1054.02H1852.83V1033.35H1852.93V1019.08H1852.83V998.401H1852.93V984.185H1852.83V963.507H1852.93V963.444H1976.96V963.507H1998.28C1999.39 964.068 2000.48 964.597 2001.58 965.158V1083.2H2092.26V1238.2H2165.5V951.549H2181.44V931.497H2184.31V951.549H2242.15V931.497H2245.01V951.549H2326.92V931.497H2329.79V951.549H2381.32V931.497H2384.19V951.549H2405.37V1219.12H2486.31V1175.84L2581.8 1176.23V1106.1H2601.02V1092.22H2603.55V1106.1H2677.29V1106.12H2692.01V1092.22H2694.57V1106.12H2712.36V1245.59H2826.03V1296.91H2889.22V1267.1H2947.82V1148.77H2977.04V1093.57H2981.46V1148.77H3051.5V1045.32H3058.36V1148.77H3104.71V1147.34H3104.64V1134.22H3104.71V1121.78H3104.64V1101.12H3104.71V1087.89H3104.64V1067.23H3104.71V1054.02H3104.64V1033.35H3104.71V1019.08H3104.64V998.401H3104.71V980.241H3104.64V959.563H3104.71V945.859H3118.53V930.389H3120.74V945.859H3223.01V930.389H3225.22V945.859H3243.89V1054.02L3256.85 1054.1H3257.02V1054.02H3256.92V1033.35H3257.02V1019.08H3256.92V998.401H3257.02V984.185H3256.92V963.507H3257.02V963.444H3381.05V963.507H3402.35C3403.46 964.068 3404.57 964.597 3405.67 965.158V1083.2H3557.86V1238.21H3631.11V951.549H3647.04V931.497H3649.91V951.549H3707.76V931.497H3710.6V951.549H3792.52V931.497H3795.39V951.549H3870.98V1219.14H3951.92V1175.84L4047.41 1176.23V1158.57C4048.69 1162.67 4049.95 1166.81 4051.18 1170.94C4052.06 1173.82 4052.91 1176.77 4053.79 1179.69C4054.49 1182.22 4055.22 1184.76 4055.95 1187.27C4058.81 1197.43 4061.6 1207.65 4064.24 1217.89C4064.54 1218.99 4064.82 1220.12 4065.09 1221.25C4065.85 1224.14 4066.55 1227.03 4067.28 1229.91C4070.72 1243.71 4073.94 1257.56 4076.98 1271.46C4077.61 1274.31 4078.21 1277.18 4078.84 1280.03C4081.75 1293.86 4084.54 1307.73 4087.1 1321.6C4087.65 1324.48 4088.18 1327.36 4088.71 1330.25C4090.29 1338.78 4091.77 1347.29 4093.23 1355.79C4093.81 1359.31 4094.36 1363.01 4094.86 1366.87" fill="#D5E5FB"/>
<path d="M2405.4 996.905H2222.4V951.541H2405.4V996.905Z" fill="#E2EEFD"/>
<path d="M2405.4 1066.71H2222.4V1021.36H2405.4V1066.71Z" fill="#E2EEFD"/>
<path d="M2405.4 1137.98H2222.4V1092.62H2405.4V1137.98Z" fill="#E2EEFD"/>
<path d="M2405.4 1210.39H2222.4V1165.03H2405.4V1210.39Z" fill="#E2EEFD"/>
<path d="M2405.4 1280.25H2222.4V1234.89H2405.4V1280.25Z" fill="#E2EEFD"/>
<path d="M3190.34 973.41H3104.95V945.865H3190.34V973.41Z" fill="#E2EEFD"/>
<path d="M3190.34 1015.81H3104.95V988.264H3190.34V1015.81Z" fill="#E2EEFD"/>
<path d="M3190.34 1059.09H3104.95V1031.55H3190.34V1059.09Z" fill="#E2EEFD"/>
<path d="M3190.34 1103.06H3104.95V1075.52H3190.34V1103.06Z" fill="#E2EEFD"/>
<path d="M3190.34 1145.49H3104.95V1117.95H3190.34V1145.49Z" fill="#E2EEFD"/>
<path d="M3190.34 1192.19H3104.95V1164.64H3190.34V1192.19Z" fill="#E2EEFD"/>
<path d="M3190.34 1234.59H3104.95V1207.04H3190.34V1234.59Z" fill="#E2EEFD"/>
<path d="M3190.34 1277.87H3104.95V1250.32H3190.34V1277.87Z" fill="#E2EEFD"/>
<path d="M3190.34 1321.84H3104.95V1294.3H3190.34V1321.84Z" fill="#E2EEFD"/>
<path d="M3190.34 1364.27H3104.95V1336.72H3190.34V1364.27Z" fill="#E2EEFD"/>
<path d="M3348.35 991.475H3256.83V963.928H3348.35V991.475" fill="#E2EEFD"/>
<path d="M3348.35 1033.87H3256.83V1006.33H3348.35V1033.87Z" fill="#E2EEFD"/>
<path d="M3348.35 1077.16H3256.83V1049.61H3348.35V1077.16Z" fill="#E2EEFD"/>
<path d="M3348.35 1121.13H3256.83V1093.58H3348.35V1121.13Z" fill="#E2EEFD"/>
<path d="M3348.35 1163.56H3256.83V1136.01H3348.35V1163.56Z" fill="#E2EEFD"/>
<path d="M3348.35 1207.79H3256.83V1180.24H3348.35V1207.79Z" fill="#E2EEFD"/>
<path d="M3348.35 1250.19H3256.83V1222.64H3348.35V1250.19Z" fill="#E2EEFD"/>
<path d="M3348.35 1293.47H3256.83V1265.92H3348.35V1293.47Z" fill="#E2EEFD"/>
<path d="M3348.35 1337.44H3256.83V1309.9H3348.35V1337.44Z" fill="#E2EEFD"/>
<path d="M3348.35 1379.87H3256.83V1352.32H3348.35V1379.87Z" fill="#E2EEFD"/>
<path d="M3348.35 1428.53H3256.83V1400.99H3348.35V1428.53Z" fill="#E2EEFD"/>
<path d="M3348.35 1470.93H3256.83V1443.39H3348.35V1470.93Z" fill="#E2EEFD"/>
<path d="M3348.35 1514.21H3256.83V1486.67H3348.35V1514.21Z" fill="#E2EEFD"/>
<path d="M3348.35 1558.19H3256.83V1530.64H3348.35V1558.19Z" fill="#E2EEFD"/>
<path d="M3348.35 1600.61H3256.83V1573.07H3348.35V1600.61Z" fill="#E2EEFD"/>
<path d="M3870.97 996.902H3704.35V951.545H3870.97V996.902Z" fill="#E2EEFD"/>
<path d="M3870.97 1066.72H3704.35V1021.36H3870.97V1066.72Z" fill="#E2EEFD"/>
<path d="M3870.97 1137.99H3704.35V1092.63H3870.97V1137.99Z" fill="#E2EEFD"/>
<path d="M3870.97 1210.39H3704.35V1165.03H3870.97V1210.39Z" fill="#E2EEFD"/>
<path d="M3870.97 1280.25H3704.35V1234.9H3870.97V1280.25Z" fill="#E2EEFD"/>
<path d="M1791.27 973.413H1699.76V945.867H1791.27V973.413Z" fill="#E2EEFD"/>
<path d="M1791.27 1015.81H1699.76V988.267H1791.27V1015.81Z" fill="#E2EEFD"/>
<path d="M1791.27 1059.09H1699.76V1031.55H1791.27V1059.09Z" fill="#E2EEFD"/>
<path d="M1791.27 1103.07H1699.76V1075.52H1791.27V1103.07Z" fill="#E2EEFD"/>
<path d="M1791.27 1145.49H1699.76V1117.95H1791.27V1145.49Z" fill="#E2EEFD"/>
<path d="M1791.27 1192.19H1699.76V1164.64H1791.27V1192.19Z" fill="#E2EEFD"/>
<path d="M1791.27 1234.59H1699.76V1207.04H1791.27V1234.59Z" fill="#E2EEFD"/>
<path d="M1791.27 1277.87H1699.76V1250.32H1791.27V1277.87Z" fill="#E2EEFD"/>
<path d="M1791.27 1321.84H1699.76V1294.29H1791.27V1321.84Z" fill="#E2EEFD"/>
<path d="M1791.27 1364.27H1699.76V1336.72H1791.27V1364.27Z" fill="#E2EEFD"/>
<path d="M1958.71 991.48H1854.71V963.933H1958.71V991.48Z" fill="#E2EEFD"/>
<path d="M1958.71 1033.87H1854.71V1006.32H1958.71V1033.87Z" fill="#E2EEFD"/>
<path d="M1958.71 1077.16H1854.71V1049.61H1958.71V1077.16Z" fill="#E2EEFD"/>
<path d="M1958.71 1121.12H1854.71V1093.59H1958.71V1121.12Z" fill="#E2EEFD"/>
<path d="M1958.71 1163.56H1854.71V1136.01H1958.71V1163.56Z" fill="#E2EEFD"/>
<path d="M1958.71 1207.79H1854.71V1180.24H1958.71V1207.79Z" fill="#E2EEFD"/>
<path d="M1958.71 1250.19H1854.71V1222.64H1958.71V1250.19Z" fill="#E2EEFD"/>
<path d="M1958.71 1293.47H1854.71V1265.92H1958.71V1293.47Z" fill="#E2EEFD"/>
<path d="M1958.71 1337.44H1854.71V1309.89H1958.71V1337.44Z" fill="#E2EEFD"/>
<path d="M1958.71 1379.87H1854.71V1352.32H1958.71V1379.87Z" fill="#E2EEFD"/>
<path d="M1958.71 1428.53H1854.71V1400.99H1958.71V1428.53Z" fill="#E2EEFD"/>
<path d="M1958.71 1470.93H1854.71V1443.39H1958.71V1470.93Z" fill="#E2EEFD"/>
<path d="M1958.71 1514.21H1854.71V1486.67H1958.71V1514.21Z" fill="#E2EEFD"/>
<path d="M1958.71 1558.19H1854.71V1530.64H1958.71V1558.19Z" fill="#E2EEFD"/>
<path d="M1958.71 1600.61H1854.71V1573.07H1958.71V1600.61Z" fill="#E2EEFD"/>
<path d="M1741.93 791.401C1741.93 791.401 1772.01 741.723 1843.98 747.23C1843.98 747.23 1948.44 664.423 2059.83 736.201C2059.83 736.201 2178.24 718.415 2265.93 751.601C2324.4 773.715 2343.72 796.922 2343.72 796.922L1741.93 791.401Z" fill="#F8FCFF"/>
<path d="M2385.73 931.234C2385.73 931.234 2405.21 897.433 2451.83 901.196C2451.83 901.196 2519.52 844.866 2591.69 893.687C2591.69 893.687 2668.42 881.58 2725.24 904.159C2763.13 919.212 2775.63 934.998 2775.63 934.998L2385.73 931.234Z" fill="#F8FCFF"/>
<path d="M2935.99 782.05C2935.99 782.05 2953.73 749.172 2996.21 752.826C2996.21 752.826 3057.84 698.029 3123.56 745.519C3123.56 745.519 3193.44 733.752 3245.16 755.707C3279.67 770.346 3291.06 785.7 3291.06 785.7L2935.99 782.05" fill="#F8FCFF"/>
<path d="M1441.25 2052.81H1414.24V823.333H1441.25V2052.81Z" fill="#AEC3FF"/>
<path d="M1466.03 2072.84C1466.03 2072.84 1455.93 2081.79 1427.75 2081.79C1401.27 2081.79 1389.45 2072.84 1389.45 2072.84V1784.01C1389.45 1764.05 1405.64 1747.87 1425.61 1747.87H1428.09C1449.04 1747.87 1466.03 1764.85 1466.03 1785.81V2072.84Z" fill="#9DB0F4"/>
<path d="M1474.19 1088.36H1381.31C1371.03 1088.36 1362.71 1080.04 1362.71 1069.77V725.52C1362.71 715.24 1371.03 706.92 1381.31 706.92H1474.19C1484.47 706.92 1492.79 715.24 1492.79 725.52V1069.77C1492.79 1080.04 1484.47 1088.36 1474.19 1088.36Z" fill="#AEC3FF"/>
<path d="M1378.52 894.267C1378.52 866.693 1400.87 844.347 1428.44 844.347C1456.01 844.347 1478.37 866.693 1478.37 894.267C1478.37 921.84 1456.01 944.2 1428.44 944.2C1400.87 944.2 1378.52 921.84 1378.52 894.267Z" fill="#9DB0F4"/>
<path d="M1378.52 1007.25C1378.52 979.68 1400.87 957.333 1428.44 957.333C1456.01 957.333 1478.37 979.68 1478.37 1007.25C1478.37 1034.83 1456.01 1057.19 1428.44 1057.19C1400.87 1057.19 1378.52 1034.83 1378.52 1007.25Z" fill="#9DB0F4"/>
<path d="M1378.52 780.013C1378.52 752.44 1400.87 730.08 1428.44 730.08C1456.01 730.08 1478.37 752.44 1478.37 780.013C1478.37 807.587 1456.01 829.933 1428.44 829.933C1400.87 829.933 1378.52 807.587 1378.52 780.013Z" fill="#F99746"/>
<path d="M2477.08 1991.04H3599.62L3978.72 1956.88C3978.72 1956.88 3910.89 1787.87 3892.39 1785.32C3873.88 1782.79 2512.62 1785.32 2512.62 1785.32L2477.08 1991.04" fill="#1D2949"/>
<path d="M4140.68 1974.39C4112.75 1985.83 3943.88 1988.37 3943.88 1988.37C3943.88 1988.37 3947.69 1781.41 3773.76 1805.53C3599.81 1829.65 3630.22 2001.43 3630.22 2001.43L2793.99 2016.35C2793.99 2016.35 2807.54 1798.17 2622.92 1821.12C2469.52 1840.19 2508.94 2015.53 2508.94 2015.53C2429.78 2019.61 2387.36 2007.68 2364.86 1995.22C2364.84 1995.22 2364.84 1995.21 2364.84 1995.21C2347.99 1971.45 2357.82 1957.55 2358.79 1955.11C2359.76 1952.67 2356.35 1912.23 2355.87 1906.38C2355.59 1903.09 2362.71 1894.72 2369 1888.01C2374.19 1882.49 2374.54 1873.98 2369.76 1868.09L2361.4 1857.77C2351.86 1846 2349.68 1829.89 2355.74 1816L2372.36 1777.96C2372.36 1777.96 2372.36 1777.96 2372.38 1777.95C2426.56 1684.85 2851.48 1659.44 2851.48 1659.44C2916 1622.34 2969.51 1594.79 3011.34 1574.76C3078.12 1542.81 3154.25 1511.65 3227.91 1504.37C3427.36 1484.65 3591.34 1507 3631.55 1513.52C3678.53 1521.13 3914.68 1623.97 3932.48 1632.87C3950.23 1641.74 4095.21 1653.8 4113.83 1656.07C4132.47 1658.32 4131.91 1676.95 4131.91 1676.95L4134.46 1693.45L4144.18 1756.37L4146.56 1771.75C4160.11 1778.51 4160.11 1797.91 4160.11 1797.91C4160.11 1797.91 4168.61 1962.96 4140.68 1974.39" fill="#739AF0"/>
<path d="M2518.87 1956.88C2518.87 1885.76 2576.53 1828.11 2647.64 1828.11C2718.75 1828.11 2776.41 1885.76 2776.41 1956.88C2776.41 2028 2718.75 2085.65 2647.64 2085.65C2576.53 2085.65 2518.87 2028 2518.87 1956.88Z" fill="#2C3A64"/>
<path d="M2647.64 1865.49C2597.24 1865.49 2556.24 1906.49 2556.24 1956.88C2556.24 2007.28 2597.24 2048.28 2647.64 2048.28C2698.04 2048.28 2739.05 2007.28 2739.05 1956.88C2739.05 1906.49 2698.04 1865.49 2647.64 1865.49ZM2647.64 2057.58C2592.12 2057.58 2546.93 2012.41 2546.93 1956.88C2546.93 1901.36 2592.12 1856.17 2647.64 1856.17C2703.18 1856.17 2748.35 1901.36 2748.35 1956.88C2748.35 2012.41 2703.18 2057.58 2647.64 2057.58" fill="#AFCDFB"/>
<path d="M2664.84 2053.04H2628.75L2640.34 1954.15L2627.1 1860.21L2668.33 1862.76L2654.58 1954.15L2664.84 2053.04" fill="#AFCDFB"/>
<path d="M2572.77 2019.65L2554.72 1988.4L2646.16 1949L2720.89 1890.58L2739.31 1927.56L2653.28 1961.34L2572.77 2019.65Z" fill="#AFCDFB"/>
<path d="M2558.3 1919.62L2578.12 1889.47L2654.39 1953.48L2740.14 1994.03L2715.36 2027.08L2646.55 1965.39L2558.3 1919.62" fill="#AFCDFB"/>
<path d="M2613.84 1956.71C2613.84 1938.14 2628.91 1923.11 2647.44 1923.11C2666.01 1923.11 2681.05 1938.14 2681.05 1956.71C2681.05 1975.26 2666.01 1990.3 2647.44 1990.3C2628.91 1990.3 2613.84 1975.26 2613.84 1956.71Z" fill="#AFCDFB"/>
<path d="M3660.69 1956.88C3660.69 1885.76 3718.34 1828.11 3789.46 1828.11C3860.59 1828.11 3918.24 1885.76 3918.24 1956.88C3918.24 2028 3860.59 2085.65 3789.46 2085.65C3718.34 2085.65 3660.69 2028 3660.69 1956.88" fill="#2C3A64"/>
<path d="M3789.46 1865.49C3739.08 1865.49 3698.08 1906.49 3698.08 1956.88C3698.08 2007.28 3739.08 2048.28 3789.46 2048.28C3839.87 2048.28 3880.87 2007.28 3880.87 1956.88C3880.87 1906.49 3839.87 1865.49 3789.46 1865.49ZM3789.46 2057.59C3733.93 2057.59 3688.77 2012.41 3688.77 1956.88C3688.77 1901.36 3733.93 1856.17 3789.46 1856.17C3845 1856.17 3890.18 1901.36 3890.18 1956.88C3890.18 2012.41 3845 2057.59 3789.46 2057.59Z" fill="#AFCDFB"/>
<path d="M3806.65 2053.04H3770.56L3782.15 1954.15L3768.92 1860.22L3810.16 1862.76L3796.41 1954.15L3806.65 2053.04" fill="#AFCDFB"/>
<path d="M3714.61 2019.65L3696.56 1988.4L3788.02 1949L3862.73 1890.57L3881.14 1927.56L3795.13 1961.33L3714.61 2019.65" fill="#AFCDFB"/>
<path d="M3700.13 1919.61L3719.95 1889.47L3796.23 1953.48L3881.96 1994.03L3857.2 2027.08L3788.37 1965.39L3700.13 1919.61Z" fill="#AFCDFB"/>
<path d="M3755.68 1956.71C3755.68 1938.14 3770.71 1923.11 3789.26 1923.11C3807.84 1923.11 3822.87 1938.14 3822.87 1956.71C3822.87 1975.27 3807.84 1990.31 3789.26 1990.31C3770.71 1990.31 3755.68 1975.27 3755.68 1956.71" fill="#AFCDFB"/>
<path d="M2523.27 1789.85L2490.21 1825.69C2485.46 1830.84 2478.78 1833.76 2471.78 1833.76H2370.4C2364.41 1833.76 2360.66 1827.32 2363.56 1822.1L2366.46 1816.93C2370.03 1810.53 2374.45 1804.76 2379.53 1799.73C2379.55 1799.72 2379.56 1799.72 2379.56 1799.72C2393.77 1785.7 2413.11 1777.53 2433.64 1777.53H2517.85C2524.27 1777.53 2527.61 1785.14 2523.27 1789.85" fill="#AFCDFB"/>
<path d="M2415.55 1956.88H2386.79C2377.3 1956.88 2368.51 1962.03 2363.88 1970.33L2362.89 1972.09C2361.89 1973.88 2363.18 1976.08 2365.23 1976.08H2399.82C2402.21 1976.08 2404.5 1975.08 2406.11 1973.32L2417.39 1961.09C2418.88 1959.48 2417.75 1956.88 2415.55 1956.88" fill="#1D2949"/>
<path d="M3807.96 1647.25L3378.1 1657.45C3369.66 1657.67 3362.73 1650.88 3362.73 1642.45V1543.42C3362.73 1535.62 3369.13 1529.34 3376.9 1529.45C3560.22 1532 3623.02 1537.1 3660.7 1550.1C3693.94 1561.57 3771.64 1608.71 3811.8 1632.62C3818.57 1636.67 3815.85 1647.06 3807.96 1647.25Z" fill="#AFCDFB"/>
<path d="M3325.32 1528.81C3332.3 1528.89 3339.13 1528.97 3345.8 1529.05V1658.23L2931.11 1668.07C2925.71 1668.2 2923.47 1661.2 2927.95 1658.17C2976.41 1625.52 3138.69 1526.69 3325.32 1528.81Z" fill="#AFCDFB"/>
<path d="M3806.48 1647.28L3806.25 1647.29V1629.33C3807.72 1630.21 3809.15 1631.07 3810.53 1631.89C3817.68 1636.14 3814.8 1647.09 3806.48 1647.28Z" fill="#AFCDFB"/>
<path d="M3362.73 1663.44L3311.94 1659.41L3315.33 1521.27H3362.73V1663.44" fill="#739AF0"/>
<path d="M3684.41 1663.44H3660.7V1539.38L3684.41 1553.61V1663.44Z" fill="#739AF0"/>
<path d="M2982.84 1624.66L2995.48 1666.55L2926.31 1668.19C2922.29 1668.28 2920.54 1663.11 2923.81 1660.75C2939.43 1649.52 2968.38 1629.51 2982.84 1624.66" fill="#2C3A64"/>
<path d="M2985.91 1626.83L2983.59 1628.13C2980.86 1629.65 2978.2 1631.16 2975.61 1632.64C2974.41 1633.32 2973.27 1633.99 2972.13 1634.65C2968.42 1636.79 2964.88 1638.87 2961.58 1640.85C2960.42 1641.56 2959.26 1642.25 2958.14 1642.93C2957.33 1643.42 2956.53 1643.91 2955.74 1644.39C2955.21 1644.72 2954.72 1645.03 2954.23 1645.32L2953.87 1645.55C2952.32 1646.49 2950.81 1647.43 2949.37 1648.33L2948.41 1648.93C2946.72 1649.99 2945.09 1651.03 2943.5 1652.04C2941.3 1653.44 2939.23 1654.77 2937.27 1656.05L2934.67 1657.77C2932.96 1658.91 2931.35 1659.97 2929.84 1660.99C2928.03 1662.21 2926.38 1663.33 2924.89 1664.37L2924.2 1664.84L2995.42 1663.16L3302.43 1655.87C3307.67 1655.75 3311.94 1651.37 3311.94 1646.12V1539.07C3311.94 1537.24 3311.23 1535.53 3309.91 1534.27C3308.6 1532.98 3306.87 1532.31 3305.02 1532.36C3304.1 1532.39 3303.19 1532.41 3302.27 1532.44L3299.91 1532.52C3298.97 1532.56 3298.06 1532.6 3297.1 1532.64H3297C3295.94 1532.68 3294.9 1532.73 3293.86 1532.79C3292.54 1532.84 3291.24 1532.91 3289.95 1532.98L3289.42 1533.01C3288.26 1533.08 3287.1 1533.15 3285.94 1533.22L3279.96 1533.63C3278.96 1533.71 3277.94 1533.78 3276.9 1533.87C3275.5 1533.97 3274.17 1534.08 3272.85 1534.2C3271.45 1534.32 3270.06 1534.44 3268.68 1534.57C3267.64 1534.67 3266.6 1534.77 3265.58 1534.88C3264.63 1534.96 3263.73 1535.05 3262.83 1535.16C3261.92 1535.25 3261.04 1535.34 3260.17 1535.44C3258.93 1535.57 3257.72 1535.7 3256.5 1535.85L3256.24 1535.88C3251.88 1536.38 3247.42 1536.96 3243 1537.56C3240.62 1537.89 3238.24 1538.24 3235.9 1538.6L3235.69 1538.63C3234.33 1538.83 3232.99 1539.04 3231.64 1539.25C3228.95 1539.68 3226.29 1540.12 3223.62 1540.59L3222.34 1540.8C3221.42 1540.96 3220.55 1541.12 3219.63 1541.28C3218.2 1541.55 3216.8 1541.79 3215.39 1542.05C3214.13 1542.29 3212.89 1542.52 3211.65 1542.77C3210.39 1543.01 3209.14 1543.25 3207.88 1543.5L3207.68 1543.55C3206.35 1543.8 3205.05 1544.06 3203.73 1544.33C3202.41 1544.61 3201.1 1544.88 3199.78 1545.16C3198.48 1545.44 3197.17 1545.72 3195.87 1546C3194.57 1546.29 3193.26 1546.57 3191.96 1546.87C3190.98 1547.08 3190.03 1547.31 3189.07 1547.52L3188.07 1547.76C3186.77 1548.05 3185.51 1548.34 3184.22 1548.67C3182.02 1549.17 3179.89 1549.69 3177.77 1550.23C3177.32 1550.33 3176.91 1550.43 3176.51 1550.53L3176.18 1550.61C3171.23 1551.85 3166.25 1553.16 3161.34 1554.51C3158.85 1555.19 3156.41 1555.88 3153.95 1556.57L3150.04 1557.69C3147.72 1558.39 3145.38 1559.08 3143.03 1559.78C3141.53 1560.24 3140.02 1560.71 3138.51 1561.17C3136.27 1561.87 3134.1 1562.56 3131.92 1563.27C3130.72 1563.64 3129.52 1564.03 3128.33 1564.43L3128.19 1564.47C3127.05 1564.84 3125.89 1565.21 3124.77 1565.6L3120.52 1567.01C3119.4 1567.4 3118.28 1567.77 3117.16 1568.16L3114.18 1569.19C3100.6 1573.92 3086.9 1579.13 3073.46 1584.67C3071.47 1585.49 3069.47 1586.32 3067.52 1587.15C3063.69 1588.75 3060.29 1590.21 3057.09 1591.63L3053.86 1593.05C3051.72 1594 3049.62 1594.93 3047.52 1595.89C3046.47 1596.36 3045.41 1596.83 3044.39 1597.3C3041.25 1598.73 3038.18 1600.16 3035.17 1601.6L3032.13 1603.03C3022.46 1607.65 3012.77 1612.49 3003.34 1617.42C3002.59 1617.84 3001.82 1618.24 3001.06 1618.64L2999.43 1619.49C2994.95 1621.88 2990.41 1624.33 2985.91 1626.83V1626.83ZM2923.33 1671.64C2920.5 1671.64 2918.01 1669.85 2917.14 1667.16C2916.24 1664.4 2917.24 1661.44 2919.6 1659.79L2921.05 1658.8C2922.53 1657.76 2924.22 1656.61 2926.06 1655.37C2927.58 1654.35 2929.21 1653.27 2930.94 1652.12L2933.55 1650.4C2935.54 1649.11 2937.64 1647.75 2939.86 1646.32C2941.45 1645.32 2943.1 1644.27 2944.81 1643.2L2945.09 1643.03C2945.32 1642.86 2945.58 1642.72 2945.82 1642.57C2947.25 1641.67 2948.76 1640.73 2950.32 1639.77L2950.67 1639.56C2951.18 1639.24 2951.71 1638.92 2952.24 1638.61C2953.01 1638.13 2953.81 1637.64 2954.62 1637.15C2955.78 1636.45 2956.92 1635.76 2958.1 1635.05C2961.42 1633.05 2965 1630.95 2968.73 1628.8C2969.87 1628.12 2971.05 1627.45 2972.23 1626.77C2974.57 1625.43 2977 1624.05 2979.46 1622.68L2981.21 1621.69C2986.2 1618.92 2991.27 1616.17 2996.26 1613.52L2997.89 1612.65C2998.66 1612.25 2999.41 1611.85 3000.17 1611.44C3009.7 1606.46 3019.45 1601.57 3029.24 1596.91L3032.27 1595.47C3035.33 1594.02 3038.42 1592.6 3041.56 1591.16C3042.6 1590.68 3043.68 1590.2 3044.74 1589.72C3046.83 1588.76 3048.97 1587.81 3051.13 1586.85L3054.37 1585.42C3057.6 1584 3061.04 1582.52 3064.89 1580.91C3066.87 1580.07 3068.88 1579.24 3070.88 1578.41C3084.44 1572.83 3098.26 1567.57 3111.94 1562.8L3114.96 1561.76C3116.08 1561.37 3117.22 1560.99 3118.36 1560.6L3122.61 1559.17C3123.77 1558.79 3124.93 1558.41 3126.07 1558.03L3126.22 1557.99C3127.42 1557.59 3128.64 1557.2 3129.86 1556.81C3132.06 1556.11 3134.28 1555.4 3136.5 1554.72C3138.01 1554.24 3139.53 1553.77 3141.08 1553.31C3143.42 1552.6 3145.78 1551.89 3148.14 1551.2L3152.07 1550.06C3154.56 1549.36 3157.06 1548.65 3159.55 1547.97C3164.49 1546.61 3169.54 1545.29 3174.53 1544.05L3174.84 1543.97C3175.29 1543.85 3175.73 1543.75 3176.16 1543.64C3178.28 1543.11 3180.46 1542.58 3182.64 1542.07C3183.94 1541.76 3185.24 1541.45 3186.56 1541.16L3187.54 1540.93C3188.52 1540.71 3189.52 1540.48 3190.47 1540.27C3191.8 1539.96 3193.1 1539.68 3194.42 1539.39C3195.73 1539.09 3197.05 1538.81 3198.37 1538.53C3199.72 1538.25 3201.02 1537.99 3202.36 1537.71C3203.67 1537.43 3205.01 1537.16 3206.35 1536.91L3206.56 1536.85C3207.82 1536.61 3209.1 1536.36 3210.37 1536.12C3211.61 1535.88 3212.89 1535.64 3214.15 1535.4C3215.58 1535.13 3216.98 1534.88 3218.43 1534.63C3219.34 1534.45 3220.26 1534.29 3221.18 1534.13L3222.46 1533.91C3225.17 1533.44 3227.88 1533 3230.58 1532.57C3231.93 1532.35 3233.29 1532.15 3234.68 1531.93L3234.88 1531.89C3237.26 1531.53 3239.66 1531.18 3242.07 1530.85C3246.55 1530.24 3251.05 1529.67 3255.46 1529.16L3255.73 1529.12C3256.97 1528.99 3258.21 1528.84 3259.43 1528.7C3260.31 1528.61 3261.23 1528.52 3262.12 1528.43C3263 1528.32 3263.95 1528.23 3264.93 1528.15C3265.93 1528.04 3266.99 1527.93 3268.05 1527.84C3269.43 1527.71 3270.84 1527.57 3272.26 1527.45C3273.6 1527.33 3274.97 1527.22 3276.33 1527.12C3277.41 1527.03 3278.43 1526.95 3279.47 1526.88L3285.5 1526.47C3286.68 1526.39 3287.86 1526.32 3289.06 1526.25L3289.57 1526.23C3290.89 1526.15 3292.21 1526.08 3293.54 1526.03C3294.6 1525.97 3295.66 1525.92 3296.71 1525.88L3296.84 1525.86C3297.77 1525.83 3298.73 1525.79 3299.69 1525.76L3302.05 1525.67C3302.98 1525.64 3303.9 1525.61 3304.86 1525.59C3308.54 1525.48 3312 1526.84 3314.63 1529.41C3317.28 1531.97 3318.72 1535.4 3318.72 1539.07V1646.12C3318.72 1655.01 3311.47 1662.43 3302.6 1662.64L2923.49 1671.64C2923.43 1671.64 2923.37 1671.64 2923.33 1671.64" fill="#1D2949"/>
<path d="M3692.12 1565.07C3691.14 1565.07 3690.37 1565.43 3689.87 1565.72C3688.33 1566.69 3687.39 1568.49 3687.39 1570.52V1642.8C3687.39 1644.2 3687.93 1645.52 3688.87 1646.44C3689.62 1647.17 3690.58 1647.56 3691.56 1647.55L3809.05 1644.5C3811.44 1644.44 3812.24 1642.24 3812.43 1641.58C3812.87 1640.01 3812.68 1637.75 3810.74 1636.47L3810.48 1636.31C3810.22 1636.15 3809.97 1635.98 3809.71 1635.8C3807.86 1634.6 3805.96 1633.36 3803.99 1632.08L3792.58 1624.72C3789.51 1622.75 3786.32 1620.71 3783.04 1618.61C3781.68 1617.75 3780.3 1616.87 3778.92 1616C3746.44 1595.36 3720.92 1579.93 3703.04 1570.16L3701.57 1569.38C3701.43 1569.28 3701.29 1569.22 3701.12 1569.13C3699.83 1568.43 3697.37 1567.19 3693.95 1565.51C3693.29 1565.19 3692.69 1565.07 3692.12 1565.07V1565.07ZM3691.47 1653.55C3688.94 1653.55 3686.55 1652.55 3684.67 1650.74C3682.59 1648.69 3681.39 1645.8 3681.39 1642.8V1570.52C3681.39 1566.4 3682 1561.16 3685.33 1559.08C3688.35 1557.2 3693.41 1558.58 3696.6 1560.12C3700.14 1561.87 3702.6 1563.11 3703.93 1563.83C3704.07 1563.89 3704.26 1564 3704.47 1564.11L3705.9 1564.89C3723.92 1574.73 3749.56 1590.23 3782.13 1610.94C3783.51 1611.8 3784.89 1612.68 3786.25 1613.56C3789.53 1615.65 3792.74 1617.71 3795.81 1619.68L3807.25 1627.05C3809.22 1628.33 3811.14 1629.58 3812.94 1630.76C3813.2 1630.92 3813.48 1631.11 3813.76 1631.28L3814.02 1631.44C3817.82 1633.92 3819.5 1638.64 3818.21 1643.2C3816.97 1647.52 3813.46 1650.39 3809.19 1650.49L3807.95 1650.52L3691.72 1653.55C3691.65 1653.55 3691.56 1653.55 3691.47 1653.55" fill="#1D2949"/>
<path d="M2982.84 1624.66L2995.48 1666.55L2926.31 1668.19C2922.29 1668.28 2920.54 1663.11 2923.81 1660.75C2939.43 1649.52 2968.38 1629.51 2982.84 1624.66" fill="#2C3A64"/>
<path d="M3376.69 1532.84C3373.91 1532.84 3371.28 1533.92 3369.27 1535.89C3367.23 1537.89 3366.11 1540.57 3366.11 1543.41V1642.46C3366.11 1645.61 3367.36 1648.57 3369.61 1650.77C3371.88 1652.97 3374.89 1654.16 3378 1654.07L3657.32 1647.44V1552.48C3621.18 1539.65 3559.16 1535.37 3376.85 1532.84C3376.81 1532.84 3376.76 1532.84 3376.69 1532.84V1532.84ZM3377.7 1660.84C3372.89 1660.84 3368.35 1659 3364.89 1655.61C3361.32 1652.13 3359.36 1647.45 3359.36 1642.46V1543.41C3359.36 1538.74 3361.18 1534.36 3364.51 1531.06C3367.84 1527.79 3372.26 1526.04 3376.96 1526.07C3566.15 1528.7 3624.75 1533 3661.91 1546.94L3664.09 1547.77V1654.05L3378.18 1660.84C3378.02 1660.84 3377.88 1660.84 3377.7 1660.84" fill="#1D2949"/>
<path d="M4144.18 1756.39H4063.25C4051.2 1756.39 4039.84 1750.87 4032.39 1741.4L4001.78 1702.51C3998.88 1698.84 4001.5 1693.46 4006.17 1693.46H4134.44L4144.18 1756.39" fill="#A9453D"/>
<path d="M3340.73 1961.49L3337.35 1961.45L3342.42 1527.76L3345.8 1527.8L3340.73 1961.49" fill="#1D2949"/>
<path d="M2792.36 1975.08L2792.27 1971.69L3628.94 1955.19L3629.01 1958.57L2792.36 1975.08Z" fill="#1D2949"/>
<path d="M3292.56 1748.08C3292.56 1752.67 3272.09 1756.39 3246.84 1756.39C3221.59 1756.39 3201.13 1752.67 3201.13 1748.08C3201.13 1743.49 3221.59 1739.77 3246.84 1739.77C3272.09 1739.77 3292.56 1743.49 3292.56 1748.08Z" fill="#2C3A64"/>
<path d="M3718.25 1748.08C3718.25 1752.67 3697.79 1756.39 3672.53 1756.39C3647.3 1756.39 3626.84 1752.67 3626.84 1748.08C3626.84 1743.49 3647.3 1739.77 3672.53 1739.77C3697.79 1739.77 3718.25 1743.49 3718.25 1748.08Z" fill="#2C3A64"/>
<path d="M3596.34 1956.97L3592.98 1956.79C3595.29 1913.68 3608.1 1877.33 3630.93 1848.79C3649.26 1825.95 3673.98 1808.04 3704.49 1795.56C3750.86 1776.57 3796.8 1776.08 3806.25 1776.21V1647.25H3809.64V1779.71L3807.88 1779.64C3807.37 1779.62 3756.77 1777.77 3705.65 1798.73C3675.74 1811 3651.45 1828.56 3633.55 1850.95C3611.16 1878.93 3598.66 1914.6 3596.34 1956.97" fill="#1D2949"/>
<path d="M2894.3 1971.36C2892.99 1859.49 2899.21 1782.11 2904.67 1736.87C2910.59 1687.8 2916.93 1664.85 2916.98 1664.63L2920.24 1665.55C2920.01 1666.44 2895.18 1757.77 2897.69 1971.32L2894.3 1971.36" fill="#1D2949"/>
<path d="M3376.9 1531.14H3310.67V1527.76H3376.9V1531.14Z" fill="#1D2949"/>
<path d="M2429.44 1833.76H2370.4C2364.41 1833.76 2360.65 1827.32 2363.56 1822.11L2366.45 1816.93C2370.03 1810.53 2374.44 1804.76 2379.54 1799.73C2379.54 1799.72 2379.55 1799.72 2379.55 1799.72L2415.31 1805.64L2401.18 1821.11L2418.07 1824.52L2429.44 1833.76" fill="#2C3A64"/>
<path d="M2410.45 1738.27C2409.09 1738.27 2407.73 1737.63 2406.86 1736.43C2405.47 1734.47 2405.93 1731.72 2407.89 1730.32C2408.17 1730.11 2415.11 1725.2 2437.4 1711.63C2460.78 1697.39 2483.11 1694.43 2497.87 1693.45C2506.95 1692.84 2515.9 1679.69 2521.25 1671.83C2523.21 1668.95 2524.76 1666.68 2526.12 1665.21C2528.24 1662.92 2530.43 1660.55 2692.14 1657.45C2771.17 1655.95 2868.75 1655.05 2851.41 1655.05C2851.39 1655.05 2869.45 1655.05 2869.49 1655.05C2871.87 1655.05 2871.96 1660.79 2872.4 1663.16C2877.73 1692.33 2846.06 1677.81 2843.66 1677.84C2722.93 1679.17 2548.31 1668.36 2531.95 1671.89C2531.04 1673.05 2529.79 1674.87 2528.5 1676.76C2521.85 1686.55 2511.8 1701.31 2498.44 1702.2C2484.61 1703.12 2463.69 1705.88 2441.96 1719.12C2420.03 1732.45 2413.06 1737.41 2412.99 1737.45C2412.21 1738 2411.33 1738.27 2410.45 1738.27" fill="#739AF0"/>
<path d="M3044.59 1684.42H2990.86C2981.23 1684.42 2973.32 1676.53 2973.32 1666.88V1652.26C2973.32 1642.61 2981.23 1634.72 2990.86 1634.72H3044.59C3054.25 1634.72 3062.14 1642.61 3062.14 1652.26V1666.88C3062.14 1676.53 3054.25 1684.42 3044.59 1684.42Z" fill="#6390E0"/>
<path d="M343.3 1985.11H1465.83L1844.95 1950.96C1844.95 1950.96 1777.11 1781.93 1758.61 1779.39C1740.12 1776.85 378.856 1779.39 378.856 1779.39L343.3 1985.11Z" fill="#1D2949"/>
<path d="M2021.76 1816.68C2017.8 1830.43 2010.39 1833.4 2010.4 1863.03C2010.41 1874.67 2013 1889.33 2007.16 1902.25C2004.61 1907.84 1988.88 1917.17 1993.27 1935.87C1993.27 1935.87 1967.32 1955.97 1966.23 1958.53C1965.13 1961.09 1963.31 1975.35 1963.31 1975.35C1935.36 1986.77 1810.11 1982.43 1810.11 1982.43C1810.11 1982.43 1813.91 1775.49 1639.97 1799.61C1466.04 1823.73 1496.43 1995.51 1496.43 1995.51L660.183 2010.41C660.183 2010.41 673.763 1792.25 489.14 1815.19C335.744 1834.25 375.141 2009.6 375.141 2009.6C222.213 2017.51 206.411 1965.57 206.411 1965.57V1944.15H216V1887.71H206.411V1845.67L238.585 1772.03C252.139 1748.75 288.847 1729.71 336.313 1714.23C478.673 1667.8 717.679 1653.52 717.679 1653.52C782.221 1616.41 835.727 1588.84 877.581 1568.81C944.345 1536.88 1020.45 1505.72 1094.12 1498.44C1293.56 1478.73 1457.57 1501.08 1497.77 1507.6C1544.75 1515.21 1780.91 1618.04 1798.68 1626.93C1816.45 1635.81 1961.43 1647.88 1980.05 1650.13C1998.68 1652.39 1998.11 1671 1998.11 1671L2000.67 1687.53L1997.65 1697.21L1983.75 1692.37L1989.61 1713.29L1987.79 1722.07L2006.47 1725.04L2010.4 1750.45L2012.79 1765.81C2026.32 1772.59 2023.81 1809.59 2021.76 1816.68" fill="#F99746"/>
<path d="M385.092 1950.96C385.092 1879.84 442.745 1822.19 513.863 1822.19C584.983 1822.19 642.636 1879.84 642.636 1950.96C642.636 2022.08 584.983 2079.73 513.863 2079.73C442.745 2079.73 385.092 2022.08 385.092 1950.96" fill="#2C3A64"/>
<path d="M513.864 1859.56C463.469 1859.56 422.469 1900.56 422.469 1950.96C422.469 2001.35 463.469 2042.35 513.864 2042.35C564.259 2042.35 605.259 2001.35 605.259 1950.96C605.259 1900.56 564.259 1859.56 513.864 1859.56V1859.56ZM513.864 2051.67C458.333 2051.67 413.157 2006.48 413.157 1950.96C413.157 1895.43 458.333 1850.25 513.864 1850.25C569.393 1850.25 614.569 1895.43 614.569 1950.96C614.569 2006.48 569.393 2051.67 513.864 2051.67" fill="#AFCDFB"/>
<path d="M531.056 2047.11H494.973L506.556 1948.21L493.32 1854.29L534.556 1856.84L520.809 1948.21L531.056 2047.11" fill="#AFCDFB"/>
<path d="M438.999 2013.72L420.961 1982.47L512.397 1943.07L587.127 1884.65L605.536 1921.64L519.523 1955.41L438.999 2013.72Z" fill="#AFCDFB"/>
<path d="M424.533 1913.69L444.357 1883.55L520.621 1947.55L606.373 1988.09L581.591 2021.15L512.789 1959.47L424.533 1913.69Z" fill="#AFCDFB"/>
<path d="M480.067 1950.77C480.067 1932.23 495.111 1917.17 513.667 1917.17C532.223 1917.17 547.265 1932.23 547.265 1950.77C547.265 1969.33 532.223 1984.37 513.667 1984.37C495.111 1984.37 480.067 1969.33 480.067 1950.77Z" fill="#AFCDFB"/>
<path d="M1526.92 1950.96C1526.92 1879.84 1584.57 1822.19 1655.69 1822.19C1726.81 1822.19 1784.47 1879.84 1784.47 1950.96C1784.47 2022.08 1726.81 2079.73 1655.69 2079.73C1584.57 2079.73 1526.92 2022.08 1526.92 1950.96Z" fill="#2C3A64"/>
<path d="M1655.69 1859.56C1605.29 1859.56 1564.29 1900.56 1564.29 1950.96C1564.29 2001.35 1605.29 2042.35 1655.69 2042.35C1706.08 2042.35 1747.08 2001.35 1747.08 1950.96C1747.08 1900.56 1706.08 1859.56 1655.69 1859.56ZM1655.69 2051.67C1600.16 2051.67 1554.99 2006.48 1554.99 1950.96C1554.99 1895.43 1600.16 1850.25 1655.69 1850.25C1711.21 1850.25 1756.4 1895.43 1756.4 1950.96C1756.4 2006.48 1711.21 2051.67 1655.69 2051.67Z" fill="#AFCDFB"/>
<path d="M1672.88 2047.11H1636.8L1648.39 1948.21L1635.15 1854.29L1676.39 1856.84L1662.64 1948.21L1672.88 2047.11" fill="#AFCDFB"/>
<path d="M1580.83 2013.72L1562.79 1982.47L1654.23 1943.07L1728.95 1884.65L1747.36 1921.64L1661.35 1955.41L1580.83 2013.72Z" fill="#AFCDFB"/>
<path d="M1566.36 1913.69L1586.19 1883.55L1662.44 1947.55L1748.2 1988.09L1723.41 2021.15L1654.61 1959.47L1566.36 1913.69" fill="#AFCDFB"/>
<path d="M1621.89 1950.77C1621.89 1932.23 1636.93 1917.17 1655.49 1917.17C1674.05 1917.17 1689.09 1932.23 1689.09 1950.77C1689.09 1969.33 1674.05 1984.37 1655.49 1984.37C1636.93 1984.37 1621.89 1969.33 1621.89 1950.77Z" fill="#AFCDFB"/>
<path d="M384.081 1771.6H299.84C271.965 1771.6 246.269 1786.68 232.669 1811.01L229.78 1816.17C226.863 1821.4 230.636 1827.83 236.615 1827.83H337.996C344.993 1827.83 351.673 1824.91 356.419 1819.76L389.479 1783.92C393.82 1779.23 390.483 1771.6 384.081 1771.6Z" fill="#F9DDBF"/>
<path d="M281.779 1950.96H253.028C243.515 1950.96 234.745 1956.11 230.104 1964.4L229.117 1966.17C228.121 1967.95 229.409 1970.15 231.449 1970.15H266.051C268.44 1970.15 270.719 1969.15 272.339 1967.39L283.621 1955.16C285.104 1953.56 283.964 1950.96 281.779 1950.96" fill="#1D2949"/>
<path d="M1674.17 1641.32L1244.32 1651.53C1235.89 1651.73 1228.95 1644.96 1228.95 1636.53V1537.49C1228.95 1529.69 1235.33 1523.41 1243.12 1523.53C1426.43 1526.08 1489.24 1531.19 1526.92 1544.19C1560.15 1555.64 1637.85 1602.79 1678.01 1626.71C1684.79 1630.75 1682.05 1641.13 1674.17 1641.32" fill="#AFCDFB"/>
<path d="M1191.55 1522.88C1198.52 1522.96 1205.34 1523.04 1212.02 1523.13V1652.31L797.329 1662.15C791.928 1662.28 789.693 1655.27 794.171 1652.25C842.623 1619.6 1004.92 1520.77 1191.55 1522.88Z" fill="#AFCDFB"/>
<path d="M1672.71 1641.36H1672.48V1623.41C1673.95 1624.29 1675.37 1625.13 1676.75 1625.96C1683.89 1630.21 1681.01 1641.16 1672.71 1641.36Z" fill="#AFCDFB"/>
<path d="M1228.95 1657.51L1178.16 1653.49L1181.55 1515.35H1228.95V1657.51Z" fill="#F99746"/>
<path d="M1550.61 1657.51H1526.92V1533.45L1550.61 1547.68V1657.51Z" fill="#F99746"/>
<path d="M849.077 1618.73L861.72 1660.61L792.547 1662.25C788.512 1662.36 786.771 1657.19 790.047 1654.83C805.664 1643.59 834.607 1623.57 849.077 1618.73" fill="#2C3A64"/>
<path d="M852.148 1620.89L849.804 1622.2C847.071 1623.73 844.411 1625.23 841.825 1626.72C840.637 1627.4 839.484 1628.07 838.339 1628.72C834.647 1630.85 831.108 1632.95 827.812 1634.93C826.631 1635.64 825.484 1636.32 824.356 1637.01C823.552 1637.49 822.756 1637.97 821.969 1638.47C821.433 1638.79 820.937 1639.09 820.448 1639.4L820.089 1639.61C818.539 1640.56 817.04 1641.51 815.584 1642.41L814.623 1643C812.945 1644.07 811.307 1645.11 809.727 1646.11C807.524 1647.51 805.445 1648.85 803.492 1650.13L800.887 1651.84C799.172 1652.97 797.563 1654.05 796.063 1655.05C794.253 1656.28 792.597 1657.41 791.111 1658.44L790.423 1658.92L861.639 1657.23L1168.64 1649.95C1173.89 1649.81 1178.16 1645.44 1178.16 1640.19V1533.15C1178.16 1531.32 1177.44 1529.61 1176.13 1528.33C1174.82 1527.05 1173.1 1526.39 1171.26 1526.43C1170.33 1526.45 1169.41 1526.48 1168.48 1526.52L1166.13 1526.6C1165.2 1526.63 1164.27 1526.67 1163.34 1526.71L1163.23 1526.72C1162.17 1526.76 1161.12 1526.81 1160.08 1526.85C1158.77 1526.92 1157.46 1526.99 1156.17 1527.05L1155.64 1527.09C1154.49 1527.16 1153.32 1527.23 1152.15 1527.29L1146.18 1527.71C1145.16 1527.77 1144.15 1527.85 1143.13 1527.93C1141.72 1528.04 1140.39 1528.16 1139.07 1528.27C1137.66 1528.39 1136.28 1528.52 1134.9 1528.65C1133.85 1528.75 1132.83 1528.84 1131.8 1528.95C1130.85 1529.04 1129.95 1529.13 1129.06 1529.24C1128.13 1529.32 1127.26 1529.41 1126.4 1529.52C1125.15 1529.64 1123.94 1529.79 1122.73 1529.92L1122.45 1529.96C1118.1 1530.45 1113.65 1531.03 1109.22 1531.64C1106.84 1531.97 1104.47 1532.31 1102.11 1532.67L1101.92 1532.69C1100.56 1532.91 1099.21 1533.11 1097.86 1533.33C1095.17 1533.75 1092.51 1534.2 1089.85 1534.65L1088.56 1534.88C1087.65 1535.04 1086.75 1535.19 1085.85 1535.36C1084.42 1535.61 1083.01 1535.87 1081.61 1536.12C1080.36 1536.36 1079.11 1536.6 1077.86 1536.84C1076.6 1537.08 1075.35 1537.33 1074.1 1537.57L1073.88 1537.61C1072.57 1537.88 1071.26 1538.13 1069.96 1538.41C1068.62 1538.68 1067.31 1538.96 1066 1539.23C1064.7 1539.51 1063.39 1539.79 1062.08 1540.08C1060.78 1540.36 1059.48 1540.64 1058.18 1540.95C1057.2 1541.16 1056.24 1541.37 1055.29 1541.6L1054.29 1541.83C1052.99 1542.12 1051.71 1542.43 1050.43 1542.73C1048.26 1543.24 1046.11 1543.76 1043.99 1544.29C1043.54 1544.4 1043.14 1544.51 1042.73 1544.61L1042.41 1544.69C1037.46 1545.92 1032.47 1547.23 1027.56 1548.59C1025.08 1549.25 1022.62 1549.95 1020.17 1550.64L1016.26 1551.77C1013.93 1552.45 1011.59 1553.16 1009.26 1553.85C1007.75 1554.32 1006.23 1554.77 1004.73 1555.25C1002.51 1555.93 1000.32 1556.64 998.125 1557.33C996.929 1557.72 995.741 1558.11 994.553 1558.49L994.405 1558.55C993.264 1558.92 992.121 1559.28 990.98 1559.67L986.731 1561.09C985.615 1561.47 984.496 1561.84 983.388 1562.23L980.405 1563.27C966.824 1568 953.128 1573.2 939.692 1578.75C937.695 1579.57 935.701 1580.4 933.725 1581.23C929.921 1582.83 926.513 1584.29 923.312 1585.71L920.079 1587.12C917.941 1588.07 915.829 1589.01 913.744 1589.96C912.677 1590.44 911.641 1590.91 910.613 1591.39C907.479 1592.81 904.412 1594.24 901.385 1595.67L898.359 1597.11C888.675 1601.72 878.98 1606.57 869.563 1611.51C868.808 1611.91 868.037 1612.31 867.271 1612.72L865.648 1613.57C861.179 1615.95 856.641 1618.41 852.148 1620.89V1620.89ZM789.541 1665.71C786.715 1665.71 784.243 1663.92 783.357 1661.23C782.457 1658.48 783.445 1655.52 785.819 1653.87L787.26 1652.87C788.753 1651.84 790.433 1650.69 792.275 1649.44C793.793 1648.43 795.417 1647.35 797.152 1646.2L799.772 1644.48C801.756 1643.17 803.859 1641.81 806.088 1640.4C807.677 1639.39 809.323 1638.35 811.028 1637.27L811.305 1637.09C811.548 1636.95 811.793 1636.79 812.039 1636.64C813.472 1635.75 814.988 1634.8 816.545 1633.84L816.889 1633.64C817.403 1633.32 817.923 1633 818.448 1632.68C819.219 1632.2 820.031 1631.71 820.853 1631.21C821.993 1630.52 823.148 1629.83 824.331 1629.12C827.651 1627.12 831.225 1625.01 834.944 1622.87C836.095 1622.2 837.261 1621.52 838.452 1620.84C840.796 1619.49 843.209 1618.13 845.687 1616.75L847.428 1615.77C852.424 1613 857.487 1610.24 862.475 1607.59L864.115 1606.72C864.873 1606.32 865.637 1605.92 866.401 1605.52C875.913 1600.53 885.683 1595.65 895.459 1590.99L898.495 1589.55C901.543 1588.11 904.637 1586.67 907.783 1585.23C908.821 1584.75 909.883 1584.27 910.955 1583.79C913.045 1582.84 915.184 1581.88 917.347 1580.93L920.588 1579.51C923.817 1578.08 927.259 1576.6 931.103 1574.97C933.095 1574.15 935.096 1573.32 937.108 1572.48C950.663 1566.89 964.476 1561.64 978.172 1556.87L981.172 1555.83C982.3 1555.44 983.435 1555.05 984.568 1554.68L988.839 1553.24C989.993 1552.85 991.149 1552.48 992.304 1552.11L992.439 1552.05C993.641 1551.67 994.857 1551.27 996.073 1550.88C998.276 1550.17 1000.49 1549.48 1002.71 1548.79C1004.23 1548.31 1005.76 1547.84 1007.3 1547.37C1009.65 1546.67 1012 1545.96 1014.37 1545.27L1018.31 1544.13C1020.79 1543.43 1023.27 1542.73 1025.77 1542.05C1030.72 1540.69 1035.77 1539.36 1040.76 1538.12L1041.06 1538.04C1041.5 1537.93 1041.94 1537.81 1042.39 1537.72C1044.51 1537.19 1046.68 1536.65 1048.86 1536.15C1050.15 1535.84 1051.46 1535.52 1052.78 1535.23L1053.77 1535C1054.74 1534.77 1055.72 1534.55 1056.7 1534.33C1058 1534.04 1059.32 1533.75 1060.63 1533.45C1061.95 1533.17 1063.27 1532.89 1064.59 1532.61C1065.92 1532.33 1067.25 1532.05 1068.58 1531.79C1069.89 1531.51 1071.23 1531.24 1072.57 1530.97L1072.79 1530.93C1074.05 1530.68 1075.32 1530.43 1076.58 1530.19C1077.84 1529.95 1079.1 1529.71 1080.37 1529.47C1081.79 1529.2 1083.21 1528.95 1084.64 1528.69C1085.55 1528.53 1086.47 1528.37 1087.4 1528.21L1088.69 1527.99C1091.39 1527.52 1094.09 1527.07 1096.8 1526.64C1098.15 1526.43 1099.52 1526.21 1100.88 1526L1101.09 1525.97C1103.49 1525.61 1105.89 1525.27 1108.29 1524.93C1112.77 1524.31 1117.27 1523.73 1121.67 1523.23L1121.96 1523.2C1123.2 1523.05 1124.43 1522.91 1125.67 1522.79C1126.53 1522.68 1127.44 1522.59 1128.34 1522.51C1129.22 1522.4 1130.18 1522.29 1131.14 1522.21C1132.15 1522.11 1133.21 1522 1134.27 1521.91C1135.65 1521.77 1137.07 1521.64 1138.48 1521.52C1139.82 1521.4 1141.18 1521.29 1142.54 1521.19C1143.62 1521.11 1144.65 1521.03 1145.69 1520.95L1151.71 1520.53C1152.9 1520.47 1154.08 1520.39 1155.28 1520.32L1155.8 1520.29C1157.1 1520.23 1158.43 1520.16 1159.76 1520.09C1160.81 1520.04 1161.88 1519.99 1162.94 1519.95H1163.05C1164 1519.91 1164.95 1519.87 1165.9 1519.83L1168.26 1519.75C1169.2 1519.72 1170.13 1519.69 1171.07 1519.67C1174.77 1519.55 1178.22 1520.92 1180.86 1523.48C1183.49 1526.04 1184.94 1529.48 1184.94 1533.15V1640.19C1184.94 1649.09 1177.7 1656.51 1168.81 1656.71L789.707 1665.71C789.652 1665.71 789.597 1665.71 789.541 1665.71" fill="#1D2949"/>
<path d="M1558.33 1559.13C1557.36 1559.13 1556.57 1559.51 1556.11 1559.8C1554.55 1560.77 1553.61 1562.56 1553.61 1564.59V1636.87C1553.61 1638.27 1554.15 1639.6 1555.08 1640.51C1555.84 1641.25 1556.8 1641.64 1557.8 1641.61L1675.27 1638.57C1677.67 1638.51 1678.47 1636.31 1678.67 1635.64C1679.11 1634.09 1678.92 1631.83 1676.96 1630.55L1676.72 1630.39C1676.45 1630.21 1676.19 1630.04 1675.93 1629.88C1674.08 1628.67 1672.19 1627.44 1670.2 1626.16L1658.8 1618.8C1655.73 1616.83 1652.55 1614.77 1649.27 1612.69C1647.91 1611.81 1646.53 1610.95 1645.15 1610.07C1612.68 1589.43 1587.15 1574.01 1569.25 1564.24L1567.8 1563.44C1567.65 1563.36 1567.51 1563.28 1567.36 1563.2C1566.07 1562.51 1563.6 1561.27 1560.17 1559.59C1559.52 1559.25 1558.89 1559.13 1558.33 1559.13V1559.13ZM1557.71 1647.61C1555.17 1647.61 1552.77 1646.63 1550.89 1644.8C1548.81 1642.77 1547.61 1639.88 1547.61 1636.87V1564.59C1547.61 1560.48 1548.23 1555.23 1551.56 1553.15C1554.57 1551.27 1559.64 1552.64 1562.83 1554.2C1566.36 1555.93 1568.83 1557.19 1570.16 1557.89C1570.29 1557.97 1570.49 1558.08 1570.69 1558.19L1572.13 1558.97C1590.15 1568.81 1615.79 1584.29 1648.36 1605C1649.75 1605.88 1651.12 1606.76 1652.49 1607.63C1655.77 1609.72 1658.97 1611.77 1662.04 1613.75L1673.47 1621.12C1675.45 1622.41 1677.36 1623.65 1679.17 1624.84C1679.43 1624.99 1679.71 1625.17 1679.99 1625.36L1680.23 1625.52C1684.04 1628 1685.72 1632.72 1684.43 1637.28C1683.21 1641.6 1679.68 1644.45 1675.43 1644.56L1674.19 1644.6L1557.96 1647.61C1557.87 1647.61 1557.79 1647.61 1557.71 1647.61Z" fill="#1D2949"/>
<path d="M849.077 1618.73L861.72 1660.61L792.547 1662.25C788.512 1662.36 786.771 1657.19 790.047 1654.83C805.664 1643.59 834.607 1623.57 849.077 1618.73" fill="#2C3A64"/>
<path d="M1242.92 1526.92C1240.12 1526.92 1237.48 1528 1235.49 1529.96C1233.45 1531.97 1232.34 1534.64 1232.34 1537.49V1636.53C1232.34 1639.69 1233.58 1642.64 1235.84 1644.84C1238.1 1647.05 1241.1 1648.23 1244.23 1648.15L1523.53 1641.52V1546.56C1487.37 1533.72 1425.37 1529.45 1243.07 1526.92C1243.02 1526.92 1242.97 1526.92 1242.92 1526.92V1526.92ZM1243.93 1654.92C1239.11 1654.92 1234.57 1653.07 1231.11 1649.69C1227.53 1646.2 1225.56 1641.53 1225.56 1636.53V1537.49C1225.56 1532.81 1227.4 1528.43 1230.73 1525.15C1234.07 1521.85 1238.49 1520.11 1243.17 1520.15C1432.36 1522.77 1490.95 1527.07 1528.11 1541.01L1530.31 1541.84V1648.13L1244.39 1654.91C1244.24 1654.92 1244.08 1654.92 1243.93 1654.92" fill="#1D2949"/>
<path d="M2010.4 1750.45H1929.47C1917.43 1750.45 1906.05 1744.93 1898.61 1735.48L1868 1696.57C1865.12 1692.91 1867.72 1687.53 1872.4 1687.53H2000.67L1997.65 1697.21L1983.75 1692.37L1989.61 1713.29L1987.79 1722.07L2006.47 1725.04L2010.4 1750.45Z" fill="#A9453D"/>
<path d="M1206.94 1955.56L1203.56 1955.52L1208.64 1521.84L1212.02 1521.88L1206.94 1955.56" fill="#1D2949"/>
<path d="M658.576 1969.16L658.509 1965.77L1495.17 1949.27L1495.24 1952.65L658.576 1969.16Z" fill="#1D2949"/>
<path d="M1158.78 1742.15C1158.78 1746.73 1138.31 1750.45 1113.07 1750.45C1087.83 1750.45 1067.36 1746.73 1067.36 1742.15C1067.36 1737.56 1087.83 1733.85 1113.07 1733.85C1138.31 1733.85 1158.78 1737.56 1158.78 1742.15Z" fill="#ED823A"/>
<path d="M1584.48 1742.15C1584.48 1746.73 1564.01 1750.45 1538.77 1750.45C1513.52 1750.45 1493.07 1746.73 1493.07 1742.15C1493.07 1737.56 1513.52 1733.85 1538.77 1733.85C1564.01 1733.85 1584.48 1737.56 1584.48 1742.15Z" fill="#ED823A"/>
<path d="M1462.57 1951.05L1459.2 1950.87C1461.53 1907.75 1474.31 1871.41 1497.17 1842.85C1515.47 1820.01 1540.2 1802.11 1570.69 1789.63C1617.08 1770.64 1663.01 1770.15 1672.48 1770.29V1641.32H1675.87V1773.79L1674.11 1773.71C1673.6 1773.69 1623 1771.85 1571.88 1792.8C1541.95 1805.07 1517.69 1822.64 1499.77 1845.03C1477.39 1873 1464.87 1908.68 1462.57 1951.05" fill="#1D2949"/>
<path d="M760.52 1965.44C759.208 1853.57 765.436 1776.17 770.892 1730.95C776.813 1681.87 783.144 1658.93 783.208 1658.71L786.468 1659.61C786.217 1660.52 761.4 1751.84 763.907 1965.4L760.52 1965.44Z" fill="#1D2949"/>
<path d="M1243.12 1525.21H1176.89V1521.84H1243.12V1525.21Z" fill="#1D2949"/>
<path d="M1993.27 1935.87C1993.27 1935.87 1980.36 1930.27 1972.56 1928.81C1964.76 1927.35 1919.44 1933.2 1919.44 1933.2C1919.44 1933.2 1938.93 1920.04 1949.16 1915.65C1959.4 1911.27 2007.16 1902.25 2007.16 1902.25C2004.61 1907.84 1988.88 1917.17 1993.27 1935.87Z" fill="#E58339"/>
<path d="M2010.4 1845.23L1969.88 1828.43L1945.76 1796.19L1999.85 1816L2021.76 1816.68L2010.4 1845.23" fill="#E58339"/>
<path d="M1972.07 1870.08C1972.07 1870.08 1933.33 1865.71 1924.56 1870.08C1915.79 1874.47 1893.87 1897.13 1896.79 1902.25C1899.71 1907.36 1938.45 1884.95 1953.07 1885.19C1967.69 1885.44 2010.95 1878.12 2010.95 1878.12L1972.07 1870.08" fill="#E58339"/>
<path d="M1871.2 2079.61C1871.2 2079.61 1912.87 2065.25 1923.09 2062.32C1933.33 2059.4 1956.48 2058.77 1956.48 2058.77C1956.48 2058.77 1951.47 2071.59 1953.73 2072.56C1955.99 2073.53 1966.23 2079.73 1966.23 2079.73L1871.2 2079.61Z" fill="#F99746"/>
<path d="M2027.63 2079.61C2027.63 2079.61 2054.91 2066.71 2061.73 2066.71C2068.56 2066.71 2096.33 2073.16 2096.33 2073.16L2093.41 2079.73L2027.63 2079.61Z" fill="#F99746"/>
<path d="M2010.4 1750.45H1966.23L1964.4 1744L1980.84 1733.76L1954.53 1726.45L1947.95 1714.39L1970.97 1703.07L1962.57 1687.53H2000.67L1997.65 1697.21L1983.75 1692.37L1989.61 1713.29L1987.79 1722.07L2006.47 1725.04L2010.4 1750.45" fill="#7A231F"/>
<path d="M1984.87 2079.61L1986.32 2073.21L2000.95 2071.47L2005.33 2079.73L1984.87 2079.61Z" fill="#A9453D"/>
<path d="M929.069 1687.09H856.705C847.057 1687.09 839.163 1679.2 839.163 1669.55V1648.28C839.163 1638.64 847.057 1630.73 856.705 1630.73H929.069C938.719 1630.73 946.612 1638.64 946.612 1648.28V1669.55C946.612 1679.2 938.719 1687.09 929.069 1687.09Z" fill="#ED823A"/>
<path d="M2085.03 1369.97C2085.03 1369.97 2083.92 1352 2084.05 1344.23C2084.19 1336.44 2103.4 1314.12 2109.93 1314.12C2116.45 1314.12 2114.28 1334.69 2113.2 1341.09C2112.11 1347.49 2115.37 1353.29 2111.75 1358.37C2108.12 1363.44 2100.99 1374.2 2100.99 1374.2L2085.03 1369.97Z" fill="#D9935C"/>
<path d="M2199.7 1399.59L2168.86 1429.16C2161.59 1423.09 2155.82 1416.14 2151.25 1409.34C2150.52 1408.29 2149.83 1407.24 2149.17 1406.19C2145.05 1399.6 2142.03 1393.4 2139.86 1388.61C2139.49 1387.84 2139.16 1387.11 2138.86 1386.4C2137.15 1382.68 2155.99 1370.77 2166.62 1363.21C2169.93 1360.77 2172.46 1358.85 2173.33 1357.68C2173.33 1357.68 2172.58 1362.67 2173.29 1366.06C2174.92 1374.04 2178.43 1378.93 2182.58 1383.49C2193.37 1395.31 2199.7 1399.59 2199.7 1399.59" fill="#FFB27D"/>
<path d="M2176.35 1366.79C2176.35 1366.79 2170.25 1399.28 2151.24 1409.35C2150.52 1408.3 2149.82 1407.24 2149.17 1406.19C2145.04 1399.6 2142.03 1393.4 2139.85 1388.62C2142.16 1383.8 2158.01 1373.68 2167.44 1367C2172.74 1366.9 2176.35 1366.79 2176.35 1366.79" fill="#ED975D"/>
<path d="M2138.57 1402.86C2138.57 1402.86 2184.74 1387.45 2174.7 1358.85C2164.66 1330.24 2163.85 1308.99 2133.96 1317.62C2104.05 1326.25 2102.18 1339.17 2103.21 1349.53C2104.23 1359.9 2126.3 1406.14 2138.57 1402.86Z" fill="#FFB27D"/>
<path d="M2178.23 1367.5C2178.23 1367.5 2173.52 1364.38 2183.85 1348.06C2189.19 1339.65 2193.94 1331.73 2186.39 1318.04C2178.85 1304.35 2179.32 1293.32 2158.52 1293.32C2137.73 1293.33 2135.63 1283.69 2125.04 1287.04C2114.44 1290.41 2105.03 1305.98 2095.95 1308.9C2086.88 1311.82 2080 1359.35 2100.77 1358.05C2100.77 1358.05 2108.56 1354.15 2112.06 1347.87C2115.53 1341.59 2133.25 1327.29 2138.87 1331.96C2144.5 1336.62 2167.06 1367.71 2178.23 1367.5" fill="#233862"/>
<path d="M2207.28 1473.75C2207.28 1473.75 2116.22 1514.49 2060.87 1523.85C2060.87 1523.85 2043.53 1522.68 2042.94 1501.35C2042.58 1487.81 2133.82 1421.37 2167.15 1423.36C2200.49 1425.33 2218.8 1459.45 2207.28 1473.75" fill="#ED823A"/>
<path d="M2103 1372.57L2095.45 1475.43L2042.95 1501.35C2042.95 1501.35 2043.76 1462.92 2058.65 1420.41C2074.77 1374.4 2083.33 1366.89 2083.33 1366.89C2083.33 1366.89 2097.83 1363.61 2103 1372.57Z" fill="#ED823A"/>
<path d="M2186.24 2070.54C2185.83 2075.09 2184.85 2078.94 2182.8 2079.92C2182.44 2080.09 2181.84 2080.24 2181.05 2080.37H2111.71C2109.86 2080.31 2108.8 2080.28 2108.8 2080.28C2108.8 2080.28 2108.97 2071.71 2120.77 2070.05C2130.29 2068.72 2145.69 2064.17 2153.26 2054.3C2155.06 2051.97 2156.41 2049.33 2157.13 2046.36C2160.96 2030.88 2185.92 2051.73 2185.92 2051.73C2185.92 2051.73 2186.2 2054.42 2186.38 2058.17C2186.55 2061.81 2186.63 2066.47 2186.24 2070.54" fill="#233862"/>
<path d="M2251.24 2080.37H2174.19C2175.05 2078.4 2178.2 2072.6 2186.24 2070.55C2187.01 2070.33 2187.84 2070.17 2188.7 2070.05C2197.02 2068.88 2209.78 2065.28 2217.93 2057.84C2221.36 2054.72 2223.96 2050.93 2225.08 2046.36C2228.89 2030.88 2253.87 2051.73 2253.87 2051.73C2253.87 2051.73 2254.12 2054.2 2254.3 2057.72C2254.71 2065.32 2254.81 2077.77 2251.24 2080.37" fill="#233862"/>
<path d="M2218.54 1660.96C2218.54 1660.96 2218.47 1663.76 2218.36 1668.78C2217.67 1701.2 2214.9 1826.56 2212.28 1896.44C2212.17 1898.98 2212.07 1901.44 2211.98 1903.84C2211.92 1905.1 2211.87 1906.37 2211.81 1907.62C2210.25 1941.41 2205.68 1974.49 2201.04 2000.96C2195.13 2034.69 2189.13 2057.68 2189.13 2057.68C2166.61 2062.24 2152.04 2053.68 2152.04 2053.68C2152.04 2053.68 2145.97 2001.31 2143.65 1969.61C2142.9 1959.33 2139.19 1924.24 2134.53 1881.54C2130.94 1848.54 2126.76 1810.98 2122.94 1776.82C2122.73 1775.01 2122.56 1773.18 2122.34 1771.4C2116.16 1716.17 2111.04 1671.2 2111.04 1671.2L2150.84 1667.4L2218.54 1660.96" fill="#2B478B"/>
<path d="M2201.03 2000.96L2134.54 1881.55C2130.94 1848.54 2126.76 1810.98 2122.93 1776.82C2122.74 1775.01 2122.55 1773.18 2122.34 1771.4C2116.17 1716.17 2111.04 1671.2 2111.04 1671.2L2150.85 1667.4L2218.36 1668.78L2201.03 2000.96" fill="#233862"/>
<path d="M2118.4 1671.49C2118.4 1671.49 2155.61 1855.39 2185.92 1944.15C2216.22 2032.91 2216.61 2057.56 2216.61 2057.56C2216.61 2057.56 2244.43 2063.6 2256.68 2056.6C2256.68 2056.6 2263.68 1888.33 2245.33 1843.65C2233.2 1814.09 2223.92 1751.19 2227.08 1728.53C2230.22 1705.87 2233.17 1660.43 2233.17 1660.43L2118.4 1671.49" fill="#2B478B"/>
<path d="M2238.07 1655.65C2235.99 1666.91 2230.98 1675.87 2223.29 1681.33C2214.49 1687.55 2200.63 1689.8 2185.38 1689.56C2167.56 1689.28 2147.82 1685.6 2132.06 1680.88C2123.57 1678.34 2116.25 1675.52 2110.96 1672.76C2087.39 1660.48 2090.73 1644.12 2091.29 1582.91C2091.87 1520.44 2130.32 1439.69 2137.26 1426.17C2149.58 1402.11 2201.87 1410.01 2201.87 1410.01C2213.34 1420.53 2223.37 1435.8 2230.21 1460.2C2232.98 1470.08 2234.6 1483.91 2235.52 1499.42C2238.35 1546.84 2234.69 1610.08 2237.47 1624.85C2239.57 1636.17 2239.75 1646.64 2238.07 1655.65" fill="#F99746"/>
<path d="M2195.04 1386.16C2195.04 1386.16 2203.59 1406.41 2201.87 1410.01C2201.87 1410.01 2154.88 1414.45 2135.76 1428.07C2135.76 1428.07 2142.05 1408.4 2149.69 1403.52C2157.35 1398.64 2195.04 1386.16 2195.04 1386.16Z" fill="#ED823A"/>
<path d="M2238.07 1655.65C2140.76 1618.61 2196.33 1481.68 2196.33 1481.68C2209.93 1482.64 2223.29 1489.25 2235.52 1499.42C2238.35 1546.84 2234.69 1610.08 2237.47 1624.85C2239.57 1636.17 2239.75 1646.64 2238.07 1655.65" fill="#ED823A"/>
<path d="M2193.59 1419.13C2193.59 1419.13 2276.99 1475.01 2313.21 1517.9C2313.21 1517.9 2311.01 1535 2299.32 1541.81C2287.62 1548.61 2185.87 1509.01 2170.63 1479.3C2155.37 1449.6 2175.42 1416.48 2193.59 1419.13Z" fill="#F99746"/>
<path d="M2205.2 1599.69C2205.2 1599.69 2199.86 1608.93 2194.72 1606.76C2189.59 1604.57 2179.25 1602.28 2171.54 1607.24C2163.85 1612.2 2152.25 1625.57 2159.49 1628.84C2166.75 1632.1 2180.53 1623.44 2183.8 1621.98C2187.05 1620.53 2192.74 1623.44 2199.02 1620.29C2205.32 1617.14 2211.84 1610.87 2211.84 1610.87L2205.2 1599.69" fill="#FFB27D"/>
<path d="M2196.82 1602.18L2265.24 1508.61L2313.21 1517.9C2313.21 1517.9 2306.81 1549.5 2272.04 1578.12C2236.19 1607.61 2216.42 1613.46 2216.42 1613.46C2216.42 1613.46 2192.67 1617.56 2196.82 1602.18Z" fill="#F99746"/>
<path d="M2683.49 1479.4C2686.75 1488.18 2692.4 1498.38 2698.34 1500.91C2705.08 1503.78 2707.89 1507.84 2707.89 1507.84L2713.33 1504.68L2719.82 1500.91C2719.82 1500.91 2719.67 1500.19 2719.35 1499C2719.05 1497.84 2718.55 1496.22 2717.88 1494.4C2717.88 1494.4 2715.9 1491.84 2717.13 1488.63C2718.33 1485.42 2718.1 1480.44 2716.01 1477.42C2713.93 1474.39 2711.93 1466.92 2710.66 1467.15C2707.64 1467.67 2712.16 1477.92 2710.86 1479.83C2709.69 1481.55 2708.22 1480.95 2707.94 1480.83C2707.92 1480.82 2707.9 1480.8 2707.89 1480.79C2699.36 1477.04 2689.03 1456.86 2684.46 1459.58C2682.76 1460.6 2682.09 1475.66 2683.49 1479.4" fill="#FFB27D"/>
<path d="M2712.96 1491.63L2702.28 1499.12C2701.54 1499.65 2700.49 1499.47 2699.95 1498.72L2672.62 1459.81C2672.08 1459.05 2672.27 1458 2673.01 1457.48L2683.69 1449.97C2684.45 1449.44 2685.49 1449.63 2686.02 1450.39L2713.37 1489.29C2713.91 1490.04 2713.72 1491.09 2712.96 1491.63" fill="#2B478B"/>
<path d="M2703.2 1498.49L2696.94 1502.89C2696.36 1503.29 2695.56 1503.16 2695.17 1502.59L2667.35 1463.01C2666.95 1462.44 2667.1 1461.64 2667.66 1461.24L2673.92 1456.84C2674.5 1456.44 2675.29 1456.57 2675.69 1457.15L2703.51 1496.72C2703.91 1497.29 2703.78 1498.09 2703.2 1498.49" fill="#233862"/>
<path d="M2866.1 1435.79C2866.1 1435.79 2811.78 1530.53 2792.08 1547.96L2719.83 1494.1C2719.83 1494.1 2709.34 1497.31 2704.74 1507.84C2704.74 1507.84 2748.62 1597.23 2791.83 1601.01C2835.03 1604.81 2895.66 1493.87 2895.66 1493.87L2866.1 1435.79Z" fill="#233862"/>
<path d="M2989.01 2080.16H3020.4C3024.36 2078.02 3027.87 2073.11 3029 2065.79C3030.53 2055.67 3041.86 2050.16 3044.3 2041.9C3046.75 2033.63 3034.19 2021.99 3034.19 2021.99L3032.1 2019.28L3029.91 2016.47L3009.07 2021.38C3009.07 2021.38 3008.57 2026.33 3008.25 2032.65C3008.02 2037.22 3007.89 2042.48 3008.15 2047.11C3008.77 2058.12 3005.07 2070 2995.28 2072.15C2988.02 2073.74 2988.36 2078.03 2989.01 2080.16" fill="#233862"/>
<path d="M2806.88 2080.16H2878.65C2882.1 2075.95 2880.83 2060.41 2880.32 2055.33C2880.21 2054.31 2880.12 2053.72 2880.12 2053.72C2880.12 2053.72 2855.61 2034.11 2852.25 2049.12C2852.15 2049.59 2852.02 2050.05 2851.88 2050.51C2847.64 2064.55 2828.61 2070.93 2817.63 2072.71C2810.51 2073.87 2807.86 2077.57 2806.88 2080.16" fill="#233862"/>
<path d="M2820.55 1679.53C2820.55 1679.53 2824.29 1725.97 2828.65 1781.79C2834.6 1857.6 2841.74 1950.73 2842.46 1968.37C2843.68 1999.01 2848.58 2048.01 2848.58 2048.01C2848.58 2048.01 2860.22 2059.65 2883.51 2054.75C2883.51 2054.75 2904.25 1984.8 2910.19 1910.77C2910.28 1909.56 2910.35 1908.35 2910.46 1907.12C2915.97 1831.77 2924.55 1673.11 2924.55 1673.11L2820.55 1679.53" fill="#FFA25C"/>
<path d="M2820.55 1679.53C2820.55 1679.53 2824.29 1725.97 2828.65 1781.79L2910.19 1910.77C2910.28 1909.56 2910.35 1908.35 2910.46 1907.12C2915.97 1831.77 2924.55 1673.11 2924.55 1673.11L2820.55 1679.53Z" fill="#EF8C48"/>
<path d="M2837.55 1685.06C2837.55 1685.06 2904.63 1853.22 2948.73 1932.24C2992.85 2011.27 3006.62 2033.32 3006.62 2033.32C3006.62 2033.32 3031.9 2023.2 3034.19 2016.32C3034.19 2016.32 3017.33 1863.75 2987.78 1826.56C2971.11 1805.55 2951.5 1742.48 2950.57 1720.43C2949.66 1698.38 2944.6 1654.72 2944.6 1654.72L2837.55 1685.06" fill="#FFA25C"/>
<path d="M2854.26 1439.91C2880.47 1448.17 2925.83 1425.85 2925.83 1425.85C2925.83 1425.85 2901.65 1407.72 2902.92 1370L2882.66 1386.33L2868.89 1397.43C2868.89 1397.43 2868.95 1403.97 2870.45 1415.44C2870.85 1418.45 2871.33 1421.81 2871.96 1425.48C2860.71 1431.65 2854.26 1439.91 2854.26 1439.91Z" fill="#FFB27D"/>
<path d="M2868.88 1397.43C2868.88 1397.43 2868.94 1403.98 2870.45 1415.44C2885.7 1412.81 2903.01 1388.16 2903.01 1388.16C2895.24 1385.92 2888.44 1385.52 2882.65 1386.34L2868.88 1397.43Z" fill="#ED975D"/>
<path d="M2860.88 1396.81C2860.88 1396.81 2904.19 1404 2908.23 1376.97C2912.3 1349.93 2920.63 1332.66 2893.15 1326.92C2865.68 1321.19 2858.76 1330.69 2855.2 1339.38C2851.65 1348.08 2849.71 1394.24 2860.88 1396.81Z" fill="#FFB27D"/>
<path d="M2817.66 1683.4C2818.44 1684.06 2819.36 1684.46 2820.41 1684.46C2830.26 1684.32 2858.96 1689.79 2883.26 1687.3C2903.73 1685.34 2921.85 1679.27 2941.3 1670.54C2943.89 1669.38 2949.84 1666.2 2949.72 1663.32C2949.63 1660.15 2949.32 1655.56 2948.9 1649.79C2947.54 1629.7 2945.14 1595.15 2947.49 1555.28C2947.89 1547.87 2948.12 1540.5 2948.14 1533.26C2948.34 1479.23 2937.63 1431.71 2916.11 1415.63C2914.26 1414.31 2902.97 1419.83 2892.6 1424.94C2883.03 1429.67 2873.44 1430.19 2864.39 1428.36L2855.34 1436.36C2844.32 1446.6 2832.23 1460.51 2826.98 1481.64C2822.51 1499.63 2819.91 1532.06 2818.44 1565.66C2817.79 1580.88 2817.26 1596.24 2817.14 1610.82V1611.34C2817.01 1612.78 2817.01 1614.36 2817.01 1615.8C2816.47 1653.22 2817.01 1682.88 2817.66 1683.4" fill="#2B478B"/>
<path d="M2948.91 1649.79C2947.53 1629.7 2945.13 1595.15 2947.48 1555.28C2947.9 1547.87 2948.13 1540.5 2948.15 1533.26C2939.18 1511.5 2931.85 1495.72 2931.85 1495.72H2909.23C2909.23 1495.72 2892.66 1608.91 2948.91 1649.79Z" fill="#233862"/>
<path d="M2991.39 1653.68C2991.39 1653.68 2996.47 1660.43 2996.66 1663.12C2998.03 1681.37 2989.67 1683.91 3011.28 1694.05C3011.28 1694.05 3020.51 1697.56 3020.66 1690.4C3020.82 1683.25 3014.26 1683.13 3015.47 1673.11C3016.86 1661.55 3016.71 1661.43 3009.11 1655.39L3004.09 1647.09L2991.39 1653.68" fill="#FFB27D"/>
<path d="M3004.26 1658.84C2996.12 1660.43 2987.3 1659.79 2987.3 1659.79C2987.3 1659.79 2963.14 1585.15 2960.03 1578.32C2956.92 1571.51 2888.25 1490.8 2888.25 1490.8L2916.85 1419.22C2916.85 1419.22 2991.13 1543.27 2998.68 1560.71C3011.13 1589.51 3015.46 1654.1 3015.46 1654.1C3015.46 1654.1 3010.66 1657.6 3004.26 1658.84Z" fill="#2B478B"/>
<path d="M2908.26 1374.37C2908.26 1374.37 2903.82 1373.63 2904.54 1367.51C2905.25 1361.39 2905.25 1353.39 2900.27 1354.88C2895.29 1356.37 2895.06 1360.35 2892.99 1358.03C2890.95 1355.69 2890.92 1345.89 2876.11 1345.21C2861.31 1344.53 2855.28 1349.68 2848.42 1346.65C2841.52 1343.63 2841.16 1333.21 2841.16 1333.21C2841.16 1333.21 2843.11 1336.93 2846.07 1338.12C2846.07 1338.12 2834.58 1322.41 2847.88 1311.63C2861.18 1300.86 2874.75 1307.91 2882.44 1308.38C2899.39 1309.4 2910.36 1310.42 2915.9 1321.56C2921.44 1332.71 2919.14 1363.64 2908.26 1374.37Z" fill="#2B478B"/>
<path d="M2999.39 1661.7C2999.39 1661.7 2994.51 1666.78 2994.22 1668.9C2993.22 1675.69 2990.96 1678.62 2992.08 1679.36C2994.46 1680.89 2997.59 1675.86 2999.08 1671.36C3000.57 1666.85 2999.39 1661.7 2999.39 1661.7Z" fill="#FFB27D"/>
<path d="M4106.6 2088.67L4106.57 2090.65C4106.57 2093.27 4104.51 2095.43 4101.99 2095.41L1145.31 2085.52L238.432 2082.48L187.638 2082.32C185.117 2082.32 183.072 2080.15 183.072 2077.52L183.086 2075.55C183.086 2072.92 185.16 2070.77 187.667 2070.77L238.432 2070.95L3893.81 2083.17L4102.04 2083.87C4104.56 2083.88 4106.6 2086.04 4106.6 2088.67" fill="#2E3552"/>
</svg>
